<svg width="12" height="12" viewBox="0 0 12 12" fill="none" xmlns="http://www.w3.org/2000/svg">
<path d="M6 0C2.694 0 0 2.694 0 6C0 9.306 2.694 12 6 12C9.306 12 12 9.306 12 6C12 2.694 9.306 0 6 0ZM8.4 6.45H6.45V8.4C6.45 8.646 6.246 8.85 6 8.85C5.754 8.85 5.55 8.646 5.55 8.4V6.45H3.6C3.354 6.45 3.15 6.246 3.15 6C3.15 5.754 3.354 5.55 3.6 5.55H5.55V3.6C5.55 3.354 5.754 3.15 6 3.15C6.246 3.15 6.45 3.354 6.45 3.6V5.55H8.4C8.646 5.55 8.85 5.754 8.85 6C8.85 6.246 8.646 6.45 8.4 6.45Z" fill="white"/>
</svg>
