<svg width="18" height="19" viewBox="0 0 18 19" fill="none" xmlns="http://www.w3.org/2000/svg">
<path d="M17.0526 7.7805H14.3147C12.0695 7.7805 10.2411 5.947 10.2411 3.6955V0.95C10.2411 0.4275 9.81474 0 9.29368 0H5.27684C2.35895 0 0 1.9 0 5.2915V13.7085C0 17.1 2.35895 19 5.27684 19H12.7232C15.6411 19 18 17.1 18 13.7085V8.7305C18 8.208 17.5737 7.7805 17.0526 7.7805ZM9.26526 13.091L7.37053 14.991C7.30421 15.0575 7.21895 15.1145 7.13368 15.143C7.04842 15.181 6.96316 15.2 6.86842 15.2C6.77368 15.2 6.68842 15.181 6.60316 15.143C6.52737 15.1145 6.45158 15.0575 6.39474 15.0005C6.38526 14.991 6.37579 14.991 6.37579 14.9815L4.48105 13.0815C4.20632 12.806 4.20632 12.35 4.48105 12.0745C4.75579 11.799 5.21053 11.799 5.48526 12.0745L6.1579 12.768V8.7875C6.1579 8.398 6.48 8.075 6.86842 8.075C7.25684 8.075 7.57895 8.398 7.57895 8.7875V12.768L8.26105 12.084C8.53579 11.8085 8.99053 11.8085 9.26526 12.084C9.54 12.3595 9.54 12.8155 9.26526 13.091Z" fill="#1C1B20"/>
<path d="M14.1439 6.46952C15.0439 6.47902 16.2944 6.47902 17.365 6.47902C17.905 6.47902 18.1892 5.84252 17.8102 5.46252C16.446 4.08502 14.0018 1.60552 12.5997 0.199518C12.2113 -0.189982 11.5387 0.0760179 11.5387 0.617518V3.93302C11.5387 5.32002 12.7134 6.46952 14.1439 6.46952Z" fill="#1C1B20"/>
</svg>
