<svg width="116" height="22" viewBox="0 0 116 22" fill="none" xmlns="http://www.w3.org/2000/svg">
<path fill-rule="evenodd" clip-rule="evenodd" d="M12.7467 1.22461L10.4238 3.54744L15.9853 9.10896L21.5469 3.54744L19.224 1.22461L15.9853 4.46329L12.7467 1.22461Z" fill="#FF323A"/>
<path fill-rule="evenodd" clip-rule="evenodd" d="M5.40261 0L0 5.40261L16 21.4026L32 5.40261L26.5974 0L16 10.5974L5.40261 0Z" fill="#FF323A"/>
<path d="M49.3833 17.2015L46.1673 12.8815H44.4313V17.2015H41.1113V5.2015H48.2393C49.146 5.2015 49.9433 5.3615 50.6313 5.6815C51.3246 6.0015 51.8606 6.45483 52.2393 7.0415C52.6233 7.62283 52.8153 8.29484 52.8153 9.0575C52.8153 9.66017 52.6926 10.2095 52.4473 10.7055C52.202 11.1961 51.85 11.6121 51.3913 11.9535C50.938 12.2948 50.402 12.5428 49.7833 12.6975L53.2313 17.2015H49.3833ZM44.4313 7.6655V10.4495H47.7833C48.306 10.4495 48.7166 10.3268 49.0153 10.0815C49.314 9.83617 49.4633 9.49483 49.4633 9.0575C49.4633 8.62017 49.314 8.27884 49.0153 8.0335C48.722 7.78817 48.3113 7.6655 47.7833 7.6655H44.4313ZM61.4411 5.2015C62.4384 5.2015 63.3024 5.37217 64.0331 5.7135C64.7637 6.05483 65.3237 6.5375 65.7131 7.1615C66.1024 7.7855 66.2971 8.51084 66.2971 9.3375C66.2971 10.1641 66.1024 10.8895 65.7131 11.5135C65.3237 12.1375 64.7637 12.6201 64.0331 12.9615C63.3024 13.3028 62.4384 13.4735 61.4411 13.4735H58.0251V17.2015H54.7051V5.2015H61.4411ZM61.2491 10.8175C61.7824 10.8175 62.1984 10.6868 62.4971 10.4255C62.7957 10.1641 62.9451 9.8015 62.9451 9.3375C62.9451 8.8735 62.7957 8.51083 62.4971 8.2495C62.1984 7.98817 61.7824 7.8575 61.2491 7.8575H58.0251V10.8175H61.2491ZM80.5453 17.2015H77.0093L76.0093 14.8895H69.8093L68.8093 17.2015H65.2653L70.7293 5.2015H75.0893L80.5453 17.2015ZM72.9053 7.7295L70.9613 12.2255H74.8573L72.9053 7.7295ZM88.9753 5.2015H92.6473L87.0473 12.3375V17.2015H83.7273V12.3775L78.1033 5.2015H81.7753L85.3753 9.7935L88.9753 5.2015ZM92.8993 17.3695C92.558 17.3695 92.246 17.2895 91.9633 17.1295C91.686 16.9641 91.4646 16.7428 91.2993 16.4655C91.1393 16.1828 91.0593 15.8708 91.0593 15.5295C91.0593 15.1881 91.1393 14.8788 91.2993 14.6015C91.4646 14.3188 91.686 14.0975 91.9633 13.9375C92.246 13.7721 92.558 13.6895 92.8993 13.6895C93.2406 13.6895 93.55 13.7721 93.8273 13.9375C94.11 14.0975 94.3313 14.3188 94.4913 14.6015C94.6566 14.8788 94.7393 15.1881 94.7393 15.5295C94.7393 15.8708 94.6566 16.1828 94.4913 16.4655C94.3313 16.7428 94.11 16.9641 93.8273 17.1295C93.55 17.2895 93.2406 17.3695 92.8993 17.3695ZM96.4082 17.2015V5.2015H99.7282V17.2015H96.4082ZM108.563 17.4655C107.155 17.4655 105.912 17.2041 104.835 16.6815C103.757 16.1588 102.92 15.4255 102.323 14.4815C101.731 13.5321 101.435 12.4388 101.435 11.2015C101.435 9.96417 101.731 8.8735 102.323 7.9295C102.92 6.98017 103.757 6.24417 104.835 5.7215C105.912 5.19883 107.155 4.9375 108.563 4.9375C109.971 4.9375 111.213 5.19883 112.291 5.7215C113.368 6.24417 114.203 6.98017 114.795 7.9295C115.392 8.8735 115.691 9.96417 115.691 11.2015C115.691 12.4388 115.392 13.5321 114.795 14.4815C114.203 15.4255 113.368 16.1588 112.291 16.6815C111.213 17.2041 109.971 17.4655 108.563 17.4655ZM108.563 14.4975C109.331 14.4975 109.997 14.3641 110.563 14.0975C111.133 13.8308 111.571 13.4495 111.875 12.9535C112.184 12.4575 112.339 11.8735 112.339 11.2015C112.339 10.5295 112.184 9.9455 111.875 9.4495C111.571 8.9535 111.133 8.57217 110.563 8.3055C109.997 8.03883 109.331 7.9055 108.563 7.9055C107.795 7.9055 107.125 8.03883 106.555 8.3055C105.989 8.57217 105.552 8.9535 105.243 9.4495C104.939 9.9455 104.787 10.5295 104.787 11.2015C104.787 11.8735 104.939 12.4575 105.243 12.9535C105.552 13.4495 105.989 13.8308 106.555 14.0975C107.125 14.3641 107.795 14.4975 108.563 14.4975Z" fill="white"/>
</svg>
