<svg width="42" height="42" viewBox="0 0 42 42" fill="none" xmlns="http://www.w3.org/2000/svg">
<rect width="42" height="42" rx="8" fill="#F6F6F6"/>
<path d="M29 10H13C10.7867 10 9 11.7292 9 13.8615V28.0463C9 30.1785 10.7867 31.9207 13 31.9207H14.0133C15.0667 31.9207 16.0933 32.3238 16.84 33.0519L19.12 35.2492C20.16 36.2503 21.84 36.2503 22.88 35.2492L25.16 33.0519C25.9067 32.3238 26.9333 31.9207 27.9867 31.9207H29C31.2133 31.9207 33 30.1785 33 28.0463V13.8615C33 11.7292 31.2133 10 29 10ZM21 14.6156C22.44 14.6156 23.6 15.7597 23.6 17.1509C23.6 18.5291 22.48 19.6342 21.0933 19.6862C21.04 19.6862 20.96 19.6862 20.8933 19.6862C19.4933 19.6342 18.3867 18.5291 18.3867 17.1509C18.4 15.7597 19.56 14.6156 21 14.6156ZM24.6667 26.4991C22.6533 27.8122 19.3467 27.8122 17.3333 26.4991C15.56 25.3549 15.56 23.4567 17.3333 22.2995C19.36 20.9864 22.6667 20.9864 24.6667 22.2995C26.44 23.4567 26.44 25.3419 24.6667 26.4991Z" fill="#1C1B20"/>
</svg>
