<svg width="42" height="42" viewBox="0 0 42 42" fill="none" xmlns="http://www.w3.org/2000/svg">
<rect width="42" height="42" rx="8" fill="#F6F6F6"/>
<path d="M26.0365 8.99951H15.9755C11.6053 8.99951 9 11.6035 9 15.9715V26.0155C9 30.3955 11.6053 32.9995 15.9755 32.9995H26.0245C30.3947 32.9995 33 30.3955 33 26.0275V15.9715C33.012 11.6035 30.4067 8.99951 26.0365 8.99951ZM26.3006 18.3955C25.5683 20.4835 23.5993 21.8875 21.3902 21.8875C21.3782 21.8875 21.3782 21.8875 21.3662 21.8875L18.8929 21.8755C18.8929 21.8755 18.8929 21.8755 18.8809 21.8755C17.9685 21.8755 17.1761 22.4875 16.936 23.3635C18.0045 23.6995 18.7849 24.6955 18.7849 25.8715C18.7849 27.3235 17.5963 28.5115 16.1436 28.5115C14.6908 28.5115 13.5022 27.3235 13.5022 25.8715C13.5022 24.8035 14.1506 23.8795 15.063 23.4715V18.2395C14.1506 17.8795 13.5022 16.9915 13.5022 15.9595C13.5022 14.6035 14.6068 13.4995 15.9635 13.4995C17.3201 13.4995 18.4247 14.6035 18.4247 15.9595C18.4247 17.0035 17.7764 17.8795 16.8639 18.2395V20.6635C17.4522 20.2915 18.1486 20.0755 18.8809 20.0755H18.8929L21.3662 20.0875C22.7829 20.1355 24.0435 19.2235 24.5477 17.9035C23.9595 17.4475 23.5753 16.7515 23.5753 15.9595C23.5753 14.6035 24.6798 13.4995 26.0365 13.4995C27.3932 13.4995 28.4977 14.6035 28.4977 15.9595C28.5097 17.2315 27.5372 18.2635 26.3006 18.3955Z" fill="#1C1B20"/>
</svg>
