<svg width="42" height="42" viewBox="0 0 42 42" fill="none" xmlns="http://www.w3.org/2000/svg">
<rect width="42" height="42" rx="8" fill="#F6F6F6"/>
<path d="M21 9C14.376 9 9 14.376 9 21C9 27.624 14.376 33 21 33C27.624 33 33 27.624 33 21C33 14.376 27.624 9 21 9ZM17.4 16.2C18.06 16.2 18.6 16.74 18.6 17.4C18.6 18.06 18.072 18.6 17.4 18.6C16.74 18.6 16.2 18.06 16.2 17.4C16.2 16.74 16.74 16.2 17.4 16.2ZM18.036 25.236C17.856 25.416 17.628 25.5 17.4 25.5C17.172 25.5 16.944 25.416 16.764 25.236C16.416 24.888 16.416 24.312 16.764 23.964L23.964 16.764C24.312 16.416 24.888 16.416 25.236 16.764C25.584 17.112 25.584 17.688 25.236 18.036L18.036 25.236ZM24.6 25.8C23.928 25.8 23.388 25.26 23.388 24.6C23.388 23.94 23.928 23.4 24.588 23.4C25.248 23.4 25.788 23.94 25.788 24.6C25.788 25.26 25.26 25.8 24.6 25.8Z" fill="#1C1B20"/>
</svg>
