<svg width="42" height="42" viewBox="0 0 42 42" fill="none" xmlns="http://www.w3.org/2000/svg">
<rect width="42" height="42" rx="8" fill="#F6F6F6"/>
<path d="M32.6019 14.9396C31.8339 12.3355 29.6617 10.1634 27.0576 9.39532C25.0775 8.81929 23.7094 8.86729 22.7613 9.57533C21.6213 10.4274 21.4893 11.9635 21.4893 13.0555V16.0437C21.4893 18.9959 22.8333 20.496 25.4735 20.496H28.9177C29.9977 20.496 31.5458 20.3639 32.3979 19.2239C33.1299 18.2878 33.1899 16.9198 32.6019 14.9396Z" fill="#1C1B20"/>
<path d="M29.2901 22.6323C28.9781 22.2723 28.5221 22.0683 28.054 22.0683H23.7578C21.6457 22.0683 19.9296 20.3522 19.9296 18.24V13.9438C19.9296 13.4758 19.7256 13.0197 19.3655 12.7077C19.0175 12.3957 18.5375 12.2517 18.0815 12.3117C15.2613 12.6717 12.6692 14.2198 10.9771 16.5479C9.27296 18.8881 8.64893 21.7442 9.18896 24.6004C9.969 28.7286 13.2692 32.0288 17.4094 32.8089C18.0695 32.9409 18.7295 33.0009 19.3895 33.0009C21.5617 33.0009 23.6618 32.3288 25.4499 31.0208C27.778 29.3287 29.3261 26.7365 29.6861 23.9164C29.7461 23.4483 29.6021 22.9803 29.2901 22.6323Z" fill="#1C1B20"/>
</svg>
