<svg width="518" height="518" viewBox="0 0 518 518" fill="none" xmlns="http://www.w3.org/2000/svg">
<g clip-path="url(#clip0_523_3272)">
<path d="M259 518C402.042 518 518 402.042 518 259C518 115.958 402.042 0 259 0C115.958 0 0 115.958 0 259C0 402.042 115.958 518 259 518Z" fill="#F5EB16"/>
<path d="M257.948 64.75C151.224 64.7662 64.75 151.305 64.75 258.029C64.7662 364.737 151.305 451.243 258.029 451.227C364.737 451.194 451.243 364.672 451.227 257.948C451.222 232.571 446.22 207.444 436.504 184.001C426.788 160.557 412.55 139.257 394.602 121.317C376.654 103.377 355.349 89.1476 331.901 79.4417C308.454 69.7359 283.325 64.7436 257.948 64.75ZM179.487 149.411C179.5 148.885 179.72 148.386 180.099 148.023C180.478 147.659 180.985 147.459 181.51 147.468H262.011C278.899 147.152 295.642 150.625 311.01 157.634C313.924 159.058 316.789 160.645 319.557 162.361L267.158 192.356H239.818C239.556 192.362 239.299 192.42 239.059 192.526C238.82 192.632 238.604 192.784 238.424 192.973C238.244 193.163 238.102 193.386 238.008 193.63C237.914 193.874 237.869 194.134 237.875 194.396V209.482L179.487 243.25V149.411ZM157.812 319.023L122.815 283.67L238.07 217.172V260.263C238.082 260.788 238.302 261.287 238.681 261.651C239.06 262.015 239.568 262.214 240.093 262.205H256.556L157.925 319.023H157.812ZM330.403 286.163C313.503 300.278 290.307 307.336 260.813 307.336H239.818C239.29 307.336 238.783 307.546 238.41 307.919C238.037 308.292 237.827 308.799 237.827 309.327V352.839L208.527 369.706L181.171 385.522L179.438 386.493V314.377L270.137 262.189C277.889 261.952 285.315 259.015 291.132 253.885C293.199 251.834 294.936 249.475 296.28 246.892L354.199 213.367C355.17 218.677 355.656 224.051 355.639 229.458C355.704 253.14 347.287 272.031 330.387 286.163H330.403ZM299.323 237.293C299.712 234.816 299.906 232.291 299.922 229.782C300.411 219.923 297.156 210.243 290.808 202.684C287.251 198.736 282.692 195.822 277.616 194.25L358.116 147.776L393.437 183.113L299.323 237.293Z" fill="white"/>
</g>
<defs>
<clipPath id="clip0_523_3272">
<rect width="518" height="518" fill="white"/>
</clipPath>
</defs>
</svg>
