<svg width="518" height="518" viewBox="0 0 518 518" fill="none" xmlns="http://www.w3.org/2000/svg">
<g clip-path="url(#clip0_523_3274)">
<circle cx="259" cy="259" r="259" fill="white"/>
<path d="M160.249 292.937L171.079 211.568L77.1426 146.357L162.971 175.43L183.241 144.33L257.254 98.4043L420.397 188.286L428.853 325.426L356.171 426.428L298.721 435.231L328.43 380.85V328.496L306.828 287.608L284.879 273.072L251.115 307.878V344.711L224.765 369.383L191.291 373.437L176.465 381.834L152.141 374.074L142.006 337.588L160.249 311.932V292.937Z" fill="white"/>
<path d="M310.244 145.662C292.349 141.955 272.774 142.94 272.774 142.94C272.774 142.94 266.346 172.65 226.501 180.468C226.791 180.468 279.145 198.363 310.244 145.662Z" fill="#94A6C3"/>
<path d="M326.461 415.251C348.063 398.34 364.278 375.059 371.749 348.708C372.097 347.723 375.108 345.986 377.135 344.654C380.494 342.627 383.911 340.947 384.548 338.225C385.88 330.465 386.575 322.357 386.575 314.249C386.575 311.238 383.506 308.168 380.494 305.157C378.12 303.13 375.745 300.755 375.745 299.076C372.386 268.324 358.198 239.598 335.553 218.691L333.179 221.066C355.128 241.683 369.317 269.714 372.386 299.423C372.734 302.145 375.398 304.809 378.12 307.531C380.494 309.558 383.216 312.628 383.216 313.96C383.216 321.72 382.521 329.481 381.189 337.241C380.842 338.573 377.83 339.963 375.456 341.295C372.097 342.974 369.027 344.654 368.39 347.376C360.282 376.101 341.692 401.12 317.021 417.336C321.422 407.896 335.264 377.144 342.677 361.565L341.345 311.585L298.431 270.061L274.107 273.42L247.409 316.682C247.409 316.682 259.918 332.55 242.312 351.14C225.112 369.383 211.56 373.437 211.56 373.437L199.051 366.661C202.757 361.912 210.228 354.847 215.961 350.098C225.749 341.99 235.536 341.295 235.536 332.55C235.942 314.249 216.309 319.288 216.309 319.288L209.185 326.064L206.174 351.082L191.348 369.673L189.669 369.325L165.345 363.939C165.345 363.939 180.229 356.179 182.603 347.376C184.977 338.92 177.854 310.89 177.507 309.211C177.854 309.558 184.63 315.292 187.642 324.732C193.028 309.848 200.151 295.659 202.178 294.327C204.205 292.995 231.54 278.458 231.54 278.458L222.448 302.435L229.224 298.728L245.439 258.884C245.439 258.884 261.308 251.123 273.122 251.123C294.377 250.776 325.824 224.772 311.635 178.152C315.689 179.831 385.938 214.985 398.1 283.902C407.193 336.893 377.135 386.526 326.461 415.251Z" fill="#94A6C3"/>
<path d="M246.078 153.074C253.838 143.924 250.827 130.43 250.827 130.43L228.182 163.904C227.835 163.904 236.232 164.252 246.078 153.074Z" fill="#1B314F"/>
<path d="M170.036 335.85L172.758 322.356C172.758 322.356 161.581 341.931 160.596 344.653C159.554 347.723 161.291 353.109 165.635 352.761C170.036 352.414 175.422 345.985 175.422 341.294C175.422 335.213 170.036 335.85 170.036 335.85Z" fill="#1B314F"/>
<path d="M375.629 115.28C375.629 115.28 392.807 115.986 410.632 118.046C370.452 86.4417 332.39 77.2018 301.505 77.2018C258.972 77.2018 230.146 94.74 228.381 95.7405L241.794 74.4357C241.794 74.4357 188.26 69.2566 169.376 125.932C164.552 113.926 160.14 96.3879 160.14 96.3879C160.14 96.3879 132.314 120.812 145.374 161.303C113.43 149.65 67.8375 133.465 66.0726 133.171C63.6606 132.818 62.9547 133.877 62.9547 133.877C62.9547 133.877 62.2488 134.878 64.3078 136.643C68.1316 139.645 140.197 192.907 156.022 203.206C152.61 215.565 152.61 221.392 156.022 227.218C160.846 235.105 161.14 239.224 160.493 245.051C159.787 250.877 153.61 301.373 152.257 307.553C150.904 313.732 136.491 335.685 137.138 342.217C137.844 348.75 146.727 376.529 154.669 379.648C160.493 381.708 174.906 386.181 184.495 386.181C187.907 386.181 191.025 385.474 192.378 384.121C198.202 379.001 199.908 377.941 204.026 377.941C204.379 377.941 204.732 377.941 205.026 377.941C206.732 377.941 208.791 378.294 211.203 378.294C216.674 378.294 223.91 377.235 229.028 372.468C236.558 364.935 249.618 354.635 253.736 349.809C258.913 343.277 261.619 334.39 260.266 325.444C259.207 317.205 263.678 309.966 268.855 302.786C275.385 294.193 287.386 278.774 287.386 278.774C311.094 296.547 325.86 323.679 325.86 353.87C325.86 407.427 279.209 450.684 221.557 450.684C212.615 450.684 204.085 449.683 195.496 447.623C221.91 456.863 244.206 459.982 262.443 459.982C301.211 459.982 321.801 445.917 321.801 445.917C321.801 445.917 314.624 455.215 302.917 465.809C303.27 465.809 303.27 465.809 303.27 465.809C367.452 456.863 398.69 404.013 398.69 404.013C398.69 404.013 396.278 421.198 393.219 432.851C478.579 368.642 464.166 288.308 463.813 285.601C464.519 286.601 473.108 296.9 477.52 302.433C491.286 160.95 375.629 115.28 375.629 115.28ZM244.206 341.217C242.853 342.924 237.029 348.103 232.911 351.869C228.793 355.636 224.322 359.402 220.91 362.875C219.557 364.228 216.792 364.935 212.674 364.935C211.321 364.935 209.909 364.935 208.909 364.935C208.203 364.935 207.556 364.935 206.85 364.935C206.144 364.935 205.791 364.935 205.497 364.935C204.438 364.935 203.438 364.935 202.379 364.935C207.556 358.049 222.616 342.276 227.793 338.863C233.97 334.743 237.088 330.623 233.264 323.443C229.499 316.204 219.557 317.97 219.557 317.97C219.557 317.97 225.381 315.557 230.558 315.557C224.028 313.85 215.792 315.557 212.027 319.323C207.909 323.09 208.615 336.509 206.908 345.042C205.202 353.988 199.378 358.461 190.436 366.7C185.613 371.173 182.2 372.527 179.436 372.527C173.611 371.526 166.729 369.761 161.905 368.054C158.492 363.581 153.316 348.809 151.963 342.629C152.963 339.216 157.081 331.977 159.14 327.857C163.258 319.971 165.67 315.498 166.376 311.378C167.729 305.552 172.2 269.475 173.906 254.409C178.377 260.235 184.554 269.887 183.142 276.066C193.084 262.001 185.907 248.229 182.436 242.756C179.377 237.282 175.259 226.277 178.671 214.624C182.083 202.971 194.437 170.661 194.437 170.661C194.437 170.661 198.555 177.899 204.379 176.487C210.203 175.133 257.207 104.392 257.207 104.392C257.207 104.392 269.914 132.171 256.501 152.475C242.794 172.72 229.381 176.487 229.381 176.487C229.381 176.487 248.265 179.9 265.737 167.188C272.914 184.02 279.797 201.5 280.15 203.913C279.091 206.326 265.384 239.283 264.031 241.343C263.325 242.049 258.56 243.403 255.089 244.109C249.265 245.816 245.853 246.875 244.441 247.876C242.029 249.936 231.028 280.127 225.91 294.899C219.733 296.606 213.556 300.079 209.085 306.905C211.497 305.199 219.027 304.139 224.557 303.492C229.381 303.139 244.088 311.025 247.912 325.797C247.912 326.15 247.912 326.15 247.912 326.504C248.677 331.918 246.971 337.097 244.206 341.217ZM211.968 345.337C215.086 340.864 214.733 333.331 215.086 330.918C215.439 328.505 216.086 324.032 218.851 323.384C221.616 322.678 228.146 323.737 228.146 328.505C228.146 332.977 223.322 333.978 219.91 337.097C217.439 339.451 212.615 344.63 211.968 345.337ZM348.862 279.715C352.274 262.236 352.627 247.111 351.627 234.752C364.981 252.584 373.217 274.242 375.629 296.547C375.982 299.313 378.688 302.021 381.453 304.787C383.865 306.847 386.63 309.613 386.63 311.319C386.63 319.206 385.924 327.092 384.571 335.037C384.218 336.038 381.159 337.803 378.747 339.157C375.335 340.864 372.217 342.57 371.57 345.337C364.04 371.762 347.862 395.126 326.272 411.605C358.157 378.294 373.57 323.326 348.862 279.715ZM327.272 414.666C349.568 397.48 366.746 373.468 374.276 346.337C374.629 345.337 377.688 343.571 379.747 342.217C383.159 340.511 386.63 338.451 387.277 335.685C388.63 327.798 389.336 319.559 389.336 311.319C389.336 308.259 386.218 305.14 383.159 302.08C381.453 300.02 378.688 297.607 378.688 295.9C375.923 270.829 365.981 247.17 350.568 227.571C343.685 186.374 316.271 173.662 315.565 173.309C316.271 174.368 334.096 200.087 321.742 230.279C309.035 260.823 276.444 256.056 273.679 256.351C270.914 256.351 260.325 270.063 246.912 295.488C245.206 294.782 237.97 293.075 229.734 294.487C235.911 277.302 245.206 252.937 246.912 250.877C247.618 250.171 252.736 248.817 256.207 247.817C262.737 246.11 265.796 245.051 266.855 243.697C267.561 242.638 270.973 234.752 274.385 226.512C277.503 226.512 285.386 225.806 286.033 225.453C286.739 224.747 293.269 207.973 293.269 205.914C293.269 204.207 279.856 170.896 274.738 158.184C277.15 155.418 279.562 152.004 281.915 148.237C352.274 155.83 407.22 215.565 407.22 287.955C407.22 343.571 374.629 392.007 327.272 414.666Z" fill="#1B314F"/>
<path d="M233.22 233.169C239.648 225.756 236.289 211.915 224.417 209.54C227.486 202.475 231.83 188.286 231.83 188.286C231.83 188.286 197.371 242.32 194.359 243.362C191.29 244.405 188.279 232.532 188.279 232.532C181.85 257.203 199.108 260.562 201.135 252.802C210.575 250.37 226.791 240.235 233.22 233.169Z" fill="#1B314F"/>
<path d="M203.8 246.316L221.348 216.259C221.348 216.259 231.483 221.355 226.386 229.463C220.016 238.903 203.8 246.316 203.8 246.316Z" fill="#FFD923"/>
<path d="M421.034 385.541C415.938 392.317 410.204 399.382 403.486 406.158C447.037 322.357 405.513 245.679 403.834 242.667C406.903 245.737 409.915 249.096 412.637 252.107C446.053 289.23 450.107 345.001 421.034 385.541Z" fill="#D82122"/>
<path d="M461.574 277.763C446.342 236.875 424.74 202.069 377.135 170.68C331.21 140.275 281.867 142.65 279.145 142.997C278.798 142.997 278.45 142.997 278.45 142.997C280.13 142.302 281.809 141.955 283.489 141.665C293.971 138.306 307.465 135.584 321.017 133.905C356.865 128.751 393.004 140.912 417.675 166.974C418.022 167.321 418.022 167.321 418.37 167.669C446.4 197.378 460.936 234.501 461.574 277.763Z" fill="#D82122"/>
<path d="M366.305 110.508C315.978 101.068 283.546 105.759 260.207 114.562C259.512 111.84 257.137 106.454 255.111 102.053C248.103 110.508 240.632 120.643 235.941 127.071C223.084 135.874 217.698 144.33 217.698 144.33C225.111 118.963 246.771 100.084 273.122 95.3346C280.535 94.0026 288.643 93.3076 297.445 93.3076C320.727 93.6551 344.008 99.3886 366.305 110.508Z" fill="#D82122"/>
<path d="M180.171 175.372C140.674 174.04 153.82 128.056 154.515 125.392C154.515 125.74 157.179 161.53 180.171 175.372Z" fill="#D82122"/>
<path d="M219.032 92.6128C188.627 110.856 194.708 154.407 194.708 154.407C165.636 110.219 216.658 93.6552 219.032 92.6128Z" fill="#D82122"/>
<path d="M169.052 187.533C171.079 189.212 173.106 192.282 170.731 196.683C169.399 199.058 167.372 198.71 164.303 197.378C160.249 195.351 135.925 181.162 113.976 166.626C138.994 175.429 164.303 184.869 168.357 186.896C168.357 186.896 168.704 187.243 169.052 187.533Z" fill="white"/>
</g>
<defs>
<clipPath id="clip0_523_3274">
<rect width="518" height="518" fill="white"/>
</clipPath>
</defs>
</svg>
