<svg width="518" height="518" viewBox="0 0 518 518" fill="none" xmlns="http://www.w3.org/2000/svg">
<g clip-path="url(#clip0_523_3273)">
<path d="M259 518C402.042 518 518 402.042 518 259C518 115.958 402.042 0 259 0C115.958 0 0 115.958 0 259C0 402.042 115.958 518 259 518Z" fill="#F1CB60"/>
<path d="M247.07 402.357V426.039H259V390.604H235.318V402.357H247.07ZM128.302 272.371H116.55V331.488H128.302V307.805H140.233V284.123H128.302V272.371ZM270.93 343.24H282.683V378.674H270.93V343.24ZM259 378.674H270.93V390.604H259V378.674ZM140.233 366.922H175.845V402.357H140.233V366.922ZM116.55 248.689H128.48V260.441H116.55V248.689ZM187.775 225.006H199.705V236.936H187.775V225.006ZM259 213.076H270.93V236.758H259V213.076ZM104.62 177.642H140.233V213.076H104.62V177.642ZM211.458 402.357H223.388V426.039H211.458V402.357ZM223.388 213.076H211.636V236.758H223.388V225.006H235.318V201.324H223.388V213.076ZM235.318 189.572H247.07V201.324H235.318V189.572ZM235.318 225.006H247.07V236.758H235.318V225.006ZM175.845 248.689H211.458V260.441H175.845V248.689Z" fill="white"/>
<path d="M223.387 201.324V189.572H235.14V177.641H223.387V154.137H187.775V165.889H211.457V177.641H199.527V189.394H187.775V201.146H176.023V189.572H163.915V177.82H175.845V189.394H187.775V177.641H176.023V154.137H80.9375V236.936H176.023V225.006H187.775V201.324H199.705V213.076H211.635V201.324H223.387ZM152.162 225.006H92.8677V165.889H152.162V225.006ZM163.915 225.006V201.324H175.845V225.006H163.915ZM211.457 189.394V177.82H223.387V189.394H211.457ZM306.543 319.557V307.805H282.682V284.123H270.93V295.875H259.178V284.123H270.93V248.51H247.248V260.441H235.14V284.123H223.387V295.875H235.318V284.123H247.07V319.557H223.387V307.805H211.457V284.123H199.705V272.371H175.845V260.619H163.915V248.866H140.232V260.619H128.302V272.371H140.232V284.123H152.162V272.371H164.093V284.123H152.162V295.875H164.093V307.627H175.845V295.875H187.775V284.123H199.527V295.875H187.775V307.627H176.023V331.309H199.705V343.24H175.845V331.487H163.915V343.24H140.232V331.487H128.48V343.24H116.55V426.039H199.705V354.992H211.457V390.604H235.318V378.852H247.248V354.992H235.318V343.24H223.387V354.992H211.635V331.309H247.248V343.062H259.178V319.557H282.682V331.487H294.613V319.557H306.543ZM187.775 414.108H128.48V354.992H187.775V414.108ZM199.705 319.557H187.775V307.805H199.705V319.557ZM223.387 366.922H235.318V378.674H223.387V366.922ZM306.543 154.137H318.295V177.641H306.543V154.137ZM282.682 154.137H270.93V189.572H259V201.324H270.93V213.076H282.682V236.758H294.613V213.076H306.543V236.936H318.295V225.006H330.225V201.324H306.543V177.641H282.682V154.137Z" fill="white"/>
<path fill-rule="evenodd" clip-rule="evenodd" d="M389.52 284.124H365.838V295.876H353.908V307.806H342.155V272.372H353.908V260.442H342.155V272.194H330.225V284.124H318.295V260.442H306.543V284.124H294.613V296.054L306.543 295.876H318.295V319.558H353.908V331.489H318.295V343.241H306.543V354.993H294.613V366.923H306.543V378.675H294.613V390.605H306.543V402.357H318.295V414.11H306.543V426.04H401.45V354.993H389.52V414.11H330.225V354.993H365.838V307.806H377.768V319.558H401.45V296.054H389.698V284.124H401.45V248.689H389.52V284.124Z" fill="white"/>
<path d="M294.613 331.488H306.543V343.24H294.613V331.488ZM353.907 272.371H365.838V284.123H353.907V272.371ZM377.768 331.488H401.45V343.418H377.768V331.488ZM377.768 177.82H413.38V213.254H377.768V177.82ZM330.225 225.006H342.155V236.936H330.225V225.006ZM282.682 248.689H294.613V260.441H282.682V248.689ZM365.838 248.689H377.768V260.441H365.838V248.689ZM342.155 366.922H377.768V402.356H342.155V366.922ZM330.225 248.689H342.155V260.441H330.225V248.689ZM247.07 177.642H259V189.572H247.07V177.642Z" fill="white"/>
<path d="M330.225 154.138V165.89H353.907V177.642H341.977V189.394H330.225V177.642H318.295V189.572H330.225V201.146H342.155V212.899H354.085V236.581H437.062V154.138H330.225ZM425.132 225.007H365.837V165.89H425.132V225.007ZM159.463 133.305C167.654 138.825 176.913 139.893 184.214 140.249C190.446 140.605 200.951 140.605 211.991 140.605C232.468 140.605 256.507 140.961 259 140.961C265.588 141.139 285.709 141.139 303.515 141.139C314.555 141.139 324.883 140.961 331.293 140.783C338.594 140.427 347.853 139.181 356.044 133.839C366.371 126.894 371.535 115.498 371.535 100.007C371.535 87.5425 366.371 80.0639 362.098 75.7904C350.524 64.5725 332.718 65.2847 326.842 65.4628H326.129C322.568 65.4628 309.748 67.4215 294.612 75.9685C281.258 83.4471 269.684 94.1308 260.246 107.486L259.178 110.156L258.288 108.732C248.316 93.7747 235.317 83.6252 220.894 75.4343C205.937 66.8873 193.117 65.1067 189.555 65.1067H188.843C182.967 64.9286 165.161 64.2163 153.587 75.4343C145.752 82.9129 144.149 92.7063 144.149 99.6508C143.971 114.964 149.135 126.36 159.463 133.305ZM303.337 93.4186C315.98 86.118 325.595 85.0497 326.307 85.0497H327.554C337.703 84.6935 344.826 86.2961 348.565 89.8573C350.88 92.1722 352.126 95.3773 352.126 100.007C352.126 116.923 344.114 120.662 330.403 121.374C318.829 121.909 291.941 121.731 274.491 121.552C281.671 109.964 291.573 100.306 303.337 93.4186ZM166.941 89.3232C170.325 86.118 176.379 84.5155 185.104 84.5155H189.377C190.09 84.5155 199.705 85.5838 212.347 92.8844C223.743 99.4727 233.537 108.91 241.372 121.018C223.743 121.196 196.856 121.374 185.282 120.84C171.571 120.128 163.558 116.389 163.558 99.4727C163.558 94.8431 164.627 91.638 166.941 89.3232ZM282.682 402.357H270.93V426.039H282.86V402.357H294.612V390.605H282.682V402.357Z" fill="white"/>
</g>
<defs>
<clipPath id="clip0_523_3273">
<rect width="518" height="518" fill="white"/>
</clipPath>
</defs>
</svg>
