<svg width="519" height="518" viewBox="0 0 519 518" fill="none" xmlns="http://www.w3.org/2000/svg">
<path d="M259.5 510.23C398.519 510.23 511.215 397.751 511.215 259C511.215 120.25 398.519 7.77002 259.5 7.77002C120.482 7.77002 7.78516 120.25 7.78516 259C7.78516 397.751 120.482 510.23 259.5 510.23Z" fill="url(#paint0_linear_523_3270)"/>
<path d="M369.658 359.103L284.542 153.716C279.741 143.097 272.605 137.917 263.198 137.917H255.672C246.266 137.917 239.129 143.097 234.329 153.716L197.285 243.201H169.259C160.89 243.266 154.078 250 154.013 258.417V258.611C154.078 266.964 160.89 273.763 169.259 273.828H184.31L148.953 359.103C148.304 360.981 147.915 362.924 147.915 364.931C147.915 369.722 149.407 373.478 152.067 376.392C154.727 379.305 158.555 380.73 163.355 380.73C166.534 380.665 169.583 379.694 172.113 377.816C174.838 375.938 176.72 373.219 178.212 370.111L217.137 273.763H244.125C252.494 273.698 259.305 266.964 259.37 258.547V258.158C259.305 249.805 252.494 243.007 244.125 242.942H229.722L259.435 169.062L340.399 370.046C341.891 373.154 343.773 375.874 346.497 377.752C349.028 379.629 352.142 380.601 355.256 380.665C360.056 380.665 363.819 379.241 366.544 376.327C369.269 373.413 370.696 369.658 370.696 364.866C370.761 362.924 370.436 360.916 369.658 359.103Z" fill="white"/>
<defs>
<linearGradient id="paint0_linear_523_3270" x1="447.175" y1="101.39" x2="73.2223" y2="416.64" gradientUnits="userSpaceOnUse">
<stop stop-color="#B6509E"/>
<stop offset="1" stop-color="#2EBAC6"/>
</linearGradient>
</defs>
</svg>
