<svg width="518" height="518" viewBox="0 0 518 518" fill="none" xmlns="http://www.w3.org/2000/svg">
<g clip-path="url(#clip0_523_3269)">
<path d="M259 518C402.042 518 518 402.042 518 259C518 115.958 402.042 0 259 0C115.958 0 0 115.958 0 259C0 402.042 115.958 518 259 518Z" fill="#3EFFFF"/>
<path d="M105.219 169.758L259 80.9375L412.781 169.758V348.242L259 437.062L105.219 348.242V169.758ZM119.982 331.148L181.656 295.454L212.947 240.66L119.982 186.868V331.148ZM127.379 343.952L252.056 415.97V347.06L186.69 309.618L127.379 343.936V343.952ZM398.018 187.37L305.879 240.676L337.153 295.422L398.018 330.646V187.37ZM391.058 174.291L266.819 102.532V172.284L298.546 227.823L391.058 174.291ZM293.172 248.025L274.2 259L311.836 280.772L293.172 248.025ZM285.839 235.172L266.819 201.826V246.18L285.839 235.172ZM207.103 280.74L244.658 259L225.735 248.057L207.119 280.74H207.103ZM201.502 301.071L252.056 330.015V271.82L201.502 301.071ZM127.363 174.048L220.279 227.79L252.056 172.186V102.03L127.363 174.048ZM391.058 343.709L332.2 309.651L266.819 347.546V415.468L391.058 343.709ZM317.437 301.104L266.819 271.82V330.452L317.437 301.088V301.104ZM233.068 235.204L252.056 246.18V201.907L233.068 235.204Z" fill="white"/>
</g>
<defs>
<clipPath id="clip0_523_3269">
<rect width="518" height="518" fill="white"/>
</clipPath>
</defs>
</svg>
