<svg width="518" height="518" viewBox="0 0 518 518" fill="none" xmlns="http://www.w3.org/2000/svg">
<g clip-path="url(#clip0_523_3268)">
<path d="M259 518C402.042 518 518 402.042 518 259C518 115.958 402.042 0 259 0C115.958 0 0 115.958 0 259C0 402.042 115.958 518 259 518Z" fill="#767DFF"/>
<path fill-rule="evenodd" clip-rule="evenodd" d="M222.902 105.219H295.098C297.6 105.218 300.057 105.883 302.216 107.146C304.376 108.409 306.16 110.225 307.385 112.406L419.175 311.82C420.352 313.922 420.97 316.291 420.97 318.699C420.97 321.108 420.352 323.477 419.175 325.579L383.401 389.39C382.179 391.572 380.399 393.39 378.243 394.656C376.086 395.922 373.632 396.591 371.131 396.594H146.869C144.366 396.593 141.908 395.926 139.748 394.66C137.589 393.393 135.806 391.575 134.583 389.39L98.8248 325.579C97.648 323.477 97.03 321.108 97.03 318.699C97.03 316.291 97.648 313.922 98.8248 311.82L210.616 112.406C211.841 110.225 213.625 108.409 215.784 107.146C217.943 105.883 220.4 105.218 222.902 105.219ZM259 184.554L183.68 318.699H334.321L259 184.554Z" fill="white"/>
</g>
<defs>
<clipPath id="clip0_523_3268">
<rect width="518" height="518" fill="white"/>
</clipPath>
</defs>
</svg>
