<svg width="518" height="518" viewBox="0 0 518 518" fill="none" xmlns="http://www.w3.org/2000/svg">
<g clip-path="url(#clip0_523_3267)">
<path d="M259 518C402.042 518 518 402.042 518 259C518 115.958 402.042 0 259 0C115.958 0 0 115.958 0 259C0 402.042 115.958 518 259 518Z" fill="#FF0000"/>
<path d="M71.3221 351.447L157.715 194.153C161.292 187.581 167.233 185.8 173.255 189.361H173.886C175.236 190.173 176.739 190.696 178.301 190.896C179.863 191.097 181.45 190.971 182.961 190.526C184.472 190.082 185.874 189.329 187.079 188.315C188.284 187.301 189.265 186.048 189.96 184.635L250.647 91.6536C252.703 87.7363 255.325 84.1264 258.417 80.9375C261.137 84.2721 263.16 88.1086 264.358 92.2364L290.582 157.197C296.523 172.122 310.816 182.838 325.741 182.838H330.484C338.141 183.129 345.393 186.318 350.767 191.773L369.803 212.008C375.453 217.997 380.649 224.359 385.343 231.093L446.726 319.282C449.025 322.779 451.21 326.356 453.25 329.998V330.581C449.944 328.01 446.945 325.066 444.315 321.807L361.483 235.868C356.367 230.707 351.953 224.894 348.355 218.58C341.751 204.286 333.43 198.297 320.351 198.928H303.678C293.577 198.928 291.165 197.148 288.137 186.998L264.358 112.535C260.198 97.6106 259.583 97.6106 255.423 112.535L239.348 163.04C235.771 173.125 234.557 189.831 236.354 189.831C236.969 189.831 241.129 182.061 247.685 168.382C248.931 165.598 250.518 162.992 252.428 160.612C253.949 166.31 254.759 172.17 254.856 178.062C253.108 182.174 251.117 186.156 248.867 189.993L248.284 191.773C241.129 204.869 241.129 205.484 248.867 217.997L256.005 229.895C258.725 233.553 260.926 237.568 262.577 241.809C259.2 244.665 255.613 247.262 251.845 249.579L214.905 273.407C208.312 277.021 200.97 279.054 193.457 279.348C180.329 278.765 169.014 285.337 158.88 298.999L144.587 319.282C139.439 325.628 133.644 331.423 127.298 336.57L114.203 347.287C107.464 351.961 100.28 355.957 92.7544 359.217L85.6157 360.997C80.4357 362.875 75.0129 364.073 69.5253 364.542C67.081 364.542 64.75 364.542 64.75 363.96C66.6116 359.621 68.7969 355.445 71.3221 351.447Z" fill="white"/>
</g>
<defs>
<clipPath id="clip0_523_3267">
<rect width="518" height="518" fill="white"/>
</clipPath>
</defs>
</svg>
