<svg width="518" height="518" viewBox="0 0 518 518" fill="none" xmlns="http://www.w3.org/2000/svg">
<g clip-path="url(#clip0_523_3265)">
<path d="M259 518C402.042 518 518 402.042 518 259C518 115.958 402.042 0 259 0C115.958 0 0 115.958 0 259C0 402.042 115.958 518 259 518Z" fill="#FEC807"/>
<path fill-rule="evenodd" clip-rule="evenodd" d="M404.429 285.402H324.657L310.412 242.667H404.299C407.51 242.667 410.59 241.392 412.861 239.121C415.132 236.85 416.407 233.77 416.407 230.559C416.407 227.348 415.132 224.268 412.861 221.997C410.59 219.727 407.51 218.451 404.299 218.451H302.706L261.962 94.2442C261.446 90.1406 259.483 86.3557 256.427 83.5691C253.37 80.7825 249.421 79.1767 245.287 79.0402C241.153 78.9037 237.106 80.2454 233.873 82.8244C230.639 85.4033 228.431 89.0505 227.645 93.1111L130.196 389.391C129.937 391.01 129.937 392.628 130.196 394.247C130.264 398.195 131.755 401.985 134.395 404.921C137.035 407.857 140.646 409.74 144.565 410.225C148.483 410.71 152.445 409.763 155.721 407.559C158.996 405.355 161.366 402.042 162.393 398.229L244.156 148.942L267.515 218.451H247.28C244.069 218.451 240.989 219.727 238.719 221.997C236.448 224.268 235.172 227.348 235.172 230.559C235.172 233.77 236.448 236.85 238.719 239.121C240.989 241.392 244.069 242.667 247.28 242.667H275.77L290.015 285.402H247.28C245.69 285.402 244.116 285.716 242.647 286.324C241.178 286.933 239.843 287.824 238.719 288.949C237.594 290.073 236.702 291.408 236.094 292.877C235.485 294.346 235.172 295.921 235.172 297.511C235.172 299.101 235.485 300.675 236.094 302.144C236.702 303.613 237.594 304.948 238.719 306.072C239.843 307.197 241.178 308.089 242.647 308.697C244.116 309.306 245.69 309.619 247.28 309.619H298.433L321.5 377.995H199.139C194.605 377.995 190.257 379.796 187.051 383.002C183.846 386.207 182.045 390.555 182.045 395.089C182.045 399.622 183.846 403.97 187.051 407.176C190.257 410.382 194.605 412.183 199.139 412.183H343.871C352.839 412.183 360.107 404.915 360.107 395.947C360.116 393.486 359.58 391.054 358.537 388.824L332.475 309.619H403.7C405.29 309.619 406.865 309.306 408.334 308.697C409.803 308.089 411.138 307.197 412.262 306.072C413.386 304.948 414.278 303.613 414.887 302.144C415.495 300.675 415.808 299.101 415.808 297.511C415.808 295.921 415.495 294.346 414.887 292.877C414.278 291.408 413.386 290.073 412.262 288.949C411.138 287.824 409.803 286.933 408.334 286.324C406.865 285.716 405.29 285.402 403.7 285.402H404.412H404.429Z" fill="white"/>
</g>
<defs>
<clipPath id="clip0_523_3265">
<rect width="518" height="518" fill="white"/>
</clipPath>
</defs>
</svg>
