<svg width="519" height="518" viewBox="0 0 519 518" fill="none" xmlns="http://www.w3.org/2000/svg">
<g clip-path="url(#clip0_523_3264)">
<path d="M259.5 518C402.818 518 519 402.042 519 259C519 115.958 402.818 0 259.5 0C116.182 0 0 115.958 0 259C0 402.042 116.182 518 259.5 518Z" fill="#1B75BC"/>
<path fill-rule="evenodd" clip-rule="evenodd" d="M187.927 139.245L259.5 213.805L329.322 139.245L373.031 183.89L301.734 259L373.031 333.511L329.322 378.723L259.5 304.195L187.927 378.723L145.969 334.758L216.682 258.579L145.969 183.89L187.927 139.261V139.245ZM193.684 133.158L259.208 64.75L324.732 133.158L290.251 169.823L259.208 135.603L228.165 169.823L193.684 133.158ZM193.684 384.842L228.165 348.177L259.208 382.397L290.251 348.177L324.732 384.842L259.208 453.25L193.684 384.842Z" fill="white"/>
</g>
<defs>
<clipPath id="clip0_523_3264">
<rect width="519" height="518" fill="white"/>
</clipPath>
</defs>
</svg>
