<svg width="519" height="518" viewBox="0 0 519 518" fill="none" xmlns="http://www.w3.org/2000/svg">
<g clip-path="url(#clip0_523_3263)">
<path d="M259.5 518C402.818 518 519 402.042 519 259C519 115.958 402.818 0 259.5 0C116.182 0 0 115.958 0 259C0 402.042 116.182 518 259.5 518Z" fill="#DE3F6B"/>
<path d="M158.165 178.062H172.827C195.744 180.232 216.942 191.352 232.626 207.362C265.209 240.368 283.115 286.94 324.586 311.496C354.558 329.254 396.484 314.734 411.21 284.722C418.703 284.592 426.245 284.592 433.738 284.625C423.423 315.106 393.37 337.008 360.51 339.938H348.411C328.186 338.319 308.513 330.808 293.219 317.825C270.999 299.647 256.727 274.702 239.454 252.493C224.597 232.857 209.449 210.777 184.861 201.858C154.484 190.867 117.391 208.058 106.314 237.26C96.5827 261.315 104.497 291.132 126.263 306.543C142.579 318.716 165.301 323.264 184.894 316.174C206.659 308.598 222.813 291.375 235.204 273.115C240.086 279.866 244.838 286.713 249.542 293.609C230.274 317.032 203.545 337.153 171.757 339.938H158.733C118.673 337.25 83.8509 304.39 81.0938 265.572V252.865C83.6888 214.128 118.072 180.879 158.165 178.062ZM347.6 178.062H359.764C400.198 180.604 434.581 214.128 437.906 252.946V272.857C404.544 273.148 371.15 272.954 337.788 272.986C337.82 267.159 337.82 261.38 337.788 255.552C364.16 255.487 390.499 255.665 416.822 255.487C414.957 245.192 412.54 234.654 406.215 225.929C390.807 203.202 358.224 193.91 332.176 203.752C311.416 211.198 295.781 227.483 283.731 244.868C279.092 238.442 274.486 231.918 270.026 225.346C289.051 201.583 315.601 181.025 347.6 178.062Z" fill="white"/>
</g>
<defs>
<clipPath id="clip0_523_3263">
<rect width="519" height="518" fill="white"/>
</clipPath>
</defs>
</svg>
