<svg width="519" height="518" viewBox="0 0 519 518" fill="none" xmlns="http://www.w3.org/2000/svg">
<g clip-path="url(#clip0_523_3262)">
<path d="M259.5 518C402.818 518 519 402.042 519 259C519 115.958 402.818 0 259.5 0C116.182 0 0 115.958 0 259C0 402.042 116.182 518 259.5 518Z" fill="#134451"/>
<path d="M227.046 264.212C218.985 264.212 212.887 265.572 208.67 268.145C204.616 270.654 202.572 274.459 202.572 279.444C202.572 283.167 203.837 286.178 206.221 288.315C208.67 290.468 212.109 291.536 216.39 291.536C223.04 291.536 228.587 289.464 232.998 285.385C237.426 281.241 240.427 275.446 241.919 268.016L242.6 264.212H227.03H227.046ZM312.422 229.101C309.973 226.964 306.534 225.896 302.269 225.896C295.603 225.896 290.056 227.968 285.645 232.047C281.233 236.191 278.216 241.986 276.74 249.416L276.043 253.204L291.613 253.14C299.674 253.14 305.772 251.78 309.973 249.206C314.027 246.697 316.071 242.909 316.071 237.907C316.071 234.184 314.887 231.254 312.422 229.101Z" fill="white"/>
<path d="M437.339 238.117C432.019 190.137 347.973 160.449 249.688 171.829C151.402 183.193 76.0496 231.318 81.3694 279.314C86.7054 327.294 170.686 356.966 269.02 345.602C367.387 334.222 442.674 286.097 437.339 238.117ZM334.512 262.139C324.553 269.229 310.038 272.726 290.981 272.807L272.475 272.872L271.907 275.51C271.739 276.089 271.646 276.688 271.632 277.291C271.55 277.663 271.55 278.019 271.55 278.311C271.55 282.39 273.448 285.385 277.162 287.376C280.892 289.464 286.407 290.451 293.64 290.451C300.501 290.451 307.102 289.674 313.33 288.25C319.493 286.809 325.462 284.672 331.138 281.807L326.435 306.979C319.363 308.695 312.568 310.054 305.837 310.912C299.358 311.839 292.822 312.321 286.277 312.353C277.308 312.353 269.88 311.268 263.911 308.986C257.748 306.623 250.872 301.475 247.449 294.11C241.103 300.15 233.748 305.036 225.716 308.549C218.268 311.724 210.25 313.354 202.15 313.34C191.933 313.421 183.856 310.912 178.114 305.975C172.292 301.054 169.421 294.174 169.356 285.53C169.275 272.224 174.254 262.139 184.148 255.13C194.09 248.056 208.605 244.56 227.679 244.479L246.168 244.414L246.736 241.759C246.909 241.181 247.007 240.582 247.028 239.979C247.093 239.623 247.093 239.266 247.093 238.975C247.093 234.896 245.195 231.901 241.481 229.894C237.767 227.822 232.236 226.818 225.003 226.818C218.142 226.818 211.541 227.611 205.313 229.036C199.15 230.46 193.181 232.597 187.505 235.479L192.208 210.307C199.28 208.591 206.075 207.231 212.806 206.373C219.285 205.446 225.821 204.965 232.366 204.933C241.351 204.933 248.779 206.017 254.748 208.3C260.911 210.663 267.771 215.811 271.21 223.176C277.555 217.13 284.91 212.238 292.943 208.721C300.387 205.548 308.399 203.918 316.493 203.929C326.727 203.864 334.787 206.357 340.529 211.294C346.368 216.232 349.222 223.111 349.287 231.755C349.368 244.981 344.47 255.13 334.512 262.139Z" fill="white"/>
<path d="M267.982 351.317C253.759 352.968 239.664 353.746 225.992 353.746C193.457 353.746 163.047 349.181 137.73 340.229C127.261 336.634 117.246 331.838 107.887 325.935C104.432 344.033 106.752 359.978 115.656 371.843C141.233 405.95 212.806 395.088 283.617 349.181C278.427 349.958 273.237 350.67 267.982 351.317ZM251.374 166.828C299.382 161.244 345.654 165.177 381.611 177.901C392.092 181.498 402.117 186.3 411.486 192.21C414.908 174.113 412.605 158.168 403.701 146.303C378.108 112.196 306.551 123.057 235.739 168.965C240.929 168.107 246.184 167.395 251.374 166.828Z" fill="white"/>
<path d="M199.15 392.789C189.786 395.027 180.226 396.345 170.605 396.723C177.839 415.824 189.127 429.195 204.048 434.197C240.086 446.289 286.699 406.678 319.72 341.086C311.935 343.239 303.874 345.165 295.749 346.817C263.49 369.56 229.852 385.65 199.15 392.789ZM322.38 124.837C331.748 122.643 341.309 121.375 350.925 121.05C343.756 101.948 332.549 88.5127 317.612 83.446C281.655 71.2082 234.831 110.609 201.599 175.974C209.384 173.837 217.445 171.975 225.635 170.405C257.894 147.743 291.613 131.847 322.38 124.837Z" fill="white"/>
</g>
<defs>
<clipPath id="clip0_523_3262">
<rect width="519" height="518" fill="white"/>
</clipPath>
</defs>
</svg>
