<svg width="518" height="518" viewBox="0 0 518 518" fill="none" xmlns="http://www.w3.org/2000/svg">
<g clip-path="url(#clip0_523_3261)">
<path d="M259 518C402.042 518 518 402.042 518 259C518 115.958 402.042 0 259 0C115.958 0 0 115.958 0 259C0 402.042 115.958 518 259 518Z" fill="#15073A"/>
<path d="M277.518 103.988C276.618 103.339 275.988 102.382 275.746 101.299C275.505 100.216 275.669 99.0823 276.207 98.1122C276.961 97.6289 277.837 97.3721 278.732 97.3721C279.628 97.3721 280.504 97.6289 281.258 98.1122C292.666 102.848 302.992 109.853 311.609 118.703C316.514 123.251 320.626 128.561 323.75 134.405C327.052 140.362 329.755 146.594 331.844 153.053C333.835 159.738 334.871 166.682 334.887 173.643C333.867 180.523 332.863 213.869 313.633 229.571C311.185 231.043 308.279 231.556 305.475 231.012C302.671 230.468 300.168 228.905 298.449 226.625C297.075 225.013 296.239 223.012 296.059 220.902C295.879 218.791 296.364 216.677 297.445 214.856C305.621 202.199 310.137 187.527 310.494 172.463C310.852 157.399 307.036 142.53 299.469 129.5C292.994 120.338 285.644 111.807 277.518 103.988ZM247.669 404.784C249.692 406.743 249.692 408.702 248.688 409.689C247.685 410.677 245.645 411.648 244.642 410.66C233.234 405.925 222.907 398.919 214.29 390.07C209.4 385.546 205.297 380.239 202.149 374.368C198.853 368.435 196.143 362.195 194.056 355.736C192.055 349.049 191.03 342.109 191.012 335.13C192.032 328.266 193.036 294.904 212.267 279.202C214.713 277.735 217.615 277.224 220.415 277.768C223.215 278.312 225.715 279.872 227.434 282.148C228.907 283.757 229.724 285.859 229.724 288.04C229.724 290.221 228.907 292.324 227.434 293.932C219.261 306.588 214.747 321.257 214.39 336.317C214.033 351.378 217.847 366.244 225.411 379.273C231.967 388.451 239.429 396.998 247.669 404.784Z" fill="white"/>
<path d="M334.984 323.848C333.518 305.014 326.071 287.142 313.73 272.841C301.236 260.284 286.909 249.695 271.238 241.437C257.568 233.881 244.689 224.977 232.792 214.857C223.008 205.661 216.299 193.672 213.578 180.523C211.162 166.948 212.888 152.959 218.531 140.378C225.293 126.382 234.987 114.004 246.956 104.086C247.629 103.486 248.092 102.685 248.276 101.802C248.459 100.919 248.354 100 247.976 99.1812C247.687 98.665 247.286 98.2209 246.801 97.8821C246.316 97.5434 245.76 97.3189 245.176 97.2255C244.592 97.132 243.995 97.172 243.428 97.3426C242.862 97.5131 242.341 97.8096 241.906 98.21C225.783 105.243 212.066 116.833 202.441 131.556C191.676 147.024 186.633 165.757 188.18 184.538C188.987 194.027 191.384 203.313 195.27 212.008C199.475 220.614 204.929 228.551 211.457 235.561C224.321 247.852 238.989 258.104 254.953 265.961C268.68 273.084 281.581 281.647 293.398 291.473C303.793 300.594 310.609 313.112 312.629 326.794C315.478 341.022 313.697 355.769 307.562 368.978C300.676 382.885 290.624 394.982 278.214 404.299C277.804 404.535 277.448 404.855 277.17 405.238C276.893 405.622 276.699 406.059 276.603 406.523C276.507 406.986 276.51 407.465 276.612 407.927C276.713 408.389 276.912 408.824 277.195 409.204C277.761 410.24 278.813 410.985 279.995 411.163C281.177 411.341 282.407 411.001 283.281 410.192C298.322 401.507 311.41 389.814 321.726 375.842C331.763 360.334 336.392 342.107 334.984 323.848Z" fill="white"/>
</g>
<defs>
<clipPath id="clip0_523_3261">
<rect width="518" height="518" fill="white"/>
</clipPath>
</defs>
</svg>
