<svg width="518" height="518" viewBox="0 0 518 518" fill="none" xmlns="http://www.w3.org/2000/svg">
<g clip-path="url(#clip0_523_3260)">
<path d="M259 518C402.042 518 518 402.042 518 259C518 115.958 402.042 0 259 0C115.958 0 0 115.958 0 259C0 402.042 115.958 518 259 518Z" fill="#F49E00"/>
<path d="M319.784 280.594C356.141 223.63 384.453 129.5 384.453 129.5L323.831 143.243L301.638 221.753C299.55 162.895 259.194 141.349 259.194 141.349C226.868 125.599 198.054 132.527 177.286 143.356C151.58 156.727 132.883 180.037 123.932 206.876C111.208 245.063 112.762 287.911 114.446 307.303C115.126 316.401 117.133 325.353 120.435 333.9C142.742 391.737 204.529 388.451 204.529 388.451C261.137 386.444 295.535 319.784 295.535 319.784L311.755 368.8C326.292 393.389 358.489 384.178 365.109 382.802C366.275 382.543 367.311 382.413 368.492 382.154L404.688 376.635V360.884C325.887 363.021 319.784 280.61 319.784 280.61V280.594ZM243.072 339.84C238.197 344.836 232.052 348.407 225.298 350.168C210.616 353.826 199.333 347.659 191.547 340.099C182.848 331.315 176.892 320.19 174.404 308.08C160.127 227.305 179.859 191.903 192.971 175.634C196.543 171.074 201.147 167.428 206.404 164.996C211.662 162.564 217.422 161.417 223.21 161.648C274.103 164.303 285.531 270.785 285.531 270.785C271.125 308.582 252.558 330.516 243.072 339.84Z" fill="white"/>
</g>
<defs>
<clipPath id="clip0_523_3260">
<rect width="518" height="518" fill="white"/>
</clipPath>
</defs>
</svg>
