<svg width="518" height="518" viewBox="0 0 518 518" fill="none" xmlns="http://www.w3.org/2000/svg">
<g clip-path="url(#clip0_523_3259)">
<path d="M259 518C402.042 518 518 402.042 518 259C518 115.958 402.042 0 259 0C115.958 0 0 115.958 0 259C0 402.042 115.958 518 259 518Z" fill="#00BFEC"/>
<path d="M258.531 374.741C194.477 374.741 142.37 322.957 142.37 259.324C142.37 195.675 194.493 143.907 258.531 143.907C322.585 143.907 374.693 195.675 374.693 259.324C374.693 322.957 322.585 374.741 258.531 374.741ZM258.531 166.505C207.039 166.505 165.129 208.139 165.129 259.324C165.129 310.493 207.039 352.127 258.531 352.127C310.04 352.127 351.933 310.493 351.933 259.324C351.933 208.139 310.04 166.505 258.531 166.505ZM339.873 127.412C315.368 112.491 287.222 104.615 258.531 104.653C232.121 104.642 206.138 111.313 183 124.045L171.928 104.296C198.453 89.6812 228.246 82.0185 258.531 82.0225C291.554 82.0225 323.799 91.0551 351.787 108.149L339.873 127.412ZM373.786 394.668L359.072 377.396C376.326 362.936 390.203 344.872 399.726 324.473C409.248 304.074 414.186 281.836 414.19 259.324H436.95C436.95 311.545 413.931 360.868 373.786 394.652V394.668ZM258.531 436.593C217.14 436.593 176.8 422.187 144.96 396.044L159.464 378.626C187.415 401.494 222.417 413.991 258.531 413.996C283.784 413.996 307.871 408.168 330.112 396.707L340.586 416.78C315.195 429.808 287.069 436.605 258.531 436.61V436.593Z" fill="white"/>
<path opacity="0.5" d="M410.353 217.317C404.403 195.971 393.936 176.153 379.662 159.204L394.231 147.128C410.233 166.13 421.964 188.35 428.629 212.282L410.37 217.317H410.353ZM111.047 355.736C92.0755 327.164 81.9773 293.62 82.0224 259.323C82.0224 211.376 101.124 166.601 135.813 133.239L148.99 146.788C133.762 161.3 121.65 178.763 113.396 198.111C105.141 217.46 100.916 238.288 100.978 259.323C100.978 290.063 109.946 319.816 126.878 345.376L111.047 355.736Z" fill="white"/>
</g>
<defs>
<clipPath id="clip0_523_3259">
<rect width="518" height="518" fill="white"/>
</clipPath>
</defs>
</svg>
