<svg width="518" height="518" viewBox="0 0 518 518" fill="none" xmlns="http://www.w3.org/2000/svg">
<g clip-path="url(#clip0_523_3258)">
<path d="M259 518C402.042 518 518 402.042 518 259C518 115.958 402.042 0 259 0C115.958 0 0 115.958 0 259C0 402.042 115.958 518 259 518Z" fill="#005B9A"/>
<path d="M242.276 77.7002L173.988 195.502C172.595 194.578 170.736 194.578 168.878 194.578H167.949C166.091 194.578 163.768 195.04 161.91 195.964C160.052 196.888 158.194 198.274 156.8 199.66L91.2991 163.626L242.276 77.7002ZM276.188 77.7002L426.701 163.626L360.735 199.66C359.342 197.812 357.948 196.426 355.625 195.502C353.767 194.578 351.445 194.116 349.586 194.116H348.657C347.728 194.116 346.335 194.116 345.405 194.578L276.188 77.7002ZM249.709 82.3199V250.476L183.744 214.443C184.673 209.823 183.279 205.203 180.956 201.508L249.709 82.3199ZM268.291 81.8579L337.973 199.198C336.115 201.046 334.721 203.355 334.256 206.127C333.792 208.899 333.792 211.671 334.256 213.981L268.291 250.014V81.8579ZM268.291 260.177L338.902 221.372C340.76 222.758 342.618 223.682 344.941 224.606V295.287C342.618 296.211 340.76 297.135 338.902 298.983L268.291 260.177ZM249.709 260.177L178.169 299.445C176.775 298.059 174.917 296.673 172.595 296.211V225.53C174.917 225.068 177.24 223.682 179.098 222.296L249.709 260.177ZM163.768 295.749V230.15L98.7318 342.408L152.619 313.304C152.155 309.608 153.084 305.912 155.406 302.679C157.265 299.445 160.516 297.135 163.768 295.749ZM364.916 313.304L419.268 342.87L354.232 226.916V295.749C357.948 297.135 360.735 299.445 362.594 302.679C364.452 305.912 365.381 309.608 364.916 313.304ZM430.882 171.48V345.18L361.2 220.91C363.058 219.062 363.987 217.214 364.916 214.443C365.381 212.133 365.845 209.823 364.916 207.051L430.882 171.48ZM87.1182 171.48L152.619 207.513C152.155 209.823 152.155 212.133 152.619 214.443C153.548 217.676 155.406 220.448 158.194 222.296L87.1182 345.18V171.48ZM249.709 270.341V431.568L180.492 321.619C182.35 319.771 183.279 317 183.744 314.69C184.208 311.918 183.744 309.608 182.815 307.298L249.709 270.341ZM268.291 270.341L334.256 306.374C333.327 309.146 333.327 311.456 333.792 314.228C334.256 317 335.65 319.309 337.508 321.157L268.291 436.187V270.341ZM424.378 355.805L276.188 440.345L345.405 325.777C348.193 326.701 350.515 326.701 353.303 326.239C356.09 325.777 358.413 324.391 360.271 322.543C360.735 322.081 360.735 322.081 361.2 321.619L424.378 355.805ZM93.6218 355.805L156.335 321.619C158.658 323.929 160.981 325.315 164.233 326.239C167.02 327.163 170.272 327.163 173.059 326.239L245.993 442.655L93.6218 355.805Z" fill="white"/>
</g>
<defs>
<clipPath id="clip0_523_3258">
<rect width="518" height="518" fill="white"/>
</clipPath>
</defs>
</svg>
