<svg width="518" height="518" viewBox="0 0 518 518" fill="none" xmlns="http://www.w3.org/2000/svg">
<g clip-path="url(#clip0_523_3257)">
<path d="M259 518C402.042 518 518 402.042 518 259C518 115.958 402.042 0 259 0C115.958 0 0 115.958 0 259C0 402.042 115.958 518 259 518Z" fill="black"/>
<path d="M165.922 370.953L203.202 306.429L240.449 242.133L277.486 177.609L283.637 167.379L286.341 177.609L297.704 220.085L284.981 242.133L247.733 306.429L210.696 370.953H255.212L292.476 306.429L311.787 273.035L320.885 306.429L338.141 370.953H378.124L360.868 306.429L343.596 242.133L339.063 225.54L366.776 177.609H326.34L324.964 172.834L310.881 120.127L309.068 113.312H270.218L269.311 114.672L232.954 177.609L195.691 242.133L158.67 306.429L121.406 370.953H165.922Z" fill="white"/>
</g>
<defs>
<clipPath id="clip0_523_3257">
<rect width="518" height="518" fill="white"/>
</clipPath>
</defs>
</svg>
