<svg width="519" height="518" viewBox="0 0 519 518" fill="none" xmlns="http://www.w3.org/2000/svg">
<g clip-path="url(#clip0_523_3256)">
<path d="M259.5 518C402.818 518 519 402.042 519 259C519 115.958 402.818 0 259.5 0C116.182 0 0 115.958 0 259C0 402.042 116.182 518 259.5 518Z" fill="#3C5BE0"/>
<path d="M437.906 259.243V259.372C437.853 260.664 437.504 261.927 436.884 263.063C434.614 267.191 380.265 364.219 259.516 364.219C138.768 364.219 84.3862 267.191 82.1318 263.063C81.507 261.928 81.1519 260.666 81.0938 259.372V258.644L81.11 258.272C81.2044 257.205 81.5016 256.167 81.9858 255.212L82.0182 255.147L82.1155 254.953C84.3862 250.809 138.751 153.781 259.5 153.781C380.249 153.781 434.614 250.825 436.868 254.953L436.966 255.147L437.014 255.228C437.491 256.179 437.782 257.212 437.874 258.272V259.016L437.906 259.243ZM419.903 259C410.772 244.852 376.453 197.601 314.238 178.597C334.269 192.603 348.359 213.55 353.763 237.357C358.029 238.329 361.094 242.149 361.175 246.584C361.256 251.02 358.337 254.937 354.088 256.07C349.838 257.203 345.411 255.261 343.302 251.376C342.282 249.484 341.918 247.308 342.267 245.188C342.617 243.068 343.659 241.123 345.232 239.656C337.22 203.671 307.572 175.877 271.048 171.037C270.772 171.004 270.501 170.944 270.237 170.859C263.079 170.476 255.905 170.476 248.747 170.859C248.483 170.944 248.211 171.004 247.936 171.037C233.703 172.949 220.164 178.343 208.524 186.739C207.957 187.141 207.303 187.404 206.615 187.506C205.927 187.607 205.224 187.545 204.565 187.324C203.905 187.103 203.308 186.73 202.82 186.234C202.333 185.738 201.97 185.135 201.761 184.473C201.478 183.575 201.483 182.611 201.777 181.717C202.071 180.823 202.638 180.043 203.399 179.487C203.791 179.203 204.186 178.922 204.583 178.645C142.466 197.698 108.212 244.852 99.0966 259C108.13 273.035 141.914 319.541 203.059 338.885C182.892 324.189 169.113 302.359 164.539 277.858C160.42 276.321 157.89 272.144 158.376 267.725C158.863 263.306 162.269 259.793 166.615 259.227C170.962 258.66 175.146 261.169 176.736 265.329C177.503 267.339 177.582 269.545 176.96 271.604C176.338 273.663 175.05 275.458 173.297 276.709C180.271 312.484 208.135 340.277 243.557 346.801C254.179 347.673 264.854 347.673 275.475 346.801C288.691 344.323 301.153 338.827 311.887 330.743C312.504 330.264 313.239 329.959 314.015 329.859C314.791 329.759 315.579 329.869 316.298 330.176C317.02 330.496 317.645 330.999 318.11 331.636C318.576 332.272 318.866 333.02 318.951 333.803C319.037 334.586 318.914 335.378 318.597 336.1C318.279 336.821 317.777 337.447 317.141 337.914L315.73 338.966C377.005 319.655 410.853 273.051 419.903 259ZM337.674 259.275C337.674 302.933 302.609 338.464 259.5 338.464C216.391 338.464 181.326 302.933 181.326 259.275C181.326 215.618 216.391 180.102 259.5 180.102C302.609 180.102 337.674 215.601 337.674 259.275ZM328.851 259.275C328.851 220.555 297.744 189.038 259.5 189.038C221.256 189.038 190.132 220.538 190.132 259.291C190.132 298.044 221.256 329.513 259.5 329.513C297.744 329.513 328.851 298.012 328.851 259.275ZM285.061 237.535C285.061 246.018 280.86 253.917 273.87 258.579L280.844 301.104C281.004 301.857 280.99 302.638 280.804 303.385C280.618 304.133 280.264 304.828 279.768 305.419C279.273 306.01 278.65 306.481 277.945 306.796C277.241 307.112 276.474 307.263 275.703 307.239H244.563C243.791 307.262 243.023 307.111 242.318 306.796C241.614 306.481 240.99 306.01 240.493 305.42C239.997 304.829 239.641 304.134 239.452 303.386C239.264 302.639 239.248 301.858 239.405 301.104L246.347 258.579C236.421 251.926 232.528 239.073 237.053 227.92C241.578 216.767 253.272 210.421 264.95 212.752C276.643 215.099 285.061 225.476 285.061 237.535ZM355.564 270.606C353.299 290.885 344.736 309.948 331.073 325.126C330.559 325.714 329.895 326.154 329.152 326.4C328.409 326.646 327.613 326.688 326.848 326.523C326.083 326.358 325.376 325.991 324.802 325.46C324.227 324.93 323.805 324.256 323.58 323.507C323.343 322.752 323.309 321.949 323.479 321.176C323.65 320.404 324.02 319.69 324.553 319.104C336.965 305.313 344.746 287.994 346.806 269.57C346.936 268.406 347.523 267.341 348.437 266.607C349.352 265.873 350.52 265.53 351.687 265.653C354.12 265.944 355.839 268.162 355.564 270.606ZM195.485 191.806C196.337 192.626 196.831 193.748 196.862 194.929C196.892 196.11 196.456 197.256 195.647 198.119C183.206 211.41 175.15 228.19 172.568 246.196C172.395 247.356 171.769 248.4 170.827 249.101C169.885 249.802 168.703 250.102 167.54 249.935C166.377 249.748 165.336 249.111 164.641 248.162C163.946 247.214 163.653 246.031 163.826 244.868C166.675 225.06 175.546 206.601 189.24 191.984C189.637 191.559 190.114 191.218 190.645 190.98C191.175 190.742 191.747 190.611 192.328 190.596C192.91 190.581 193.488 190.682 194.03 190.892C194.572 191.103 195.066 191.419 195.485 191.822V191.806Z" fill="white"/>
</g>
<defs>
<clipPath id="clip0_523_3256">
<rect width="519" height="518" fill="white"/>
</clipPath>
</defs>
</svg>
