<svg width="519" height="518" viewBox="0 0 519 518" fill="none" xmlns="http://www.w3.org/2000/svg">
<g clip-path="url(#clip0_523_3255)">
<path d="M259.5 518C402.818 518 519 402.042 519 259C519 115.958 402.818 0 259.5 0C116.182 0 0 115.958 0 259C0 402.042 116.182 518 259.5 518Z" fill="#2DAEE4"/>
<path fill-rule="evenodd" clip-rule="evenodd" d="M134.665 193.553H136.449C152.068 193.262 165.643 187.37 177.158 175.893C188.349 163.817 193.961 149.976 193.961 134.372C193.961 126.424 196.832 119.576 202.589 113.83C205.318 111.038 208.591 108.833 212.206 107.352C215.821 105.871 219.702 105.145 223.609 105.218C231.556 105.218 238.433 108.083 244.174 113.83C249.932 119.576 252.803 126.424 252.803 134.372C252.803 142.304 250.078 149.167 244.628 154.914C242.123 157.664 239.089 159.883 235.706 161.437C232.323 162.992 228.661 163.851 224.939 163.962C208.12 163.363 193.669 169.11 181.57 181.186C169.471 193.262 163.729 207.393 164.313 223.597C164.897 240.367 170.963 254.353 182.462 265.539C195.145 276.725 209.304 282.18 224.939 281.888C228.663 282.002 232.325 282.863 235.708 284.421C239.091 285.978 242.125 288.2 244.628 290.953C250.078 296.684 252.803 303.385 252.803 311.026C252.803 319.281 249.932 326.274 244.174 332.021C241.517 334.782 238.322 336.97 234.785 338.451C231.248 339.932 227.444 340.675 223.609 340.633C215.337 340.633 208.347 337.751 202.589 332.021C199.792 329.298 197.583 326.031 196.099 322.423C194.615 318.815 193.887 314.942 193.961 311.042C194.086 303.482 192.658 295.977 189.766 288.989C186.873 282.001 182.577 275.679 177.142 270.411C171.894 264.855 165.593 260.391 158.606 257.279C151.618 254.168 144.082 252.469 136.433 252.281C130.838 252.589 126.053 251.699 122.063 249.643C118.144 247.637 114.796 244.675 112.332 241.031C109.791 237.282 107.986 233.085 107.012 228.664C105.992 224.249 105.773 219.688 106.364 215.196C110.191 200.773 119.631 193.553 134.665 193.553ZM135.071 281.888C142.742 281.888 149.457 284.689 155.198 290.29C160.956 295.874 163.973 302.511 164.281 310.168C163.973 326.355 169.584 340.487 181.083 352.563C192.599 364.331 206.45 370.224 222.684 370.224H224.014C239.941 370.224 253.646 364.331 265.161 352.563C276.952 340.778 282.71 326.663 282.418 310.152C282.396 302.427 280.772 294.791 277.649 287.723C274.525 280.655 269.97 274.309 264.269 269.084C252.624 258.028 239.082 252.427 223.609 252.298H221.792C218.07 252.186 214.408 251.327 211.025 249.773C207.642 248.218 204.608 245.999 202.103 243.249C199.45 240.532 197.361 237.318 195.955 233.793C194.55 230.268 193.855 226.5 193.912 222.707C193.912 214.775 196.799 207.911 202.541 202.165C207.423 197.309 213.213 194.492 219.895 193.747L221.841 193.553L222.587 193.569C223.36 193.549 224.134 193.554 224.906 193.586C240.152 193.391 253.419 187.645 264.756 176.33C276.855 164.254 282.759 149.976 282.451 133.481C282.451 127.006 284.673 121.114 289.1 115.821L289.538 115.384L289.976 114.93C289.976 114.639 290.138 114.493 290.414 114.493L290.868 114.056V113.619H291.306V113.15C291.598 113.15 291.744 113.004 291.744 112.713L292.182 112.276H293.074C293.074 111.968 293.236 111.822 293.512 111.822L293.966 111.385V110.948H294.842C294.842 110.641 295.004 110.495 295.28 110.495L295.734 110.058L296.172 109.621H296.61C296.61 109.33 296.772 109.184 297.064 109.184C297.356 109.184 297.502 109.022 297.502 108.731H297.939L298.377 108.294H299.269V107.857H299.707L300.161 107.403H301.037V106.999H301.929L302.367 106.562H303.259L303.697 106.124H305.027L305.465 105.671H306.795C307.087 105.671 307.233 105.526 307.233 105.234H316.526L316.753 105.461C316.899 105.606 317.11 105.671 317.402 105.671H318.294L318.521 105.898C318.667 106.044 318.878 106.124 319.17 106.124H320.062L320.5 106.562H321.392L321.83 106.999H322.722C323.014 107.29 323.306 107.436 323.598 107.436L324.052 107.889H324.927V108.326H325.382L325.82 108.763L326.03 108.99C326.193 109.152 326.403 109.216 326.695 109.216L327.149 109.653H327.587C327.587 109.945 327.879 110.09 328.463 110.09L328.917 110.527V110.981H329.355C329.355 111.272 329.647 111.418 330.247 111.418C330.247 111.709 330.393 111.855 330.685 111.855V112.308H331.123L331.577 112.745C331.869 113.037 332.161 113.182 332.453 113.182L332.891 113.635C332.891 113.927 333.053 114.073 333.345 114.073V114.51H333.783C333.783 114.801 333.864 115.028 334.01 115.157L334.221 115.4C334.221 115.691 334.383 115.837 334.675 115.837L335.113 116.274C335.113 116.565 335.178 116.792 335.324 116.938L335.551 117.164L335.989 117.601L336.443 118.038V118.929L336.881 119.366V119.787H337.319C337.319 120.094 337.4 120.305 337.546 120.45L337.757 120.677C337.757 120.968 337.919 121.114 338.211 121.114V121.567C338.211 121.859 338.275 122.069 338.421 122.215L338.649 122.441L339.086 122.879C339.086 123.477 339.249 123.769 339.541 123.769V124.206C339.541 124.513 339.605 124.724 339.751 124.87L339.978 125.096V125.97L340.416 126.424V127.751C340.708 128.042 340.854 128.334 340.854 128.625V129.952C341.162 130.244 341.308 130.535 341.308 130.843V134.355C341.308 149.96 346.904 163.801 358.111 175.876C369.626 187.353 383.347 193.246 399.274 193.537C407.221 193.246 414.309 195.965 420.521 201.712C426.7 207.442 429.798 214.435 429.798 222.691C429.798 230.93 426.927 237.907 421.17 243.67C418.51 246.432 415.312 248.622 411.772 250.103C408.232 251.584 404.426 252.326 400.588 252.281C396.79 252.336 393.018 251.642 389.489 250.24C385.96 248.837 382.743 246.753 380.023 244.107C377.231 241.538 374.987 238.434 373.427 234.979C371.866 231.524 371.02 227.791 370.94 224.002C371.248 207.814 365.345 193.537 353.262 181.17C341.454 169.385 327.149 163.655 310.331 163.946C302.683 164.132 295.147 165.828 288.16 168.937C281.172 172.046 274.872 176.506 269.622 182.06C264.186 187.327 259.889 193.649 256.997 200.637C254.104 207.625 252.677 215.131 252.803 222.691L252.786 224.05C253.111 239.105 258.706 252.492 269.589 264.195C281.088 275.689 294.809 281.581 310.736 281.872C321.343 281.289 329.469 285.11 335.064 293.365C340.676 301.297 342.444 309.715 340.384 318.537C336.248 333.267 326.809 340.617 312.066 340.617H310.736C294.209 341.199 280.488 347.253 269.589 358.73C258.366 369.916 252.77 383.611 252.77 399.798C252.77 407.746 249.9 414.593 244.142 420.34C241.483 423.103 238.285 425.292 234.745 426.773C231.205 428.255 227.398 428.996 223.56 428.952H222.684C214.721 428.952 207.925 426.087 202.33 420.34C199.618 417.655 197.474 414.453 196.028 410.923C194.582 407.394 193.863 403.611 193.912 399.798C193.912 383.611 188.317 369.916 177.11 358.73C171.86 353.177 165.559 348.716 158.572 345.607C151.584 342.498 144.049 340.802 136.401 340.617C132.383 340.84 128.363 340.229 124.594 338.822C120.825 337.415 117.39 335.242 114.505 332.442C111.561 329.716 109.229 326.397 107.664 322.706C106.098 319.014 105.334 315.033 105.423 311.026C105.423 303.078 108.294 296.23 114.051 290.484C116.78 287.692 120.053 285.487 123.668 284.006C127.283 282.525 131.164 281.799 135.071 281.872V281.888Z" fill="white"/>
</g>
<defs>
<clipPath id="clip0_523_3255">
<rect width="519" height="518" fill="white"/>
</clipPath>
</defs>
</svg>
