<svg width="518" height="518" viewBox="0 0 518 518" fill="none" xmlns="http://www.w3.org/2000/svg">
<g clip-path="url(#clip0_523_3254)">
<path d="M259 518C402.042 518 518 402.042 518 259C518 115.958 402.042 0 259 0C115.958 0 0 115.958 0 259C0 402.042 115.958 518 259 518Z" fill="black"/>
<path d="M121.585 376.359C121.358 372.537 121.347 368.706 121.553 364.882C122.848 364.494 124.175 364.235 125.535 364.073C129.452 363.409 133.321 362.503 137.141 361.37C138.177 361.046 139.213 360.69 140.217 360.301C145.235 358.375 149.67 355.202 153.037 351.091C155.368 348.225 157.408 345.134 159.156 341.864C161.617 337.396 163.802 332.783 165.728 328.056C169.629 318.538 173.514 308.987 177.383 299.42L217.188 200.79C229.766 169.532 242.117 138.193 254.209 106.757C254.452 106.109 254.727 105.494 255.002 104.846C259.47 103.616 263.873 102.354 268.438 101.172C268.697 101.819 268.956 102.37 269.166 102.953L284.545 145.056C301.96 192.921 319.621 240.697 337.526 288.38C342.447 301.411 347.401 314.442 352.403 327.425C354.377 332.734 356.692 337.914 359.347 342.932C360.514 345.076 361.778 347.167 363.135 349.197C367.295 355.542 373.754 360.123 381.216 362.001C385.231 363.053 389.31 363.846 393.422 364.381L396.352 364.801C396.772 366.08 396.513 367.311 396.546 368.525C396.594 369.755 396.546 371.115 396.546 372.426C396.594 373.688 396.562 374.935 396.481 376.198C396.06 376.262 395.736 376.327 395.413 376.359H292.412C292.304 376.139 292.227 375.905 292.185 375.663V365.32C292.212 365.164 292.255 365.012 292.315 364.866C293.168 364.63 294.04 364.468 294.921 364.381C299.162 363.846 303.338 363.037 307.482 361.985C309.133 361.532 310.768 360.949 312.387 360.366C313.196 360.042 313.973 359.67 314.718 359.233C318.781 356.999 320.416 353.503 320.06 349.035C319.879 347.01 319.516 345.005 318.975 343.045C318.166 339.97 317.033 337.008 315.964 334.029C294.63 275.73 273.526 217.347 252.655 158.88C252.429 158.233 252.364 157.537 251.7 156.97C251.49 157.1 251.214 157.197 251.053 157.375C250.884 157.67 250.753 157.985 250.664 158.314C240.466 187.063 229.604 215.585 218.775 244.107C210.794 265.248 202.798 286.357 195.351 307.676C192.379 316.226 189.492 324.806 186.691 333.414C185.594 336.7 184.781 340.074 184.263 343.499C183.867 345.781 183.801 348.109 184.069 350.411C184.244 351.911 184.733 353.357 185.503 354.656C186.272 355.956 187.306 357.079 188.536 357.954C190.188 359.104 192.001 360.026 193.911 360.658C196.954 361.71 200.094 362.503 203.283 363.021C206.796 363.652 210.341 364.138 213.87 364.688L214.631 364.818C214.716 365.069 214.77 365.33 214.793 365.595V375.599C214.768 375.796 214.725 375.992 214.663 376.181C214.348 376.252 214.029 376.306 213.708 376.343H121.585V376.359Z" fill="white"/>
</g>
<defs>
<clipPath id="clip0_523_3254">
<rect width="518" height="518" fill="white"/>
</clipPath>
</defs>
</svg>
