<svg width="518" height="518" viewBox="0 0 518 518" fill="none" xmlns="http://www.w3.org/2000/svg">
<g clip-path="url(#clip0_523_3253)">
<path d="M259 518C402.042 518 518 402.042 518 259C518 115.958 402.042 0 259 0C115.958 0 0 115.958 0 259C0 402.042 115.958 518 259 518Z" fill="#2CD3E1"/>
<path d="M128.933 284.868C128.828 283.159 128.774 281.448 128.772 279.736C128.772 222.805 173.158 176.525 228.681 174.55C230.008 174.55 231.433 174.55 232.76 174.663L219.519 161.503C219.519 161.503 272.824 152.6 341.265 193.748C341.265 193.748 342.269 195.836 341.265 201.971C341.265 201.971 373.51 215.796 376.262 242.667C379.014 269.538 361.92 284.9 348.112 287.085C348.112 287.085 355.283 276.013 344.26 270.088C341.855 268.789 339.137 268.183 336.409 268.34C315.332 268.34 312.904 292.249 312.904 292.249C312.678 293.447 312.678 294.661 312.678 295.859C312.678 295.859 309.602 326.275 359.978 329.853C371.49 315.004 381.576 299.102 390.103 282.359C403.56 255.962 413.638 227.974 420.098 199.058C390.75 175.003 356.141 154.38 318.926 137.108C304.972 130.633 291.456 125.016 278.652 120.192C272.124 117.717 265.54 115.396 258.903 113.232C253.691 114.915 247.086 117.214 239.154 120.192C226.366 125 212.833 130.633 198.896 137.108C161.713 154.364 127.088 174.987 97.7401 199.074C99.3265 206.714 101.738 216.249 105.203 227.321C111.38 247.173 119.322 266.432 128.933 284.868ZM437.062 192.664L436.253 197.196C435.832 200.709 432.967 213.303 429.438 225.362C422.993 247.424 414.49 268.832 404.04 289.303C389.374 317.89 371.568 342.819 351.139 363.345C325.935 388.613 296.765 407.277 264.261 418.9L262.448 419.548L259 420.875L255.584 419.677L253.674 419.013C220.914 407.249 191.224 388.255 166.812 363.442C146.286 342.722 128.496 317.842 113.911 289.4C100.316 262.678 90.042 234.394 83.3171 205.177C82.5077 201.551 81.6174 197.018 81.7793 197.666L80.9375 193.004L82.88 191.385L84.3045 190.171C114.154 165.048 149.459 143.502 187.581 125.388C209.037 115.087 231.136 106.182 253.739 98.7276L258.887 97.125L262.399 98.1772L264.148 98.7437C281.63 104.361 304.859 113.312 330.257 125.388C368.33 143.47 403.587 164.983 433.404 190.057L437.062 192.647V192.664ZM314.005 204.383C314.895 203.946 317.761 202.522 321.079 199.122C327.7 199.997 334.207 202.085 334.207 202.085C322.18 194.849 305.717 190.559 287.506 190.673C287.506 190.673 294.467 200.547 313.779 204.594L314.005 204.383Z" fill="white"/>
</g>
<defs>
<clipPath id="clip0_523_3253">
<rect width="518" height="518" fill="white"/>
</clipPath>
</defs>
</svg>
