<svg width="518" height="518" viewBox="0 0 518 518" fill="none" xmlns="http://www.w3.org/2000/svg">
<g clip-path="url(#clip0_523_3252)">
<path d="M259 518C402.042 518 518 402.042 518 259C518 115.958 402.042 0 259 0C115.958 0 0 115.958 0 259C0 402.042 115.958 518 259 518Z" fill="#1F4C9F"/>
<path fill-rule="evenodd" clip-rule="evenodd" d="M97.125 311.609L259 105.219L420.875 311.609V380.406L259 174.016L97.125 380.406V311.609ZM267.094 331.844C256.361 331.844 246.067 327.58 238.478 319.991C230.889 312.401 226.625 302.108 226.625 291.375C226.625 280.642 230.889 270.349 238.478 262.759C246.067 255.17 256.361 250.906 267.094 250.906C277.827 250.906 288.12 255.17 295.709 262.759C303.299 270.349 307.562 280.642 307.562 291.375C307.562 302.108 303.299 312.401 295.709 319.991C288.12 327.58 277.827 331.844 267.094 331.844Z" fill="white"/>
</g>
<defs>
<clipPath id="clip0_523_3252">
<rect width="518" height="518" fill="white"/>
</clipPath>
</defs>
</svg>
