<svg width="518" height="518" viewBox="0 0 518 518" fill="none" xmlns="http://www.w3.org/2000/svg">
<g clip-path="url(#clip0_523_3251)">
<path d="M259 518C402.042 518 518 402.042 518 259C518 115.958 402.042 0 259 0C115.958 0 0 115.958 0 259C0 402.042 115.958 518 259 518Z" fill="#FD875E"/>
<path d="M221.121 281.436L259.745 166.31L299.08 281.436H221.121ZM384.809 354.231L352.871 268.292H371.94C375.552 268.296 379.02 266.879 381.595 264.347C384.17 261.814 385.644 258.37 385.7 254.759C385.7 251.359 384.307 248.073 381.863 245.678C379.419 243.282 376.068 241.906 372.588 241.906H342.803L338.027 228.535H371.94C375.474 228.567 378.881 227.221 381.438 224.782C383.995 222.343 385.5 219.003 385.635 215.472C385.651 211.878 384.21 208.446 381.62 205.921C379.03 203.396 375.534 201.971 371.875 201.988H327.845L304.001 137.756C300.412 128.54 294.521 120.398 286.891 114.106C279.281 107.999 269.721 104.849 259.971 105.235C250.192 104.919 240.615 108.06 232.922 114.106C225.294 120.404 219.39 128.536 215.763 137.739L190.786 202.554H147.015C143.554 202.524 140.221 203.863 137.744 206.28C135.267 208.697 133.845 211.995 133.79 215.456C133.79 222.869 139.925 228.875 147.501 228.875H180.733L175.618 241.89H145.833C144.113 241.871 142.407 242.19 140.81 242.831C139.214 243.471 137.76 244.42 136.53 245.622C135.301 246.825 134.32 248.258 133.644 249.839C132.968 251.421 132.611 253.12 132.592 254.84C132.592 262.189 138.646 268.13 146.125 268.162H165.242L132.77 354.215C130.779 359.071 129.678 364.219 129.5 369.447C129.824 376.78 133.094 383.692 138.565 388.71C144.621 393.838 152.321 396.614 160.256 396.529C166.885 396.929 173.452 395.053 178.868 391.211C184.285 387.369 188.227 381.792 190.041 375.404L202.603 338.675H318.246L330.824 376.278C332.865 382.45 336.897 387.77 342.287 391.403C347.678 395.036 354.122 396.776 360.609 396.351C365.627 396.464 370.564 395.218 374.919 392.79C378.69 390.038 382.041 386.8 384.858 383.109C387.316 378.981 388.577 374.251 388.5 369.447C387.711 364.347 386.476 359.326 384.809 354.441V354.231Z" fill="#FEFEFE"/>
</g>
<defs>
<clipPath id="clip0_523_3251">
<rect width="518" height="518" fill="white"/>
</clipPath>
</defs>
</svg>
