<svg width="518" height="518" viewBox="0 0 518 518" fill="none" xmlns="http://www.w3.org/2000/svg">
<g clip-path="url(#clip0_523_3249)">
<path d="M259 518C402.042 518 518 402.042 518 259C518 115.958 402.042 0 259 0C115.958 0 0 115.958 0 259C0 402.042 115.958 518 259 518Z" fill="#A71435"/>
<path d="M174.097 84.9204C214.106 65.0767 259.753 59.7055 303.276 69.7203C346.798 79.7351 385.507 104.517 412.819 139.852C440.131 175.187 454.359 218.892 453.083 263.533C451.807 308.175 435.106 350.996 405.821 384.713C396.189 363.734 388.808 341.735 380.552 320.076L330.695 189.443C325.887 176.202 317.809 163.478 305.264 156.599C287.698 148.13 268.011 145.076 248.705 147.825C233.23 149.557 217.075 154.883 206.585 167.088C196.614 178.597 192.146 193.393 186.48 207.314L150.544 298.417C138.517 327.296 128.367 357.21 115.304 385.911C96.4872 365.588 82.6597 341.164 74.916 314.572C61.5347 270.703 64.1802 223.506 82.3802 181.407C100.58 139.308 133.15 105.048 174.275 84.7423L174.097 84.9042V84.9204Z" fill="white"/>
<path d="M245.953 216.589C249.385 206.278 263.145 202.83 272.08 208.69C276.888 212.299 278.62 218.483 280.854 223.987C303.192 282.424 325.207 341.217 347.384 399.848C350.298 408.265 354.588 416.343 356.32 425.1C354.913 426.6 353.286 427.877 351.496 428.888C327.243 441.864 300.504 449.527 273.059 451.366C245.614 453.205 218.092 449.179 192.324 439.556C182.693 435.59 172.737 432.158 164.304 426.136C165.162 418.237 169.111 411.179 172.041 403.959C196.792 341.573 221.025 278.992 245.953 216.589Z" fill="white"/>
</g>
<defs>
<clipPath id="clip0_523_3249">
<rect width="518" height="518" fill="white"/>
</clipPath>
</defs>
</svg>
