<svg width="518" height="518" viewBox="0 0 518 518" fill="none" xmlns="http://www.w3.org/2000/svg">
<g clip-path="url(#clip0_523_3247)">
<path d="M259 518C402.042 518 518 402.042 518 259C518 115.958 402.042 0 259 0C115.958 0 0 115.958 0 259C0 402.042 115.958 518 259 518Z" fill="#0092B5"/>
<path d="M190.365 228.276L259.68 106.255C259.809 106.028 260.068 105.882 260.975 106.255L326.923 226.058C325.073 227.568 323.59 229.476 322.585 231.641C321.579 233.805 321.076 236.17 321.115 238.556C321.154 240.943 321.734 243.289 322.809 245.42C323.885 247.551 325.43 249.41 327.327 250.858L266.414 360.738C264.244 359.697 261.871 359.147 259.464 359.131C257.057 359.114 254.676 359.63 252.493 360.641L189.798 248.964C192.379 246.167 193.857 242.528 193.959 238.723C194.06 234.919 192.777 231.207 190.349 228.276H190.365ZM183.728 253.108L246.665 365.206C245.307 366.906 244.315 368.868 243.751 370.969C192.939 358.796 161.373 351.269 149.022 348.371C143.798 341.025 139.227 333.236 135.36 325.094L175.699 254.095C178.414 254.439 181.173 254.106 183.728 253.124V253.108ZM175.003 222.627L125.032 133.595C159.091 115.514 201.356 106.028 251.861 105.219L184.489 223.808C181.516 222.476 178.212 222.065 175.003 222.627ZM168.204 225.476C166.127 226.974 164.446 228.955 163.303 231.247C162.161 233.539 161.593 236.074 161.647 238.635C161.701 241.195 162.376 243.704 163.614 245.946C164.852 248.188 166.616 250.096 168.755 251.505L131.685 316.741C125.526 301.487 121.864 285.341 120.84 268.923L113.345 149.427C113.205 147.126 113.621 144.825 114.556 142.718C115.491 140.61 116.919 138.759 118.719 137.319L168.204 225.476ZM275.042 371.131C274.501 369.042 273.536 367.086 272.209 365.384L334.013 253.901C336.68 254.436 339.439 254.303 342.042 253.512L382.09 326.259C378.69 333.252 374.773 339.986 370.37 346.412L275.042 371.131ZM263.047 390.556C265.979 389.892 268.667 388.42 270.805 386.305C272.942 384.19 274.444 381.519 275.139 378.593L363.458 355.688C352.781 368.96 340.009 380.399 325.644 389.552L266.997 427.01C265.774 427.794 264.444 428.394 263.047 428.791V390.556ZM255.698 390.556V428.969C254.032 428.591 252.443 427.929 251.003 427.01L192.356 389.552C178.643 380.812 166.377 369.988 155.999 357.469C172.024 361.273 201.211 368.233 243.557 378.367C244.852 384.405 249.611 389.18 255.698 390.572V390.556ZM342.625 223.274C339.686 222.259 336.519 222.102 333.495 222.821L268.793 105.267C317.874 106.352 359.12 115.724 392.482 133.353L342.625 223.274ZM348.824 227.175L398.844 136.979C400.775 138.404 402.32 140.289 403.338 142.463C404.355 144.637 404.814 147.031 404.671 149.427L397.176 268.939C396.121 285.774 392.292 302.319 385.845 317.906L348.387 249.87C349.94 248.429 351.187 246.69 352.053 244.756C352.919 242.822 353.387 240.734 353.427 238.616C353.468 236.497 353.082 234.392 352.291 232.427C351.5 230.461 350.321 228.675 348.824 227.175ZM259 181.85C256.708 181.887 254.519 182.806 252.888 184.416C251.256 186.026 250.309 188.203 250.242 190.494V222.125L203.525 250.906L208.527 261.703L250.242 248.041V279.671L238.555 288.299V296.927L259 291.165L279.445 296.911V288.283L267.757 279.655V248.025L308.76 262.432L314.474 250.906L267.757 222.125V190.494C267.687 188.209 266.74 186.038 265.113 184.432C263.485 182.826 261.302 181.907 259.016 181.867L259 181.85Z" fill="white"/>
</g>
<defs>
<clipPath id="clip0_523_3247">
<rect width="518" height="518" fill="white"/>
</clipPath>
</defs>
</svg>
