<svg width="519" height="518" viewBox="0 0 519 518" fill="none" xmlns="http://www.w3.org/2000/svg">
<g clip-path="url(#clip0_523_3246)">
<path d="M259.5 518C402.818 518 519 402.042 519 259C519 115.958 402.818 0 259.5 0C116.182 0 0 115.958 0 259C0 402.042 116.182 518 259.5 518Z" fill="#436697"/>
<path d="M309.373 335.34C308.582 335.303 307.818 335.045 307.167 334.595C306.576 334.226 306.077 333.728 305.707 333.138H305.561L269.588 396.188C306.145 388.176 342.573 380.001 379.113 371.972C378.278 370.94 377.499 369.865 376.778 368.751C375.756 367.294 374.88 365.546 373.859 363.652C372.924 361.928 372.048 360.173 371.231 358.391V358.245C371.231 358.099 371.069 357.954 371.069 357.954C369.332 354.267 367.725 350.52 366.252 346.719C365.814 345.7 365.522 344.826 365.084 343.951C362.858 338.454 360.76 332.905 358.791 327.311C352.644 328.476 347.535 329.496 344.032 330.224C343.87 330.224 343.724 330.224 343.578 330.37C338.177 331.536 333.052 332.555 328.089 333.446C325.3 334.012 322.672 334.304 320.191 334.741C319.607 334.903 318.877 334.903 318.001 335.048C318.001 335.048 316.233 335.34 313.898 335.485C312.383 335.6 310.86 335.546 309.357 335.323L309.373 335.34ZM342.994 279.574C342.215 276.786 341.582 273.961 341.097 271.108L313.606 319.282L313.768 319.12C314.92 318.699 316.233 318.262 317.855 317.825C321.65 316.643 326.321 315.478 332.03 314.021C337.739 312.564 344.47 310.945 352.352 308.922C350.747 304.098 348.995 299.144 347.39 294.029C345.743 289.269 344.283 284.447 343.01 279.574H342.994ZM385.406 194.201H384.822L349.303 256.523C349.433 256.523 349.725 256.668 350.163 256.668C350.325 256.668 350.325 256.668 350.455 256.814C350.617 256.814 350.617 256.814 350.747 256.96C350.909 256.96 350.909 257.106 351.039 257.106C351.201 257.106 351.201 257.105 351.331 257.251C351.762 257.481 352.156 257.776 352.498 258.125C353.082 258.708 353.536 259.291 353.682 259.437C353.828 259.598 353.828 259.728 353.974 259.874C354.298 260.339 354.591 260.826 354.85 261.33C355.58 262.642 356.018 263.37 356.018 263.37C357.77 266.737 359.521 270.671 361.273 275.349C363.041 280.011 364.938 284.98 366.69 290.241C367.128 291.407 367.42 292.427 367.858 293.592C368.879 296.668 370.193 300.456 371.669 304.826C377.8 303.661 383.655 302.495 389.347 301.475C395.056 300.456 400.182 299.727 404.853 299.29C409.54 298.837 413.481 298.545 416.854 298.691C418.752 298.691 420.212 298.853 421.525 299.144C421.817 299.144 422.255 299.29 422.547 299.29C419.774 291.552 416.854 282.941 413.481 273.746L385.422 194.201H385.406ZM418.898 312.272C414.857 313.754 410.755 315.066 406.604 316.206C405.728 316.497 404.853 316.643 404.123 316.951C403.393 317.096 402.663 317.388 401.933 317.533C399.902 318.09 397.851 318.576 395.786 318.99C394.627 319.316 393.459 319.607 392.283 319.864H392.121C388.618 320.739 383.947 321.758 378.53 322.94C379.697 327.019 381.173 331.536 382.909 336.651C384.53 341.75 386.152 346.719 387.45 351.382C387.888 352.838 388.18 354.166 388.618 355.623C389.364 357.808 389.948 359.993 390.385 362.632C390.531 363.069 390.531 363.506 390.677 363.927C391.261 366.274 391.407 368.022 391.261 369.333C391.261 369.333 397.392 368.168 400.473 367.439C412.604 351.843 422.043 334.336 428.402 315.639C427.526 313.001 426.651 310.524 425.775 307.886C424.445 309.65 422.255 310.961 418.898 312.272ZM226.592 86.0522H227.176C227.76 86.0522 228.506 86.3436 229.382 86.9263C229.82 87.2177 230.404 87.5091 230.842 87.9461C231.461 88.3881 232.046 88.875 232.593 89.403C235.221 91.734 238.156 94.5183 241.514 97.8691C244.725 101.074 248.098 104.587 251.602 108.391C254.959 112.017 258.04 115.384 260.814 118.152C262.128 116.841 263.441 115.384 264.771 113.781C266.377 112.017 267.983 110.269 269.588 108.375C271.21 106.627 272.8 104.733 274.567 103.114C276.173 101.366 277.779 99.763 279.384 98.1605L281.72 95.8295C282.612 94.9553 283.488 94.2107 284.217 93.4823C285.677 92.1873 286.991 91.0056 288.305 89.9858C291.094 87.6548 293.138 86.635 294.743 86.635C295.327 86.635 295.911 86.7806 296.495 86.9263L294.889 85.0162L290.64 84.1421C290.494 84.1421 290.348 84.1421 290.202 83.9964C288.905 83.705 287.575 83.5593 286.261 83.4136H285.969C284.655 83.268 283.196 82.9766 281.882 82.8309H281.72C274.421 81.9568 266.961 81.374 259.354 81.374H255.251C253.953 81.374 252.769 81.5359 251.602 81.5359H251.164C249.85 81.5359 248.682 81.6654 247.368 81.8111H247.206C240.492 82.2481 233.907 83.1223 227.468 84.2878C226.884 84.8705 226.446 85.4695 225.862 86.1979C226.154 86.1979 226.3 86.036 226.592 86.036V86.0522ZM126.279 169.094C127.009 168.511 127.901 167.637 129.361 167.054C131.06 166.275 132.894 165.83 134.762 165.743C137.243 165.581 139.141 166.326 140.179 166.617C163.42 140.491 186.678 114.494 209.919 88.3832L204.227 90.1315C191.203 94.5021 173.946 101.803 155.96 114.656C140.248 126.044 126.434 139.832 115.023 155.513C113.856 157.277 112.542 158.88 111.358 160.628C116.337 163.396 121.316 166.326 126.279 169.094ZM122.484 186.463C121.418 184.489 120.86 182.28 120.862 180.037V179.017C120.862 179.017 121.024 178.289 121.024 177.997L105.941 169.531C91.1469 194.646 82.8112 223.024 81.6777 252.136V264.406C82.1156 278.117 84.0132 291.407 87.3867 304.098C100.394 266.446 113.564 228.939 126.571 191.271C124.876 189.983 123.481 188.343 122.484 186.463ZM300.015 95.2467C299.677 96.2856 299.185 97.2678 298.555 98.1605C297.568 99.9672 296.491 101.723 295.327 103.421C294.597 104.441 293.868 105.607 293.138 106.772C291.228 109.562 289.227 112.289 287.137 114.947C286.115 116.112 285.239 117.424 284.217 118.735C284.055 118.897 283.926 119.172 283.78 119.318C281.882 121.665 279.822 124.141 277.633 126.618C276.011 128.512 274.551 130.276 272.799 132.17C275.005 134.647 277.487 137.269 279.968 140.199C280.844 141.074 281.72 142.093 282.466 143.113C284.217 145.007 285.823 146.901 287.429 148.811L292.116 154.347C295.035 158.006 297.517 161.211 299.577 164.125C301.328 166.763 302.204 168.657 302.496 170.114V170.697C302.496 172.154 301.766 173.61 300.452 174.938H370.355C370.792 173.791 371.381 172.707 372.107 171.716L300.582 91.5883V91.8797C300.625 93.029 300.432 94.1749 300.015 95.2467ZM341.972 101.657C341.681 101.511 341.535 101.366 341.243 101.366C339.286 100.307 337.284 99.3348 335.242 98.4518C334.857 98.3472 334.506 98.1466 334.22 97.8691C332.286 96.9678 330.34 96.0936 328.381 95.2467C327.943 95.0848 327.651 94.9553 327.213 94.8096C325.102 93.8908 322.954 93.0592 320.775 92.3168C320.483 92.1711 320.191 92.1711 319.899 92.0254C317.709 91.1513 315.357 90.4228 313.022 89.6944C335.696 115.093 358.353 140.636 381.173 166.035C381.465 166.035 381.903 165.873 382.195 165.873H385.26C385.99 166.035 387.304 166.18 388.926 166.763C389.072 166.763 389.218 166.909 389.364 167.054C389.51 167.2 389.802 167.2 389.948 167.346C391.044 167.906 392.073 168.59 393.013 169.385C393.159 169.385 393.159 169.531 393.305 169.531C393.743 169.823 394.035 170.26 394.327 170.551C399.16 167.783 403.977 165.144 408.664 162.376C393.303 138.935 372.671 119.396 348.411 105.315H348.265C346.222 104.004 344.016 102.822 341.972 101.657ZM287.137 172.882C286.407 172.299 285.823 171.716 285.093 171.134L280.552 167.054L278.217 164.707C275.621 162.189 273.132 159.565 270.756 156.84C269.004 154.93 267.399 153.036 265.793 151.288C264.171 149.394 262.419 147.629 260.814 145.881C255.413 151.434 250.872 156.241 247.077 160.337C246.201 161.211 245.309 162.231 244.433 163.105L244.141 163.396C242.389 165.144 240.93 166.763 239.47 168.22L237.426 170.26C235.666 171.973 233.809 173.583 231.863 175.083H289.618C289.472 174.922 289.18 174.792 289.034 174.646C288.451 173.902 287.737 173.465 287.137 172.882ZM148.515 174.938H220.754C220.462 174.646 220.17 174.193 219.878 173.902C219.586 173.61 219.44 173.173 219.278 172.882C218.986 172.154 218.694 171.425 218.694 170.697C218.694 170.26 218.856 169.677 218.986 168.948C218.986 168.787 219.148 168.657 219.148 168.511C219.278 168.22 219.44 167.783 219.732 167.346C220.17 166.472 220.754 165.436 221.483 164.432C221.629 164.27 221.629 164.125 221.775 164.125C226.157 157.977 230.89 152.085 235.951 146.48C236.883 145.37 237.857 144.296 238.87 143.259C239.908 142.239 240.784 141.074 241.805 140.054C243.995 137.561 246.185 135.084 248.098 132.753C248.244 132.591 248.39 132.462 248.39 132.316C243.053 126.141 237.835 119.865 232.739 113.49C231.279 111.58 229.966 109.686 228.652 107.938C226.484 104.885 224.481 101.718 222.651 98.4518L221.775 96.7036C221.483 96.1208 221.337 95.5381 221.045 95.0848C220.754 94.065 220.462 93.1909 220.462 92.4625L147.915 173.61C148.077 174.047 148.369 174.501 148.515 174.938ZM266.085 436.333C312.794 434.64 356.944 414.604 388.926 380.584C347.973 389.633 307.021 398.681 266.085 407.585V436.333ZM435.425 285.126C435.571 284.543 435.571 284.106 435.717 283.507C435.863 282.05 436.155 280.755 436.301 279.299V279.137L436.739 274.604C436.739 274.183 436.885 273.746 436.885 273.309C436.885 272.435 437.031 271.69 437.031 270.816C437.322 266.284 437.468 262.075 437.468 258.125C437.338 231.571 431.242 205.385 419.628 181.494L419.19 180.62C418.606 179.308 417.876 178.143 417.292 176.832L416.417 175.083C415.687 173.756 414.957 172.299 414.211 170.988C408.81 174.064 403.539 176.977 398.138 180.053C398.138 180.474 398.138 180.911 397.976 181.348C397.846 182.222 397.684 182.967 397.538 183.695C397.392 184.132 397.246 184.424 397.1 184.861C396.684 185.938 396.145 186.965 395.494 187.92C395.202 188.212 395.056 188.503 394.764 188.794C407.496 225.427 420.212 261.913 432.927 298.546C433.673 295.486 434.257 292.281 434.841 289.205C434.841 288.914 434.987 288.623 434.987 288.185C435.165 287.165 435.311 286.139 435.425 285.11V285.126Z" fill="white"/>
<path d="M370.485 185.152C371.369 187.431 372.833 189.44 374.734 190.98L260.229 391.964L145.287 190.106C146.659 188.667 147.753 186.988 148.515 185.152H370.485ZM254.812 316.951C252.801 316.951 251.163 318.57 251.163 320.593V320.658C251.163 322.439 252.282 323.847 253.839 324.252L254.812 324.381C255.301 324.388 255.786 324.296 256.238 324.11C256.69 323.925 257.1 323.65 257.443 323.302C257.785 322.954 258.054 322.54 258.232 322.086C258.409 321.631 258.493 321.146 258.478 320.658V320.593C258.478 320.113 258.383 319.639 258.199 319.196C258.014 318.753 257.744 318.35 257.403 318.012C257.063 317.674 256.658 317.406 256.214 317.224C255.769 317.041 255.293 316.949 254.812 316.951ZM223.981 281.015C223.252 281.014 222.539 281.231 221.935 281.638C221.331 282.044 220.863 282.622 220.591 283.297L220.461 283.686L220.331 284.657C220.331 286.713 221.937 288.315 223.981 288.315C226.024 288.315 227.63 286.713 227.63 284.673C227.63 282.633 226.024 281.015 223.981 281.015ZM282.628 209.207C275.313 206.504 270.982 209.45 269.101 211.408L268.955 211.57C268.519 211.995 268.148 212.48 267.852 213.011C267.852 213.157 267.69 213.302 267.852 213.302C267.852 213.448 267.998 213.448 268.144 213.594C281.152 220.02 290.964 224.974 295.197 227.159L295.635 227.45C296.073 227.742 297.387 228.341 297.533 229.36C297.711 230.218 297.16 231.092 296.43 231.869L295.797 232.485L295.051 233.148L294.402 233.699C292.732 235.091 290.494 236.904 278.232 246.438C277.733 246.941 277.137 247.337 276.481 247.604C275.852 247.949 275.154 248.149 274.437 248.186H273.999C273.269 248.186 272.669 248.186 270.188 247.167C269.12 246.756 267.968 246.606 266.83 246.73L265.371 247.167C265.079 247.312 264.933 247.458 264.641 247.604C264.507 247.73 264.366 247.849 264.219 247.96L264.495 247.749C264.119 248.004 263.772 248.297 263.457 248.624C263.311 248.769 263.311 248.915 263.311 249.061C263.538 249.061 263.684 249.061 263.798 249.125L263.846 249.255L264.057 249.352C264.349 249.352 264.495 249.352 264.787 249.498C265.147 249.506 265.499 249.606 265.809 249.789C267.014 250.28 268.157 250.91 269.215 251.667L268.436 251.1C269.055 251.542 269.641 252.029 270.188 252.557C270.717 253.103 271.205 253.688 271.647 254.305L272.977 256.215L274.145 257.818C274.475 258.464 274.721 259.149 274.875 259.858C275.165 260.857 275.312 261.893 275.313 262.933V264.682C275.313 264.827 275.313 264.973 275.459 265.119L275.524 265.151L275.605 265.264H276.043C276.481 264.973 276.919 264.827 277.21 264.536C277.356 264.244 277.648 264.099 277.794 263.953C278.21 263.667 278.518 263.251 278.67 262.771C279.254 261.476 279.254 260.149 279.254 259.421C278.962 256.653 279.254 256.07 279.546 255.487C279.546 255.325 279.708 255.196 279.708 255.05C279.969 254.39 280.36 253.79 280.86 253.286C281.412 252.757 282.003 252.27 282.628 251.829C288.087 247.902 293.652 244.123 299.317 240.497L300.322 239.85C301.62 239.138 303.534 237.826 304.863 238.555C305.04 238.659 305.198 238.79 305.334 238.943C305.723 239.575 305.918 240.465 306.015 240.886L306.177 241.614C307.037 246.73 308.805 257.235 310.994 271.237C310.994 271.399 311.14 271.529 311.14 271.529C311.156 271.626 311.189 271.691 311.286 271.691C311.432 271.82 311.432 271.82 311.578 271.82C311.724 271.82 320.06 269.926 319.477 258.984L318.309 232.857V232.209C318.337 230.849 318.681 229.514 319.315 228.309C319.948 227.103 320.853 226.062 321.958 225.265L329.857 219C329.857 219 334.674 215.633 333.798 210.389C333.652 210.227 333.652 210.097 333.506 210.097L333.619 210.162C333.506 209.984 333.441 209.935 333.36 209.935C328.543 207.459 324.002 211.117 324.002 211.117L315.519 216.799C314.36 217.717 312.976 218.309 311.51 218.514C310.044 218.719 308.55 218.529 307.183 217.964L299.284 215.213L282.628 209.207ZM216.812 217.964C215.843 217.969 214.914 218.356 214.23 219.042C213.547 219.727 213.163 220.655 213.163 221.623V221.688C213.163 223.468 214.282 224.86 215.839 225.281L216.812 225.411C217.301 225.417 217.786 225.325 218.238 225.14C218.69 224.954 219.1 224.679 219.442 224.331C219.785 223.983 220.053 223.57 220.231 223.115C220.409 222.661 220.493 222.175 220.477 221.688V221.623C220.477 220.653 220.091 219.722 219.404 219.036C218.716 218.35 217.784 217.964 216.812 217.964ZM244.449 199.721C243.479 199.725 242.551 200.113 241.867 200.798C241.183 201.484 240.799 202.412 240.799 203.379V203.444C240.799 205.225 241.918 206.617 243.475 207.038L244.449 207.167C244.937 207.174 245.422 207.082 245.874 206.896C246.327 206.711 246.736 206.436 247.079 206.088C247.421 205.74 247.69 205.326 247.868 204.872C248.046 204.418 248.129 203.932 248.114 203.444V203.379C248.114 202.409 247.728 201.479 247.04 200.793C246.353 200.107 245.421 199.721 244.449 199.721ZM177.627 199.721C177.146 199.721 176.669 199.816 176.225 200C175.78 200.183 175.376 200.453 175.035 200.793C174.695 201.132 174.425 201.536 174.241 201.979C174.057 202.423 173.962 202.899 173.962 203.379L173.978 203.444C173.978 205.225 175.081 206.617 176.638 207.038L177.611 207.167C178.1 207.174 178.585 207.082 179.037 206.896C179.489 206.711 179.899 206.436 180.241 206.088C180.584 205.74 180.852 205.326 181.03 204.872C181.208 204.418 181.292 203.932 181.277 203.444V203.379C181.277 201.356 179.655 199.721 177.627 199.721ZM130.236 364.089C130.82 361.305 131.534 358.391 132.426 355.024L133.302 351.527C134.615 346.865 136.075 341.896 137.843 336.797C138.264 335.486 138.702 334.304 138.994 333.138C139.74 330.807 140.454 328.476 141.2 326.291C141.472 325.245 141.813 324.217 142.222 323.216C138.264 322.341 133.593 321.176 128.614 320.14C123.714 319.046 118.841 317.832 114.001 316.498C110.482 315.478 107.27 314.604 104.497 313.584C103.475 313.293 102.583 312.856 101.707 312.564C100.664 312.18 99.6404 311.743 98.642 311.253C97.8748 310.881 97.1421 310.443 96.4525 309.942C95.1388 313.584 93.9548 317.226 92.6411 320.885C98.934 337.671 107.562 353.146 118.38 367.148C122.192 368.023 125.841 368.767 129.636 369.625C129.59 367.761 129.791 365.9 130.236 364.089ZM100.102 299.145C101.269 298.983 102.437 298.837 103.913 298.837C107.27 298.837 111.212 298.999 115.753 299.436C120.424 299.873 125.549 300.602 131.112 301.621C136.805 302.641 142.66 303.661 148.661 304.972C150.266 300.44 151.872 295.632 153.624 290.387C156.059 283.239 158.743 276.177 161.668 269.214C162.487 267.342 163.363 265.496 164.296 263.678C164.879 262.351 165.463 261.331 166.063 260.457C166.535 259.729 167.073 259.047 167.669 258.417C167.973 258.127 168.317 257.882 168.691 257.689C169.352 257.294 170.11 257.092 170.88 257.106L136.237 195.367L100.118 299.129L100.102 299.145ZM192.078 333.576C190.911 333.284 189.597 333.138 188.429 332.847C185.834 332.368 183.249 331.834 180.676 331.245L176.735 330.37C171.318 329.205 166.355 328.185 161.668 327.295C160.646 330.225 159.625 332.993 158.457 335.923C157.47 338.682 156.393 341.408 155.229 344.097C154.207 346.72 153.186 349.196 152.164 351.673C151.192 353.937 150.165 356.177 149.082 358.391C147.381 362.001 145.481 365.513 143.39 368.913C142.802 370.027 142.066 371.056 141.2 371.972L250.579 396.043L214.168 333.721L213.584 334.304C213.33 334.553 213.033 334.756 212.709 334.903C211.395 335.631 208.897 335.777 205.086 335.486C201.958 335.146 198.842 334.703 195.744 334.158C194.43 334.013 193.262 333.721 192.078 333.576ZM178.341 275.058C178.049 276.515 177.611 278.133 177.173 279.865L176.297 283.378C175.276 286.875 174.238 290.533 172.924 294.321C172.031 296.83 171.203 299.361 170.442 301.913C169.567 304.389 168.821 306.866 167.961 309.197C171.902 310.233 175.714 311.107 179.071 311.981C180.822 312.418 182.428 312.856 184.05 313.147C185.656 313.584 187.115 313.875 188.575 314.312C189.305 314.474 190.035 314.604 190.619 314.895L192.678 315.332C193.976 315.624 195.16 315.915 196.328 316.352C198.663 316.951 200.869 317.534 202.62 318.116C204.372 318.554 205.832 319.136 207.162 319.573L179.363 270.817C178.92 272.204 178.578 273.621 178.341 275.058ZM160.646 406.565C163.566 408.459 166.647 410.353 170.005 412.247C179.071 417.508 187.699 421.441 195.452 424.517C197.641 425.391 199.831 426.265 202.329 427.139C219.494 432.933 237.443 436.082 255.558 436.479V407.73C213.438 398.536 171.464 389.196 129.344 380.001C138.809 389.929 149.302 398.828 160.646 406.549V406.565Z" fill="white"/>
</g>
<defs>
<clipPath id="clip0_523_3246">
<rect width="519" height="518" fill="white"/>
</clipPath>
</defs>
</svg>
