<svg width="519" height="518" viewBox="0 0 519 518" fill="none" xmlns="http://www.w3.org/2000/svg">
<g clip-path="url(#clip0_523_3245)">
<path d="M259.5 518C402.818 518 519 402.042 519 259C519 115.958 402.818 0 259.5 0C116.182 0 0 115.958 0 259C0 402.042 116.182 518 259.5 518Z" fill="#343434"/>
<path d="M387.904 341.719C390.764 340.736 393.22 338.839 394.891 336.323C396.562 333.806 397.356 330.81 397.148 327.797V345.604C397.169 348.633 396.254 351.595 394.527 354.086C392.8 356.577 390.346 358.476 387.498 359.525L264.43 403.765C261.326 404.998 257.868 404.998 254.764 403.765L131.696 359.541C128.835 358.513 126.367 356.619 124.637 354.123C122.907 351.627 122.001 348.654 122.046 345.62V327.814C122.046 333.949 125.857 339.679 131.696 341.735L255.169 385.959C258.268 387.188 261.72 387.188 264.819 385.959L387.904 341.719ZM387.904 310.185C390.735 309.16 393.162 307.253 394.826 304.747C396.491 302.24 397.305 299.267 397.148 296.264V314.07C397.169 317.1 396.254 320.062 394.527 322.553C392.8 325.044 390.346 326.943 387.498 327.992L264.43 372.232C261.326 373.465 257.868 373.465 254.764 372.232L131.696 328.008C128.835 326.98 126.367 325.085 124.637 322.59C122.907 320.094 122.001 317.121 122.046 314.087V296.07C122.046 302.415 125.857 307.935 131.696 310.185L255.169 354.426C258.268 355.654 261.72 355.654 264.819 354.426L387.904 310.185ZM387.904 278.458C390.723 277.45 393.154 275.581 394.851 273.118C396.548 270.654 397.426 267.72 397.359 264.731V282.537C397.379 285.568 396.461 288.532 394.731 291.023C393.001 293.514 390.543 295.413 387.693 296.458L264.625 340.699C261.526 341.927 258.074 341.927 254.975 340.699L131.696 296.264C128.835 295.236 126.367 293.342 124.637 290.846C122.907 288.35 122.001 285.377 122.046 282.343V264.537C122.046 270.672 125.857 276.402 131.696 278.458L255.169 322.682C258.268 323.911 261.72 323.911 264.819 322.682L387.904 278.458ZM121.64 172.592C121.596 169.557 122.502 166.584 124.232 164.089C125.962 161.593 128.429 159.699 131.29 158.67L254.569 114.236C257.668 113.007 261.12 113.007 264.219 114.236L387.498 158.67C390.359 159.699 392.827 161.593 394.557 164.089C396.287 166.584 397.193 169.557 397.148 172.592V250.81C397.169 253.839 396.254 256.801 394.527 259.292C392.8 261.783 390.346 263.682 387.498 264.731L264.025 308.955C260.926 310.184 257.474 310.184 254.375 308.955L131.29 264.731C128.429 263.703 125.962 261.809 124.232 259.313C122.502 256.817 121.596 253.844 121.64 250.81V172.592Z" fill="white"/>
</g>
<defs>
<clipPath id="clip0_523_3245">
<rect width="519" height="518" fill="white"/>
</clipPath>
</defs>
</svg>
