<svg width="518" height="518" viewBox="0 0 518 518" fill="none" xmlns="http://www.w3.org/2000/svg">
<g clip-path="url(#clip0_523_3244)">
<path d="M259 518C402.042 518 518 402.042 518 259C518 115.958 402.042 0 259 0C115.958 0 0 115.958 0 259C0 402.042 115.958 518 259 518Z" fill="#0061FF"/>
<path d="M259.162 97.125L420.875 261.266L414.805 266.77C412.045 269.377 409.171 271.862 406.193 274.216C400.916 278.441 395.347 282.65 389.746 286.389C367.099 301.724 341.909 312.916 315.349 319.444C296.96 323.977 278.085 326.243 259.162 326.243C235.204 326.243 211.409 322.682 188.584 315.397C165.234 308.063 143.198 297.064 123.3 282.812C116.42 277.766 109.766 272.419 103.357 266.786L97.125 261.266L114.85 243.266L259.162 97.125ZM400.608 266.608C403.004 264.666 405.384 262.723 407.472 260.619L259 110.237L110.544 260.619L113.571 263.209C118.525 267.256 123.462 271.302 128.577 274.864C166.62 302.198 212.318 316.831 259.162 316.676C277.402 316.656 295.572 314.427 313.277 310.039C338.796 303.734 363.004 292.984 384.793 278.279C390.264 274.686 395.542 270.785 400.608 266.624V266.608ZM157.31 258.838C188.57 244.91 222.382 237.629 256.604 237.454C296.846 237.454 336.425 248.138 371.066 268.567L373.316 269.862L371.066 271.319C348.176 286.013 322.633 296.087 295.875 300.974L295.244 301.136L294.758 300.812C253.992 275.413 206.928 261.938 158.896 261.914H150.123L157.31 258.838ZM297.154 291.246C317.421 287.361 336.749 280.4 354.62 270.347C324.217 254.849 290.568 246.794 256.442 246.843C235.884 246.843 215.439 249.595 195.626 255.099C231.562 259.955 266.106 272.258 297.154 291.246ZM350.637 323.167C343.426 332.977 335.756 342.442 327.651 351.528L259.162 420.875L210.955 372.102L221.154 371.455C255.255 369.343 288.414 359.418 318.068 342.447C327.004 338.076 350.637 323.167 350.637 323.167ZM231.708 379.888L259.162 407.747L307.692 358.488C283.782 369.934 258.077 377.173 231.708 379.888Z" fill="white"/>
</g>
<defs>
<clipPath id="clip0_523_3244">
<rect width="518" height="518" fill="white"/>
</clipPath>
</defs>
</svg>
