<svg width="518" height="518" viewBox="0 0 518 518" fill="none" xmlns="http://www.w3.org/2000/svg">
<g clip-path="url(#clip0_523_3243)">
<path d="M259 518C402.042 518 518 402.042 518 259C518 115.958 402.042 0 259 0C115.958 0 0 115.958 0 259C0 402.042 115.958 518 259 518Z" fill="#346FCE"/>
<path fill-rule="evenodd" clip-rule="evenodd" d="M326.34 302.803L341.815 331.892C350.618 348.452 352.483 367.829 347.001 385.764C341.518 403.698 329.137 418.721 312.58 427.528L310.573 428.596C302.373 432.958 293.394 435.661 284.149 436.552C274.904 437.443 265.574 436.505 256.692 433.79C247.81 431.075 239.55 426.638 232.382 420.73C225.215 414.823 219.282 407.562 214.921 399.362L162.749 301.233C154.266 285.282 152.21 266.689 157.002 249.269C161.794 231.85 173.071 216.924 188.519 207.556L173.044 178.467C164.243 161.906 162.38 142.527 167.865 124.592C173.35 106.657 185.735 91.6359 202.295 82.8315L204.302 81.7631C220.861 72.9603 240.239 71.095 258.174 76.5773C276.108 82.0597 291.131 94.4407 299.938 110.998L352.11 209.126C360.594 225.076 362.653 243.668 357.864 261.087C353.074 278.506 341.801 293.432 326.356 302.803H326.34ZM326.34 302.803L289.643 233.764C280.835 217.207 265.813 204.826 247.878 199.343C229.944 193.861 210.566 195.726 194.007 204.529L192 205.581C190.818 206.229 189.652 206.876 188.519 207.556L225.233 276.596C234.04 293.153 249.062 305.534 266.997 311.016C284.931 316.499 304.309 314.633 320.868 305.83L322.876 304.778C324.057 304.131 325.223 303.483 326.356 302.803H326.34Z" fill="white"/>
</g>
<defs>
<clipPath id="clip0_523_3243">
<rect width="518" height="518" fill="white"/>
</clipPath>
</defs>
</svg>
