<svg width="518" height="518" viewBox="0 0 518 518" fill="none" xmlns="http://www.w3.org/2000/svg">
<g clip-path="url(#clip0_523_3242)">
<path d="M259 518C402.042 518 518 402.042 518 259C518 115.958 402.042 0 259 0C115.958 0 0 115.958 0 259C0 402.042 115.958 518 259 518Z" fill="#2E3148"/>
<path d="M259.324 89.5171C238.361 89.5171 221.364 165.55 221.364 259.324C221.364 353.098 238.361 429.131 259.324 429.131C280.271 429.131 297.267 353.098 297.267 259.324C297.267 165.55 280.271 89.5171 259.324 89.5171ZM261.946 419.532C259.551 422.737 257.139 420.341 257.139 420.341C247.491 409.139 242.667 388.371 242.667 388.371C225.783 334.029 229.798 217.366 229.798 217.366C237.73 124.757 252.169 102.872 257.074 98.0155C257.576 97.5175 258.239 97.2134 258.944 97.1571C259.649 97.1008 260.351 97.2959 260.927 97.708C268.049 102.775 274.038 123.883 274.038 123.883C291.683 189.41 290.08 250.923 290.08 250.923C291.683 304.471 281.242 364.397 281.242 364.397C273.197 409.949 261.946 419.532 261.946 419.532Z" fill="white"/>
<path d="M406.598 174.826C396.157 156.631 321.775 179.731 240.401 226.399C159.026 273.068 101.625 325.629 112.034 343.823C122.475 362.018 196.872 338.919 278.247 292.25C359.622 245.581 417.039 193.004 406.614 174.826H406.598ZM121.649 341.314C117.667 340.829 118.574 337.526 118.574 337.526C123.462 323.605 139.067 309.069 139.067 309.069C177.804 267.386 281.015 212.818 281.015 212.818C365.287 173.612 391.462 175.263 398.099 177.076C398.785 177.264 399.381 177.69 399.781 178.277C400.181 178.864 400.36 179.574 400.285 180.281C399.475 188.974 384.097 204.676 384.097 204.676C336.085 252.607 281.922 281.858 281.922 281.858C236.273 309.894 179.082 330.631 179.082 330.631C135.57 346.3 121.649 341.314 121.649 341.314Z" fill="white"/>
<path d="M406.225 344.421C416.747 326.291 359.492 273.471 278.376 226.447C197.277 179.438 122.912 156.063 112.406 174.226C101.884 192.404 159.156 245.176 240.287 292.2C321.435 339.209 395.72 362.584 406.225 344.421ZM119.383 181.235C117.813 177.544 121.099 176.654 121.099 176.654C135.619 173.902 156.015 180.167 156.015 180.167C211.49 192.793 310.412 254.759 310.412 254.759C386.574 308.048 398.261 331.536 400.009 338.189C400.186 338.873 400.116 339.597 399.811 340.234C399.506 340.87 398.986 341.379 398.342 341.669C390.41 345.312 369.124 339.889 369.124 339.889C303.564 322.309 251.133 290.112 251.133 290.112C204.027 264.698 157.44 225.605 157.44 225.605C122.038 195.788 119.399 181.251 119.399 181.251L119.367 181.235H119.383Z" fill="white"/>
<path d="M258.919 278.894C269.951 278.894 278.895 269.951 278.895 258.919C278.895 247.887 269.951 238.943 258.919 238.943C247.887 238.943 238.944 247.887 238.944 258.919C238.944 269.951 247.887 278.894 258.919 278.894Z" fill="white"/>
<path d="M340.828 198.395C349.768 198.395 357.015 191.148 357.015 182.208C357.015 173.267 349.768 166.02 340.828 166.02C331.888 166.02 324.64 173.267 324.64 182.208C324.64 191.148 331.888 198.395 340.828 198.395Z" fill="white"/>
<path d="M150.641 239.153C159.581 239.153 166.829 231.905 166.829 222.965C166.829 214.025 159.581 206.778 150.641 206.778C141.701 206.778 134.454 214.025 134.454 222.965C134.454 231.905 141.701 239.153 150.641 239.153Z" fill="white"/>
<path d="M235.35 386.168C244.29 386.168 251.538 378.921 251.538 369.98C251.538 361.04 244.29 353.793 235.35 353.793C226.41 353.793 219.163 361.04 219.163 369.98C219.163 378.921 226.41 386.168 235.35 386.168Z" fill="white"/>
</g>
<defs>
<clipPath id="clip0_523_3242">
<rect width="518" height="518" fill="white"/>
</clipPath>
</defs>
</svg>
