<svg width="518" height="518" viewBox="0 0 518 518" fill="none" xmlns="http://www.w3.org/2000/svg">
<g clip-path="url(#clip0_523_3241)">
<path d="M518 259C518 310.225 502.81 360.3 474.351 402.893C445.891 445.485 405.441 478.682 358.115 498.285C310.789 517.888 258.713 523.017 208.472 513.023C158.231 503.03 112.081 478.362 75.8595 442.141C39.6377 405.919 14.9703 359.769 4.97673 309.528C-5.01684 259.287 0.11222 207.211 19.7153 159.885C39.3184 112.559 72.5151 72.1087 115.107 43.6494C157.7 15.1901 207.775 0 259 0C327.691 0 393.569 27.2874 442.141 75.8593C490.713 124.431 518 190.309 518 259Z" fill="#001B69"/>
<path d="M248.193 358.974L226.248 295.849H151.562L129.359 358.974H103.6L177.203 154.435H200.49L274.21 358.974H248.193ZM218.172 272.868L197.782 213.793C197.233 212.129 196.55 210.08 195.733 207.647C195.004 205.293 194.227 202.632 193.379 199.854C192.531 197.075 191.731 194.179 190.907 191.213C190.083 188.246 189.329 185.185 188.552 182.289C187.893 185.185 187.163 188.152 186.339 191.213C185.515 194.273 184.714 197.264 183.984 200.136C183.254 203.009 182.336 205.528 181.63 207.93C180.923 210.331 180.264 212.215 179.699 213.793L159.827 272.868H218.172Z" fill="white"/>
<path d="M414.4 296.838C414.48 302.905 413.31 308.925 410.962 314.52C408.711 319.779 405.345 324.487 401.097 328.318C396.553 332.451 391.316 335.75 385.628 338.066C379.032 340.737 372.126 342.565 365.072 343.505V375.55H346.236V344.753C341.668 344.753 337.061 344.572 332.415 344.211C327.768 343.85 323.24 343.199 318.829 342.257C314.66 341.471 310.54 340.441 306.491 339.172C302.993 338.106 299.603 336.71 296.367 335.005V311.036C299.381 312.511 302.85 314.081 306.774 315.745C310.8 317.252 314.991 318.594 319.394 319.795C323.797 320.995 328.247 322.031 332.815 322.855C337.251 323.59 341.739 323.968 346.236 323.986V263.38C338.978 260.953 331.898 258.027 325.045 254.621C319.621 251.896 314.636 248.372 310.259 244.167C306.37 240.291 303.345 235.637 301.382 230.51C299.363 224.741 298.39 218.657 298.509 212.545C298.426 206.712 299.549 200.925 301.806 195.545C304.023 190.421 307.287 185.818 311.389 182.03C315.812 178.02 320.915 174.83 326.458 172.612C332.742 170.007 339.359 168.295 346.118 167.526V142.45H364.955V166.961C373.459 167.336 381.906 168.551 390.172 170.587C397.325 172.336 404.295 174.764 410.986 177.839L401.945 198.041C396.349 195.543 390.581 193.45 384.686 191.778C378.262 189.822 371.647 188.559 364.955 188.011V246.874C372.185 249.436 379.261 252.416 386.146 255.798C391.806 258.484 397.029 262.008 401.638 266.252C405.716 269.913 408.933 274.433 411.057 279.485C413.326 284.986 414.463 290.887 414.4 296.838ZM390.289 296.838C390.325 293.991 389.855 291.161 388.9 288.479C388.011 285.815 386.511 283.396 384.521 281.415C382.311 279.042 379.716 277.06 376.845 275.553C373.06 273.531 369.124 271.807 365.072 270.396V322.573C373.572 321.278 379.859 318.358 383.909 313.814C388.175 309.208 390.466 303.113 390.289 296.838ZM322.573 212.804C322.54 215.861 322.912 218.909 323.679 221.869C324.53 224.519 325.881 226.98 327.659 229.121C329.736 231.455 332.187 233.428 334.911 234.96C338.489 236.981 342.249 238.66 346.142 239.975V188.576C338.026 190.051 332.046 192.885 328.2 197.076C324.361 201.394 322.345 207.031 322.573 212.804Z" fill="white"/>
</g>
<defs>
<clipPath id="clip0_523_3241">
<rect width="518" height="518" fill="white"/>
</clipPath>
</defs>
</svg>
