<svg width="518" height="518" viewBox="0 0 518 518" fill="none" xmlns="http://www.w3.org/2000/svg">
<g clip-path="url(#clip0_523_3240)">
<path d="M259 518C402.042 518 518 402.042 518 259C518 115.958 402.042 0 259 0C115.958 0 0 115.958 0 259C0 402.042 115.958 518 259 518Z" fill="#34318A"/>
<path d="M175.699 214.71L234.136 245.79L265.216 230.25L190.932 190.008V119.139L333.754 193.278L364.834 177.738L181.915 81.8433C179.829 80.7475 177.496 80.2091 175.141 80.2802C172.786 80.3513 170.489 81.0295 168.473 82.2491C166.457 83.4688 164.79 85.1885 163.634 87.2416C162.478 89.2947 161.872 91.6116 161.875 93.9678V192.177C161.924 201.679 167.249 210.372 175.699 214.71ZM398.391 198.231C396.37 196.269 393.794 194.978 391.012 194.535C388.231 194.091 385.381 194.518 382.851 195.755L175.699 303.288C167.201 307.659 161.859 316.416 161.875 325.983V424.031C161.872 426.387 162.478 428.704 163.634 430.757C164.79 432.81 166.457 434.53 168.473 435.75C170.489 436.969 172.786 437.647 175.141 437.719C177.496 437.79 179.829 437.251 181.915 436.155L388.597 328.929C397.225 324.462 402.583 315.494 402.437 305.781V207.879C402.438 206.083 402.08 204.304 401.385 202.648C400.69 200.991 399.672 199.49 398.391 198.231ZM373.527 304.065L190.932 398.859V327.99L373.527 233.196V304.065Z" fill="white"/>
</g>
<defs>
<clipPath id="clip0_523_3240">
<rect width="518" height="518" fill="white"/>
</clipPath>
</defs>
</svg>
