<svg width="519" height="518" viewBox="0 0 519 518" fill="none" xmlns="http://www.w3.org/2000/svg">
<g clip-path="url(#clip0_523_3239)">
<path d="M259.5 518C402.818 518 519 402.042 519 259C519 115.958 402.818 0 259.5 0C116.182 0 0 115.958 0 259C0 402.042 116.182 518 259.5 518Z" fill="#FAB431"/>
<path fill-rule="evenodd" clip-rule="evenodd" d="M397.359 311.885L329.484 271.238L337.269 239.041L366.252 256.119V197.326L273.156 141.932V269.813L251.018 282.035L373.275 354.393L259.5 420.875L121.641 340.294V179.147L259.5 97.125L397.359 179.147V311.885ZM152.748 197.326V302.188L242.243 250.388V144.069L152.748 197.309V197.326ZM219.196 300.019L168.302 331.083L259.5 384.372L310.995 354.263L219.196 300.003V300.019Z" fill="white"/>
</g>
<defs>
<clipPath id="clip0_523_3239">
<rect width="519" height="518" fill="white"/>
</clipPath>
</defs>
</svg>
