<svg width="519" height="518" viewBox="0 0 519 518" fill="none" xmlns="http://www.w3.org/2000/svg">
<g clip-path="url(#clip0_523_3238)">
<path d="M259.5 518C402.818 518 519 402.042 519 259C519 115.958 402.818 0 259.5 0C116.182 0 0 115.958 0 259C0 402.042 116.182 518 259.5 518Z" fill="#3355B5"/>
<path d="M259.5 64.75C152.018 64.75 64.875 151.725 64.875 259C64.875 366.275 152.018 453.25 259.5 453.25C366.982 453.25 454.125 366.275 454.125 259C454.125 207.482 433.62 158.073 397.121 121.645C360.621 85.2156 311.118 64.75 259.5 64.75ZM259.5 449.527C154.078 449.527 68.6053 364.219 68.6053 259C68.6053 153.781 154.078 68.4731 259.5 68.4731C364.922 68.4731 450.395 153.781 450.395 259C450.395 309.531 430.283 357.992 394.483 393.723C358.683 429.454 310.128 449.527 259.5 449.527Z" fill="white"/>
<path fill-rule="evenodd" clip-rule="evenodd" d="M312.859 218.531L312.373 216.75L311.886 214.97L311.4 213.027L310.751 211.409L310.264 209.628L309.616 208.009L308.805 206.229L308.156 204.61L307.345 203.153L306.534 201.534L305.723 200.077L304.75 198.62L303.939 197.325L302.966 195.869L301.993 194.735L300.858 193.44L299.884 192.307L298.911 191.174L297.776 190.203L296.641 189.232L295.505 188.26L294.37 187.451L293.073 186.642L291.937 185.994L290.64 185.185L289.504 184.699L288.207 184.052L286.909 183.566L285.612 183.08L284.152 182.757L282.855 182.433L281.557 182.109L280.098 181.947L278.638 181.785L277.34 181.624H272.961L271.502 181.785L270.042 181.947L268.42 182.109L266.96 182.433L265.501 182.757L264.041 183.08L262.419 183.566L260.959 184.052L259.338 184.537L257.716 185.185L256.256 185.832L254.634 186.642L253.174 187.289L251.553 188.099L249.931 189.07L248.471 189.879L246.849 190.85L245.227 191.984L243.768 192.955L242.146 194.088L240.524 195.383L238.902 196.516L237.442 197.811L235.82 199.106L234.361 200.563L232.739 202.02L231.117 203.477L229.657 205.095L228.035 206.714L226.576 208.333L225.116 209.952L223.494 211.732L222.034 213.513L220.575 215.294L219.115 217.236L217.655 219.179L216.196 221.283L214.249 224.035L212.303 226.949L210.357 230.024L208.573 232.938L206.789 236.175L205.005 239.251L203.383 242.327L201.761 245.564L200.301 248.802L198.842 252.039L197.544 255.277L196.409 257.867L313.022 219.826L312.859 218.531ZM207.6 275.349L310.913 274.54L311.4 272.274L311.886 270.007L312.373 267.741L312.859 265.313L313.184 263.047L313.67 260.78L313.995 258.514L314.157 256.248L314.481 253.982L314.644 251.715L314.806 249.611L314.968 247.345L315.13 245.079V240.384L207.6 275.349Z" fill="white"/>
<path d="M259.5 73.8159C157.03 73.8159 73.9575 156.728 73.9575 259.001C73.9575 361.274 157.03 444.186 259.5 444.186C361.97 444.186 445.042 361.274 445.042 259.001C445.042 234.682 440.243 210.601 430.919 188.134C421.594 165.666 407.928 145.251 390.698 128.055C373.469 110.859 353.015 97.2187 330.504 87.9123C307.993 78.6059 283.866 73.8159 259.5 73.8159ZM364.597 273.893L361.354 292.995H332.322L331.349 296.232L329.565 301.088L327.781 305.945L325.835 310.801L324.375 315.657L322.267 320.352L319.996 325.046L317.725 329.74L315.292 334.273L312.86 338.805L310.265 343.176L307.67 347.547L304.912 351.917L301.669 356.126L300.209 358.23L298.749 360.335L283.666 335.082L285.126 332.978L286.585 330.873L287.883 328.769L289.18 326.665L290.478 324.56L291.775 322.456L293.073 320.352L294.208 318.247L295.343 315.981L296.479 313.715L297.614 311.448L298.749 309.182L299.722 306.916L300.696 304.65L301.669 302.383L302.642 300.117L303.615 297.851L304.426 295.585V293.642L186.516 294.613V324.56L156.349 345.442V294.613H147.591L144.347 295.747L138.832 276.483L166.08 267.58V265.476L167.215 262.077L168.837 259.001L169.972 255.763L171.27 252.526L172.567 249.288L173.865 246.051L175.162 242.813L176.622 239.576L178.082 236.338L179.542 233.101L181.001 230.025L182.623 226.95L184.245 223.874L185.867 220.798L187.489 217.723L189.273 214.647L191.057 211.733L192.841 208.82L194.625 205.744L196.409 202.83L198.355 200.078L200.302 197.327L202.086 194.251L204.032 191.499L205.978 188.909L208.087 186.319L210.844 184.053L212.952 181.625L215.061 179.197L217.169 176.768L219.44 174.502L221.71 172.236L223.981 169.97L226.252 167.865L228.522 165.761L230.793 163.657L232.577 161.876L235.01 159.933L237.442 158.153L239.875 156.372L242.308 154.592L244.741 152.973L247.174 151.516L249.607 150.059L252.039 148.764L254.472 147.469L256.581 145.688L259.5 144.879L261.771 143.908L264.041 142.937L266.312 142.127H305.399L307.183 142.937L308.967 143.746L310.751 144.717L312.535 145.688L314.157 146.822L315.779 147.955L317.401 149.25L319.023 150.545L320.482 152.002L321.942 153.458L323.402 155.077L324.862 156.696L326.159 158.477L327.457 160.257L328.754 162.038L330.052 163.98L331.187 165.923L332.322 168.027L333.457 170.132L334.431 172.398L335.404 174.664L336.377 176.93L337.35 179.358L338.161 181.787V210.438L354.38 205.258L359.894 224.522L339.134 231.32V257.706L338.323 262.562L337.35 267.418L336.215 272.275V274.379L364.597 273.893Z" fill="white"/>
</g>
<defs>
<clipPath id="clip0_523_3238">
<rect width="519" height="518" fill="white"/>
</clipPath>
</defs>
</svg>
