<svg width="519" height="518" viewBox="0 0 519 518" fill="none" xmlns="http://www.w3.org/2000/svg">
<g clip-path="url(#clip0_523_3237)">
<path d="M259.5 518C402.818 518 519 402.042 519 259C519 115.958 402.818 0 259.5 0C116.182 0 0 115.958 0 259C0 402.042 116.182 518 259.5 518Z" fill="#F19F13"/>
<path d="M369.301 225.815H448.286L454.125 193.44H377.735C362.675 193.908 348.077 198.745 335.728 207.361C331.187 191.174 287.072 193.44 287.072 193.44L292.911 161.065H275.719L269.88 193.44H251.877L256.905 161.065H238.253L231.442 193.44H212.141L202.248 243.945L189.111 194.411H145.969L64.875 313.389H131.696L138.508 281.824H124.884L163.809 225.006L178.406 282.147H163.809L157.484 313.389H207.113L203.059 335.081H222.521L227.062 313.389H243.281L239.227 335.081H259.5L263.555 313.389H288.856C300.49 312.072 311.259 306.612 319.185 298.011C328.634 307.556 341.426 313.069 354.866 313.389H431.257L436.284 281.824H367.679C320.482 281.014 340.594 225.491 369.301 225.815ZM283.504 281.014H232.901L236.956 265.636H285.612C297.938 266.446 293.884 281.014 283.504 281.014ZM291.127 239.574H240.524L244.579 224.196H293.235C305.561 225.006 301.02 240.222 291.127 240.222V239.574Z" fill="white"/>
</g>
<defs>
<clipPath id="clip0_523_3237">
<rect width="519" height="518" fill="white"/>
</clipPath>
</defs>
</svg>
