<svg width="518" height="518" viewBox="0 0 518 518" fill="none" xmlns="http://www.w3.org/2000/svg">
<g clip-path="url(#clip0_523_3236)">
<path d="M259 518C402.042 518 518 402.042 518 259C518 115.958 402.042 0 259 0C115.958 0 0 115.958 0 259C0 402.042 115.958 518 259 518Z" fill="#1E1E1E"/>
<path d="M260.489 375.484C170.26 375.484 97.125 349.422 97.125 314.49C97.125 296.262 117.036 279.848 148.925 268.258C173.821 284.235 215.569 292.426 262.917 292.426C309.149 292.426 350.006 282.438 375.097 267.141C405.189 278.586 423.87 294.563 423.87 312.175C423.87 347.156 350.735 375.484 260.489 375.484Z" fill="white"/>
<path d="M261.46 284.577C193.052 284.577 137.594 263.129 137.594 236.662C137.594 221.996 154.688 208.852 181.494 200.095C200.628 210.082 229.296 216.46 261.46 216.46C293.625 216.46 322.293 210.082 341.427 200.111C368.282 208.901 385.327 221.996 385.327 236.662C385.376 263.129 329.901 284.577 261.46 284.577Z" fill="white"/>
<path d="M261.007 208.495C208.123 208.495 165.242 190.786 165.242 168.997C165.242 147.225 208.139 129.5 261.007 129.5C313.876 129.5 356.773 147.225 356.773 168.997C356.773 190.786 313.876 208.495 261.007 208.495Z" fill="white"/>
</g>
<defs>
<clipPath id="clip0_523_3236">
<rect width="518" height="518" fill="white"/>
</clipPath>
</defs>
</svg>
