<svg width="518" height="518" viewBox="0 0 518 518" fill="none" xmlns="http://www.w3.org/2000/svg">
<g clip-path="url(#clip0_523_3235)">
<path d="M259 518C402.042 518 518 402.042 518 259C518 115.958 402.042 0 259 0C115.958 0 0 115.958 0 259C0 402.042 115.958 518 259 518Z" fill="#516AFF"/>
<path d="M296.005 202.004L331.617 222.351V120.597L260.392 84.9844L149.734 147.306V368.606L260.392 432.206L369.771 367.343V257.964L264.196 194.363L228.584 212.17L334.159 274.491L335.421 349.537L260.392 391.511L184.068 348.258V165.112L260.392 123.138L296.005 142.223V202.004Z" fill="white"/>
<path d="M256.571 263.048L280.739 250.325L307.449 266.869L228.583 311.384V219.812L256.571 236.339" fill="white"/>
</g>
<defs>
<clipPath id="clip0_523_3235">
<rect width="518" height="518" fill="white"/>
</clipPath>
</defs>
</svg>
