<svg width="518" height="518" viewBox="0 0 518 518" fill="none" xmlns="http://www.w3.org/2000/svg">
<g clip-path="url(#clip0_523_3232)">
<path d="M259 518C402.042 518 518 402.042 518 259C518 115.958 402.042 0 259 0C115.958 0 0 115.958 0 259C0 402.042 115.958 518 259 518Z" fill="#6356AB"/>
<path d="M368.816 258.579C369.755 257.527 370.807 256.475 371.859 255.406C375.259 251.748 378.982 247.847 382.494 244.075C396.568 229.405 404.437 209.869 404.461 189.539C404.461 188.131 404.688 182.336 404.688 181.51C403.053 135.02 363.911 97.125 317.647 97.125H171.96V155.902H113.312V420.875H319.978C365.902 420.875 404.688 380.034 404.688 331.65C404.801 297.057 383.417 272.63 368.816 258.579ZM201.162 185.412L317.178 185.525L244.286 259.421L316.369 332.588H201.162V185.412ZM319.978 391.252H142.515V185.298H171.976V361.985H316.369C328.283 361.985 338.918 354.781 343.466 343.693C345.706 338.296 346.302 332.359 345.179 326.625C344.055 320.891 341.263 315.616 337.153 311.464L285.645 259.291L337.979 206.294C346.396 197.795 348.841 185.169 344.292 174.08C342.107 168.679 338.359 164.052 333.529 160.793C328.698 157.535 323.005 155.792 317.178 155.788H201.275V126.521H317.761C348.614 126.521 374.546 151.661 375.599 182.223C375.599 183.518 375.356 188.601 375.356 188.714V189.297C375.354 202.114 370.374 214.43 361.467 223.646C357.841 227.434 354.102 231.433 350.718 234.978C344.988 240.999 340.083 246.196 337.736 248.559L327.214 258.935L337.623 269.457C339.031 270.865 340.779 272.517 342.884 274.524C355.024 285.855 375.485 304.73 375.485 331.407C375.599 363.28 349.666 391.252 319.978 391.252Z" fill="white"/>
</g>
<defs>
<clipPath id="clip0_523_3232">
<rect width="518" height="518" fill="white"/>
</clipPath>
</defs>
</svg>
