<svg width="519" height="518" viewBox="0 0 519 518" fill="none" xmlns="http://www.w3.org/2000/svg">
<g clip-path="url(#clip0_523_3231)">
<path d="M259.5 518C402.818 518 519 402.042 519 259C519 115.958 402.818 0 259.5 0C116.182 0 0 115.958 0 259C0 402.042 116.182 518 259.5 518Z" fill="#004AB5"/>
<path d="M202.458 126.15C181.055 134.199 161.917 147.29 146.672 164.308C131.427 181.326 120.527 201.768 114.898 223.894C109.27 246.02 109.08 269.176 114.345 291.391C119.609 313.606 130.173 334.223 145.137 351.488C160.101 368.753 179.022 382.154 200.29 390.552C221.558 398.95 244.544 402.096 267.293 399.722C290.041 397.348 311.878 389.525 330.946 376.918C350.014 364.311 365.748 347.293 376.81 327.312L252.542 258.758L302.966 126.263C270.603 114.001 234.866 113.961 202.475 126.15H202.458ZM211.314 151.613C237.547 141.741 266.49 141.775 292.7 151.71L251.877 258.985L352.498 314.508C343.539 330.683 330.797 344.459 315.358 354.663C299.919 364.868 282.238 371.2 263.821 373.12C245.403 375.04 226.793 372.492 209.574 365.692C192.355 358.891 177.036 348.041 164.921 334.063C152.806 320.085 144.253 303.393 139.99 285.407C135.727 267.422 135.879 248.674 140.434 230.76C144.989 212.846 153.812 196.294 166.153 182.514C178.494 168.734 193.987 158.133 211.314 151.613ZM258.932 80.6146C278.249 81.3754 297.306 85.2604 315.373 92.1077L251.877 258.985L408.404 345.345C393.003 373.156 370.443 396.361 343.054 412.562C315.665 428.763 284.439 437.374 252.601 437.505C220.763 437.636 189.468 429.283 161.945 413.308C134.423 397.333 111.672 374.316 96.0412 346.632C80.4106 318.949 72.4669 287.603 73.0305 255.831C73.5941 224.059 82.6445 193.013 99.2473 165.899C115.85 138.785 139.403 116.586 167.475 101.593C195.547 86.6009 227.119 79.3587 258.932 80.6146ZM381.043 142.321C385.325 142.321 389.315 142.823 392.98 143.859C403.782 146.821 411.08 153.523 414.875 163.948C417.195 170.277 417.697 176.493 416.4 182.596C415.232 188.65 412.426 194.089 407.982 198.945C416.319 198.573 423.601 200.434 429.878 204.481C436.09 208.399 440.679 214.404 443.615 222.466C447.783 233.894 446.534 244.335 439.836 253.788C433.219 263.08 421.395 270.834 404.349 277.018L336.815 301.558L289.277 171.2L353.082 148.019C363.527 144.231 372.853 142.321 381.043 142.321ZM371.15 169.29C367.257 169.29 362.765 170.229 357.639 172.09L327.602 183.001L338.793 213.741L368.847 202.814C376.307 200.111 381.497 196.76 384.384 192.745C387.304 188.731 387.823 184.182 385.957 179.099C384.108 174.016 380.8 170.925 376.031 169.84C374.433 169.455 372.794 169.27 371.15 169.29ZM396.483 219.827C392.396 219.876 387.595 220.895 382.081 222.903L346.822 235.707L358.564 267.92L393.823 255.116C401.771 252.218 407.285 248.754 410.302 244.691C413.464 240.596 414.032 235.82 412.053 230.349C409.458 223.275 404.268 219.762 396.483 219.827Z" fill="white"/>
</g>
<defs>
<clipPath id="clip0_523_3231">
<rect width="519" height="518" fill="white"/>
</clipPath>
</defs>
</svg>
