<svg width="519" height="518" viewBox="0 0 519 518" fill="none" xmlns="http://www.w3.org/2000/svg">
<g clip-path="url(#clip0_523_3230)">
<path d="M259.5 518C402.818 518 519 402.042 519 259C519 115.958 402.818 0 259.5 0C116.182 0 0 115.958 0 259C0 402.042 116.182 518 259.5 518Z" fill="#F7931C"/>
<path d="M119.224 312.743C119.094 263.986 153.494 223.064 202.702 213.854C206.919 213.077 208.119 211.668 208.005 207.557C207.738 196.61 207.738 185.659 208.005 174.712C208.087 170.779 206.838 168.432 203.448 166.23C191.625 158.541 186.791 144.555 191.122 131.977C193.204 125.613 197.336 120.115 202.874 116.338C208.412 112.562 215.046 110.718 221.743 111.095C234.231 111.678 245.665 120.954 249.039 133.272C252.445 145.64 247.709 159.091 236.713 166.068C232.82 168.529 231.604 171.005 231.733 175.408C232.058 186.351 231.944 197.294 231.798 208.253C231.75 211.426 232.22 213.125 235.999 213.611C243.184 214.566 250.207 216.492 256.856 219.341C259.354 220.41 260.7 219.762 262.371 217.917C285.645 192.324 309 166.78 332.403 141.301C334.82 138.679 334.122 136.882 333.02 134.179C327.311 120.128 330.652 104.96 341.421 94.9241C351.249 85.7782 367.501 83.172 379.243 88.8538C393.061 95.5392 400.652 108.36 399.711 123.414C398.446 143.551 378.821 158.719 358.905 154.591C354.866 153.749 352.531 154.721 349.92 157.602C328.255 181.502 306.5 205.319 284.655 229.054C282.012 231.919 281.639 233.457 284.931 236.306C320.677 267.418 330.408 314.297 310.038 357C308.497 360.237 308.837 362.083 311.335 364.446C317.287 370.095 323.045 375.939 328.754 381.848C331.025 384.195 333.149 384.81 336.523 383.952C349.66 380.65 363.284 386.542 369.836 397.922C373.083 403.554 374.424 410.08 373.661 416.533C372.899 422.985 370.073 429.021 365.603 433.745C356.618 443.279 341.94 446.047 330.538 440.349C318.082 434.133 311.205 420.843 314.157 407.197C315.017 403.28 314.109 401.046 311.481 398.569C306.644 394.004 301.954 389.286 297.419 384.421C294.776 381.572 293.138 381.524 290.121 384.357C259.322 413.008 223.608 420.422 184.196 406.436C145.012 392.564 119.338 354.539 119.224 312.759" fill="#FEFDFC"/>
</g>
<defs>
<clipPath id="clip0_523_3230">
<rect width="519" height="518" fill="white"/>
</clipPath>
</defs>
</svg>
