<svg width="518" height="518" viewBox="0 0 518 518" fill="none" xmlns="http://www.w3.org/2000/svg">
<g clip-path="url(#clip0_523_3229)">
<path d="M259 518C402.042 518 518 402.042 518 259C518 115.958 402.042 0 259 0C115.958 0 0 115.958 0 259C0 402.042 115.958 518 259 518Z" fill="#FCC339"/>
<path d="M365.595 156.922L366.841 159.69L317.404 182.385L339.646 256.038L412.83 219.082L413.801 221.008L414.092 220.652L366.679 157.423L365.595 156.922ZM362.924 155.675L318.036 134.793H201.955L154.008 156.808L203.865 177.787H314.75L362.924 155.675ZM149.993 160.855L105.105 219.146L178.176 256.054L200.515 182.109L149.993 160.855ZM205.678 183.081L182.611 259.486L258.903 394.36L335.211 259.486L312.127 183.081H205.678ZM408.216 227.321L339.938 261.817L271.869 382.138L408.216 227.321ZM245.581 381.491L177.884 261.817L109.962 227.515L245.581 381.491ZM104.102 220.846L104.636 219.762L103.94 220.668L104.102 220.846ZM149.281 153.166L200.806 129.5H319.169L370.062 153.166L420.875 220.927L259 404.688L97.125 220.895L149.281 153.166ZM298.222 240.125C299.177 249.951 295.114 255.86 288.607 259.21C299.307 261.8 306.009 268.243 304.681 282.682C303.062 300.586 289.87 305.377 271.027 306.478V325.304H259.826V306.737C256.912 306.737 253.95 306.705 250.874 306.64V325.304H239.688V306.429C237.066 306.413 234.395 306.365 231.676 306.365H217.107L219.324 292.816C219.324 292.816 227.612 292.945 227.467 292.816C230.639 292.816 231.481 290.501 231.676 289.06V259.324H232.873C232.476 259.27 232.076 259.243 231.676 259.243V238.021C231.255 235.706 229.782 233.051 225.233 233.035C225.379 232.873 217.107 233.035 217.107 233.035V220.927H232.55V220.992C234.881 220.992 237.244 220.943 239.672 220.895V202.263H250.89V220.538C253.869 220.474 256.879 220.409 259.826 220.409V202.279L271.027 202.263V220.895C285.499 222.19 296.944 226.69 298.222 240.125ZM282.553 280.432C282.553 265.734 258.741 267.952 251.149 267.952V292.929C258.741 292.929 282.553 294.515 282.553 280.432ZM277.34 245.192C277.34 231.821 257.462 233.861 251.149 233.861V256.523C257.462 256.523 277.34 258.013 277.34 245.192Z" fill="white"/>
</g>
<defs>
<clipPath id="clip0_523_3229">
<rect width="518" height="518" fill="white"/>
</clipPath>
</defs>
</svg>
