<svg width="518" height="518" viewBox="0 0 518 518" fill="none" xmlns="http://www.w3.org/2000/svg">
<g clip-path="url(#clip0_523_3227)">
<path d="M259 518C402.042 518 518 402.042 518 259C518 115.958 402.042 0 259 0C115.958 0 0 115.958 0 259C0 402.042 115.958 518 259 518Z" fill="#8DC351"/>
<path d="M343.288 170.519C330.727 138.597 299.226 135.716 262.545 142.838L249.482 97.3027L221.769 105.251L234.492 149.605C227.208 151.677 219.794 153.975 212.428 156.241L199.64 111.596L171.943 119.528L184.974 165.064C179.017 166.909 173.157 168.722 167.411 170.373L167.362 170.211L129.127 181.17L137.626 210.793C137.626 210.793 157.99 204.513 157.747 204.998C168.981 201.777 174.501 207.248 177.172 212.574L192.064 264.439C192.825 264.228 193.845 263.969 195.043 263.791L192.113 264.633L212.946 337.315C213.464 340.989 213.011 347.222 205.176 349.488C205.613 349.698 185.007 355.251 185.007 355.251L189.005 389.94L225.071 379.58C231.789 377.686 238.425 375.906 244.917 374.077L258.142 420.13L285.822 412.198L272.759 366.63C280.184 364.66 287.588 362.61 294.968 360.479L307.951 405.853L335.68 397.905L322.503 351.932C368.33 335.89 397.581 314.798 389.082 269.861C382.251 233.699 361.175 222.723 332.896 223.954C346.623 211.166 352.531 193.877 343.288 170.535V170.519ZM332.766 280.108C342.641 314.539 282.585 327.521 263.807 332.928L246.309 271.901C265.086 266.511 322.455 244.22 332.75 280.124L332.766 280.108ZM295.179 197.714C304.147 229.037 253.949 239.478 238.296 243.961L222.432 188.616C238.069 184.132 285.806 165.064 295.179 197.73V197.714Z" fill="white"/>
</g>
<defs>
<clipPath id="clip0_523_3227">
<rect width="518" height="518" fill="white"/>
</clipPath>
</defs>
</svg>
