<svg width="518" height="518" viewBox="0 0 518 518" fill="none" xmlns="http://www.w3.org/2000/svg">
<g clip-path="url(#clip0_523_3228)">
<path d="M519.107 259C519.107 310.225 503.917 360.3 475.457 402.893C446.998 445.485 406.548 478.682 359.222 498.285C311.896 517.888 259.819 523.017 209.578 513.023C159.337 503.03 113.188 478.362 76.9659 442.141C40.7441 405.919 16.0767 359.769 6.08317 309.528C-3.9104 259.287 1.21866 207.211 20.8218 159.885C40.4249 112.559 73.6215 72.1087 116.214 43.6494C158.806 15.1901 208.881 0 260.107 0C328.798 0 394.675 27.2874 443.247 75.8593C491.819 124.431 519.107 190.309 519.107 259Z" fill="#43A047"/>
<path fill-rule="evenodd" clip-rule="evenodd" d="M184.973 118.269L244.496 134.209L257.823 84.5986L287.584 92.6747L274.776 140.213L299.027 146.735L311.812 98.7024L342.092 106.778L329.048 155.094C329.048 155.094 378.493 166.042 390.148 206.258C401.803 246.474 364.601 267.617 353.182 268.418C353.182 268.418 396.529 292.175 381.648 338.913C366.768 385.651 321.066 394.009 273.033 383.296L259.965 433.424L229.686 425.348L243.013 375.903L218.973 369.452L205.599 419.109L175.579 411.033L188.882 361.587L127.781 345.106L143.204 310.918C143.204 310.918 160.415 315.627 166.961 317.181C173.507 318.735 177.651 311.954 179.487 305.172C181.324 298.391 208.99 186.009 211.603 176.756C214.217 167.502 213.157 160.274 202.185 157.425C191.213 154.576 176.285 150.126 176.285 150.126L184.973 118.269ZM245.014 267.099L228.532 332.626C228.532 332.626 310.235 362.129 320.689 320.618C331.143 279.108 245.014 267.099 245.014 267.099ZM252.596 236.019L268.771 175.979C268.771 175.979 338.749 188.505 330.131 221.916C321.513 255.327 280.191 242.518 252.596 236.019Z" fill="white"/>
</g>
<defs>
<clipPath id="clip0_523_3228">
<rect width="518" height="518" fill="white"/>
</clipPath>
</defs>
</svg>
