<svg width="518" height="518" viewBox="0 0 518 518" fill="none" xmlns="http://www.w3.org/2000/svg">
<g clip-path="url(#clip0_523_3226)">
<path d="M259 518C402.042 518 518 402.042 518 259C518 115.958 402.042 0 259 0C115.958 0 0 115.958 0 259C0 402.042 115.958 518 259 518Z" fill="#3F43AD"/>
<path d="M193.279 120.372C189.664 120.583 186.266 122.169 183.782 124.803C181.297 127.438 179.913 130.922 179.913 134.544C179.913 138.165 181.297 141.65 183.782 144.284C186.266 146.919 189.664 148.504 193.279 148.716C196.895 148.504 200.292 146.919 202.777 144.284C205.262 141.65 206.646 138.165 206.646 134.544C206.646 130.922 205.262 127.438 202.777 124.803C200.292 122.169 196.895 120.583 193.279 120.372ZM258.839 81.0361C255.195 81.2103 251.758 82.7803 249.241 85.4205C246.724 88.0608 245.32 91.5686 245.32 95.2164C245.32 98.8642 246.724 102.372 249.241 105.012C251.758 107.652 255.195 109.222 258.839 109.397C262.482 109.222 265.919 107.652 268.436 105.012C270.953 102.372 272.357 98.8642 272.357 95.2164C272.357 91.5686 270.953 88.0608 268.436 85.4205C265.919 82.7803 262.482 81.2103 258.839 81.0361ZM258.839 238.362C255.224 238.574 251.826 240.16 249.341 242.794C246.856 245.429 245.472 248.913 245.472 252.535C245.472 256.156 246.856 259.641 249.341 262.275C251.826 264.91 255.224 266.495 258.839 266.707C262.454 266.495 265.852 264.91 268.336 262.275C270.821 259.641 272.205 256.156 272.205 252.535C272.205 248.913 270.821 245.429 268.336 242.794C265.852 240.16 262.454 238.574 258.839 238.362ZM324.382 199.027C322.519 199.029 320.674 199.398 318.954 200.113C317.233 200.828 315.67 201.875 314.354 203.194C313.038 204.513 311.995 206.078 311.284 207.8C310.573 209.523 310.208 211.368 310.21 213.231C310.212 215.095 310.581 216.939 311.296 218.66C312.011 220.38 313.058 221.943 314.377 223.259C315.696 224.575 317.261 225.619 318.983 226.33C320.706 227.041 322.551 227.406 324.414 227.404C328.177 227.399 331.784 225.9 334.442 223.236C337.1 220.573 338.591 216.962 338.587 213.199C338.582 209.436 337.083 205.829 334.419 203.171C331.756 200.513 328.145 199.023 324.382 199.027ZM389.925 159.707C388.022 159.645 386.125 159.967 384.348 160.653C382.571 161.339 380.951 162.376 379.583 163.701C378.215 165.027 377.128 166.614 376.387 168.368C375.645 170.122 375.264 172.008 375.266 173.912C375.268 175.817 375.653 177.702 376.399 179.454C377.145 181.207 378.236 182.792 379.606 184.114C380.977 185.436 382.6 186.469 384.378 187.151C386.157 187.833 388.054 188.151 389.958 188.084C393.637 187.956 397.124 186.402 399.68 183.752C402.236 181.102 403.663 177.562 403.659 173.88C403.655 170.198 402.22 166.661 399.657 164.017C397.095 161.373 393.605 159.827 389.925 159.707ZM193.279 277.698C189.664 277.91 186.266 279.495 183.782 282.13C181.297 284.764 179.913 288.249 179.913 291.87C179.913 295.492 181.297 298.976 183.782 301.611C186.266 304.245 189.664 305.831 193.279 306.042C196.895 305.831 200.292 304.245 202.777 301.611C205.262 298.976 206.646 295.492 206.646 291.87C206.646 288.249 205.262 284.764 202.777 282.13C200.292 279.495 196.895 277.91 193.279 277.698ZM127.72 159.707C125.858 159.71 124.014 160.078 122.295 160.793C120.575 161.508 119.013 162.554 117.698 163.872C116.383 165.19 115.34 166.755 114.629 168.476C113.919 170.197 113.554 172.042 113.556 173.904C113.558 175.766 113.927 177.61 114.642 179.329C115.356 181.049 116.402 182.611 117.721 183.926C119.039 185.241 120.603 186.284 122.325 186.995C124.046 187.705 125.89 188.07 127.752 188.068C131.513 188.064 135.118 186.565 137.775 183.903C140.431 181.241 141.921 177.632 141.916 173.871C141.912 170.111 140.414 166.506 137.752 163.849C135.089 161.193 131.481 159.703 127.72 159.707ZM127.72 317.017C125.857 317.02 124.012 317.389 122.292 318.104C120.571 318.819 119.008 319.866 117.692 321.185C115.034 323.848 113.544 327.459 113.548 331.222C113.552 334.985 115.051 338.592 117.715 341.25C120.379 343.908 123.989 345.398 127.752 345.394C131.515 345.39 135.123 343.891 137.78 341.227C140.438 338.563 141.929 334.953 141.925 331.19C141.92 327.427 140.421 323.82 137.757 321.162C135.094 318.504 131.483 317.013 127.72 317.017ZM127.72 238.362C124.105 238.574 120.707 240.16 118.222 242.794C115.738 245.429 114.354 248.913 114.354 252.535C114.354 256.156 115.738 259.641 118.222 262.275C120.707 264.91 124.105 266.495 127.72 266.707C131.335 266.495 134.733 264.91 137.218 262.275C139.703 259.641 141.087 256.156 141.087 252.535C141.087 248.913 139.703 245.429 137.218 242.794C134.733 240.16 131.335 238.574 127.72 238.362ZM258.839 159.707C256.935 159.643 255.038 159.962 253.261 160.647C251.483 161.331 249.861 162.365 248.492 163.689C247.123 165.013 246.034 166.599 245.29 168.352C244.546 170.106 244.163 171.991 244.163 173.896C244.163 175.8 244.546 177.686 245.29 179.439C246.034 181.192 247.123 182.778 248.492 184.102C249.861 185.426 251.483 186.461 253.261 187.145C255.038 187.829 256.935 188.148 258.839 188.084C262.519 187.96 266.007 186.41 268.566 183.763C271.125 181.116 272.556 177.578 272.556 173.896C272.556 170.214 271.125 166.675 268.566 164.028C266.007 161.381 262.519 159.832 258.839 159.707ZM324.382 120.372C322.478 120.31 320.582 120.631 318.805 121.317C317.028 122.004 315.408 123.04 314.04 124.366C312.672 125.691 311.585 127.278 310.843 129.032C310.102 130.787 309.721 132.672 309.723 134.577C309.725 136.481 310.11 138.366 310.856 140.119C311.602 141.871 312.692 143.456 314.063 144.778C315.434 146.101 317.057 147.133 318.835 147.816C320.614 148.498 322.511 148.815 324.414 148.748C328.094 148.62 331.58 147.067 334.137 144.417C336.693 141.766 338.12 138.227 338.116 134.544C338.111 130.862 336.677 127.326 334.114 124.681C331.552 122.037 328.062 120.492 324.382 120.372ZM324.382 277.698C322.52 277.699 320.676 278.067 318.956 278.781C317.236 279.494 315.673 280.54 314.357 281.857C313.041 283.175 311.998 284.738 311.286 286.459C310.574 288.18 310.209 290.024 310.21 291.886C310.211 293.749 310.579 295.592 311.292 297.312C312.006 299.032 313.051 300.595 314.369 301.911C315.686 303.227 317.25 304.271 318.971 304.982C320.692 305.694 322.536 306.06 324.398 306.059C328.159 306.056 331.765 304.56 334.423 301.9C337.081 299.239 338.572 295.631 338.57 291.87C338.568 288.109 337.072 284.503 334.411 281.846C331.75 279.188 328.143 277.696 324.382 277.698ZM389.925 238.362C386.31 238.574 382.912 240.16 380.427 242.794C377.943 245.429 376.559 248.913 376.559 252.535C376.559 256.156 377.943 259.641 380.427 262.275C382.912 264.91 386.31 266.495 389.925 266.707C393.54 266.495 396.938 264.91 399.423 262.275C401.908 259.641 403.292 256.156 403.292 252.535C403.292 248.913 401.908 245.429 399.423 242.794C396.938 240.16 393.54 238.574 389.925 238.362ZM324.382 356.353C322.519 356.354 320.674 356.722 318.953 357.436C317.232 358.15 315.668 359.196 314.352 360.515C313.035 361.833 311.991 363.397 311.279 365.119C310.567 366.841 310.201 368.686 310.202 370.55C310.203 372.413 310.571 374.258 311.285 375.979C311.999 377.7 313.045 379.263 314.363 380.58C315.681 381.897 317.246 382.941 318.968 383.653C320.69 384.365 322.535 384.731 324.398 384.73C328.161 384.728 331.769 383.231 334.428 380.568C337.088 377.906 338.581 374.296 338.578 370.533C338.576 366.77 337.079 363.162 334.417 360.503C331.755 357.844 328.145 356.351 324.382 356.353ZM389.925 317.017C386.282 317.192 382.845 318.762 380.328 321.402C377.811 324.042 376.406 327.55 376.406 331.198C376.406 334.846 377.811 338.353 380.328 340.994C382.845 343.634 386.282 345.204 389.925 345.378C393.569 345.204 397.006 343.634 399.523 340.994C402.04 338.353 403.444 334.846 403.444 331.198C403.444 327.55 402.04 324.042 399.523 321.402C397.006 318.762 393.569 317.192 389.925 317.017ZM258.839 395.689C255.224 395.9 251.826 397.486 249.341 400.12C246.856 402.755 245.472 406.239 245.472 409.861C245.472 413.482 246.856 416.967 249.341 419.601C251.826 422.236 255.224 423.821 258.839 424.033C262.596 424.029 266.197 422.536 268.855 419.881C271.513 417.226 273.01 413.626 273.019 409.869C273.015 406.109 271.519 402.505 268.861 399.847C266.203 397.188 262.598 395.693 258.839 395.689ZM258.839 317.017C256.974 317.019 255.129 317.387 253.407 318.101C251.685 318.816 250.12 319.862 248.803 321.181C247.485 322.5 246.44 324.066 245.728 325.789C245.016 327.511 244.649 329.358 244.65 331.222C244.651 333.086 245.02 334.932 245.734 336.654C246.449 338.376 247.495 339.941 248.814 341.258C250.133 342.576 251.699 343.62 253.422 344.333C255.144 345.045 256.991 345.411 258.855 345.41C262.62 345.408 266.23 343.91 268.891 341.247C271.552 338.583 273.045 334.971 273.043 331.206C273.041 327.441 271.543 323.831 268.88 321.17C266.216 318.509 262.604 317.015 258.839 317.017ZM193.279 199.027C189.664 199.239 186.266 200.824 183.782 203.458C181.297 206.093 179.913 209.578 179.913 213.199C179.913 216.82 181.297 220.305 183.782 222.939C186.266 225.574 189.664 227.159 193.279 227.371C196.87 227.128 200.235 225.53 202.693 222.901C205.15 220.271 206.518 216.806 206.518 213.207C206.518 209.608 205.15 206.143 202.693 203.513C200.235 200.884 196.87 199.286 193.279 199.043V199.027ZM193.279 356.353C189.664 356.565 186.266 358.15 183.782 360.785C181.297 363.419 179.913 366.904 179.913 370.525C179.913 374.147 181.297 377.631 183.782 380.266C186.266 382.9 189.664 384.486 193.279 384.697C196.895 384.486 200.292 382.9 202.777 380.266C205.262 377.631 206.646 374.147 206.646 370.525C206.646 366.904 205.262 363.419 202.777 360.785C200.292 358.15 196.895 356.565 193.279 356.353Z" fill="white"/>
</g>
<defs>
<clipPath id="clip0_523_3226">
<rect width="518" height="518" fill="white"/>
</clipPath>
</defs>
</svg>
