<svg width="518" height="518" viewBox="0 0 518 518" fill="none" xmlns="http://www.w3.org/2000/svg">
<g clip-path="url(#clip0_523_3225)">
<path d="M258.984 517.968C402.017 517.968 517.968 402.017 517.968 258.984C517.968 115.951 402.017 0 258.984 0C115.951 0 0 115.951 0 258.984C0 402.017 115.951 517.968 258.984 517.968Z" fill="#F04086"/>
<path d="M379.387 271.204C369.188 259.937 354.523 252.944 335.357 250.225V249.82C352.143 247.1 365.336 240.221 374.304 229.213C383.405 218.297 388.348 204.511 388.257 190.298C388.257 166.649 380.649 150.574 364.883 137.932C349.116 125.306 325.45 121.146 293.382 121.146H172.284V233.859H102.742V277.031H292.573C307.514 277.031 318.732 278.083 326.146 284.056C333.56 290.03 337.348 297.751 337.348 309.163C337.348 320.576 333.608 330.32 326.146 336.439C318.7 342.542 307.466 346.573 292.573 346.573H227.435V313H172.284V389.745H297.365C329.173 389.745 353.487 381.44 370.354 368.539C387.205 355.638 395.121 336.585 395.121 313.194C395.33 297.719 389.714 282.73 379.387 271.204ZM285.612 233.746H227.435V164.204H285.612C315.527 164.204 330.452 175.875 330.452 198.975C330.452 222.075 315.527 233.746 285.612 233.746Z" fill="white"/>
</g>
<defs>
<clipPath id="clip0_523_3225">
<rect width="518" height="518" fill="white"/>
</clipPath>
</defs>
</svg>
