<svg width="518" height="518" viewBox="0 0 518 518" fill="none" xmlns="http://www.w3.org/2000/svg">
<g clip-path="url(#clip0_523_3224)">
<path d="M259 518C402.042 518 518 402.042 518 259C518 115.958 402.042 0 259 0C115.958 0 0 115.958 0 259C0 402.042 115.958 518 259 518Z" fill="#2C76B7"/>
<path d="M228.6 337.121L204.222 323.394C198.07 331.73 188.066 337.153 176.735 337.153C165.404 337.153 155.368 331.714 149.233 323.345L141.317 327.829C142.023 329.522 142.386 331.337 142.385 333.171C142.362 335.057 141.968 336.919 141.224 338.652C140.481 340.386 139.404 341.955 138.054 343.272C136.704 344.589 135.108 345.627 133.357 346.327C131.606 347.027 129.734 347.375 127.849 347.351C119.82 347.351 113.312 341.006 113.312 333.171C113.312 325.336 119.82 318.975 127.849 318.975C132.527 318.975 136.671 321.128 139.342 324.478L147.112 320.075C144.359 315.218 142.914 309.73 142.919 304.147C142.919 286.341 157.359 271.837 175.424 271.157V246.001C157.828 245.322 143.794 231.19 143.794 213.853C143.794 208.349 145.218 203.137 147.727 198.604L139.472 194.007C138.098 195.779 136.335 197.211 134.32 198.193C132.305 199.176 130.091 199.682 127.849 199.673C119.82 199.673 113.312 193.311 113.312 185.476C113.312 177.642 119.82 171.296 127.849 171.296C135.878 171.296 142.385 177.642 142.385 185.476C142.385 187.289 142.029 189.038 141.398 190.624L149.815 195.318C155.772 187.063 165.614 181.688 176.735 181.688C188.099 181.688 198.103 187.289 204.027 195.82L228.843 182.077C226.576 177.674 225.281 172.688 225.281 167.427C225.281 150.074 239.17 135.894 256.685 134.89V125.372C253.245 124.945 250.077 123.283 247.769 120.696C245.462 118.109 244.172 114.772 244.14 111.305C244.14 103.47 250.647 97.125 258.676 97.125C266.705 97.125 273.213 103.47 273.213 111.305C273.213 118.492 267.741 124.417 260.651 125.372V134.89C278.166 135.894 292.055 150.074 292.055 167.427C292.055 172.704 290.76 177.706 288.477 182.126L313.244 196.063C316.287 191.519 320.407 187.799 325.237 185.234C330.067 182.67 335.456 181.34 340.925 181.365C352.402 181.365 362.487 187.079 368.395 195.755L376.57 190.559C375.935 188.94 375.611 187.216 375.615 185.476C375.615 177.642 382.122 171.296 390.151 171.296C398.18 171.296 404.688 177.642 404.688 185.476C404.688 193.311 398.18 199.673 390.151 199.673C387.9 199.681 385.677 199.17 383.655 198.179C381.634 197.188 379.868 195.743 378.496 193.959L370.402 199.106C372.62 203.445 373.883 208.333 373.883 213.529C373.883 231.19 359.314 245.532 341.265 245.694V271.885C359.557 272.047 374.32 286.583 374.32 304.471C374.32 309.893 372.96 315.009 370.548 319.525L378.868 324.219C380.249 322.571 381.975 321.246 383.925 320.34C385.875 319.433 388.001 318.967 390.151 318.975C398.18 318.975 404.688 325.336 404.688 333.171C404.688 341.006 398.18 347.351 390.151 347.351C388.266 347.375 386.394 347.027 384.643 346.327C382.892 345.627 381.296 344.589 379.946 343.272C378.596 341.955 377.519 340.386 376.776 338.652C376.032 336.919 375.638 335.057 375.615 333.171C375.61 331.224 376.018 329.299 376.813 327.522L368.508 322.827C362.503 331.407 352.386 337.056 340.925 337.056C329.578 337.056 319.557 331.52 313.52 323.07L288.688 337.04C291.391 341.815 292.929 347.319 292.929 353.163C292.929 370.758 279.008 385.182 261.315 386.509V392.725C264.622 393.287 267.626 394.995 269.801 397.549C271.977 400.103 273.184 403.34 273.213 406.695C273.189 408.58 272.795 410.443 272.052 412.176C271.309 413.909 270.231 415.479 268.882 416.796C267.532 418.113 265.936 419.151 264.185 419.85C262.434 420.55 260.562 420.899 258.676 420.875C256.791 420.899 254.919 420.55 253.168 419.85C251.417 419.151 249.821 418.113 248.471 416.796C247.121 415.479 246.044 413.909 245.301 412.176C244.558 410.443 244.163 408.58 244.14 406.695C244.14 399.281 249.935 393.211 257.349 392.563V386.574C239.057 385.894 224.424 371.196 224.424 353.163C224.424 347.335 225.929 341.88 228.6 337.121ZM230.704 333.835C233.921 329.44 238.132 325.87 242.994 323.416C247.856 320.963 253.23 319.696 258.676 319.719C270.169 319.719 280.368 325.272 286.584 333.77L311.447 319.768C308.883 315.077 307.541 309.816 307.546 304.471C307.546 287.668 320.561 273.844 337.299 272.063V245.516C320.804 243.735 307.983 230.105 307.983 213.529C307.983 208.479 309.165 203.687 311.302 199.446L286.47 185.46C280.481 194.234 270.283 200.013 258.676 200.013C247.054 200.013 236.823 194.218 230.834 185.444L206.067 199.155C208.382 203.558 209.693 208.544 209.693 213.853C209.693 230.753 196.354 244.609 179.39 245.904V271.238C196.824 272.533 210.567 286.778 210.567 304.147C210.567 309.942 209.029 315.381 206.342 320.124L230.704 333.835ZM176.735 321.435C186.529 321.435 194.46 313.698 194.46 304.147C194.46 294.596 186.529 286.859 176.735 286.859C166.958 286.859 159.026 294.596 159.026 304.147C159.026 313.698 166.958 321.435 176.735 321.435ZM176.735 230.704C186.286 230.704 194.007 223.161 194.007 213.869C194.007 204.578 186.27 197.002 176.735 197.002C167.201 197.002 159.479 204.545 159.479 213.853C159.479 223.161 167.201 230.704 176.735 230.704ZM258.676 184.489C268.324 184.489 276.159 176.848 276.159 167.427C276.159 157.99 268.324 150.35 258.676 150.35C249.012 150.35 241.194 157.99 241.194 167.427C241.194 176.848 249.012 184.489 258.676 184.489ZM340.925 230.381C350.476 230.381 358.197 222.837 358.197 213.546C358.197 204.222 350.459 196.678 340.925 196.678C331.391 196.678 323.669 204.221 323.669 213.529C323.669 222.837 331.391 230.381 340.925 230.381ZM340.925 321.532C350.589 321.532 358.407 313.892 358.407 304.471C358.407 295.033 350.589 287.393 340.925 287.393C331.277 287.393 323.442 295.033 323.442 304.471C323.442 313.892 331.277 321.532 340.925 321.532ZM258.676 370.694C268.583 370.694 276.612 362.843 276.612 353.179C276.612 343.515 268.583 335.664 258.676 335.664C248.753 335.664 240.724 343.499 240.724 353.179C240.724 362.859 248.753 370.694 258.676 370.694ZM258.676 306.268C231.934 306.268 210.259 285.11 210.259 259.016C210.259 232.922 231.935 211.749 258.66 211.749C285.418 211.749 307.093 232.922 307.093 259.016C307.093 285.11 285.402 306.284 258.676 306.284V306.268ZM258.676 277.535C269.15 277.535 277.648 269.247 277.648 259.016C277.648 248.786 269.15 240.498 258.676 240.498C248.187 240.498 239.688 248.786 239.688 259.016C239.688 269.247 248.187 277.535 258.676 277.535Z" fill="white"/>
</g>
<defs>
<clipPath id="clip0_523_3224">
<rect width="518" height="518" fill="white"/>
</clipPath>
</defs>
</svg>
