<svg width="518" height="518" viewBox="0 0 518 518" fill="none" xmlns="http://www.w3.org/2000/svg">
<g clip-path="url(#clip0_523_3223)">
<path d="M259 518C402.042 518 518 402.042 518 259C518 115.958 402.042 0 259 0C115.958 0 0 115.958 0 259C0 402.042 115.958 518 259 518Z" fill="#404040"/>
<path d="M259 437.062C160.661 437.062 80.9375 357.339 80.9375 259C80.9375 160.661 160.661 80.9375 259 80.9375C357.339 80.9375 437.062 160.661 437.062 259C437.062 357.339 357.339 437.062 259 437.062ZM259 419.224C347.481 419.224 419.224 347.481 419.224 259C419.224 170.519 347.481 98.7761 259 98.7761C170.519 98.7761 98.7761 170.519 98.7761 259C98.7761 347.481 170.519 419.224 259 419.224ZM356.821 196.192C359.492 243.751 315.543 256.313 315.543 256.313C365.773 263.484 363.086 306.559 363.086 306.559C363.086 376.521 285.029 379.257 285.029 379.257H175.553V138.759H274.265C356.821 142.353 356.821 196.192 356.821 196.192ZM232.08 181.834V240.142H271.578C271.578 240.142 299.388 239.251 301.168 216.815V202.457C301.168 202.457 301.168 183.631 274.249 181.834H232.08ZM306.543 313.762V299.388C306.543 299.388 306.543 280.529 279.639 278.733H232.064V337.089H276.952C276.952 337.089 304.762 336.198 306.559 313.746L306.543 313.762Z" fill="white"/>
</g>
<defs>
<clipPath id="clip0_523_3223">
<rect width="518" height="518" fill="white"/>
</clipPath>
</defs>
</svg>
