<svg width="518" height="518" viewBox="0 0 518 518" fill="none" xmlns="http://www.w3.org/2000/svg">
<g clip-path="url(#clip0_523_3222)">
<path d="M259 518C402.042 518 518 402.042 518 259C518 115.958 402.042 0 259 0C115.958 0 0 115.958 0 259C0 402.042 115.958 518 259 518Z" fill="#E54C40"/>
<path d="M150.997 139.489C150.673 137.109 152.907 135.685 154.186 134.066C170.278 118.144 186.293 102.145 202.231 86.0699C202.004 130.035 202.36 174 202.053 217.966C235.221 199.674 277.001 198.864 311.092 215.246C311.059 218.079 311.059 220.896 311.059 223.745C283.848 209.111 250.388 207.233 221.364 217.431C187.969 228.925 161.357 257.204 150.949 290.858C150.997 240.385 150.932 189.945 150.997 139.489ZM367.748 328.267C366.735 355.027 355.787 380.45 337.04 399.573C319.413 417.69 296.01 429.078 270.876 431.768C245.743 434.458 220.459 428.28 199.398 414.304C175.44 398.537 158.12 372.961 152.81 344.762C148.197 322.424 151.321 298.709 160.92 278.07C171.828 254.857 190.555 236.222 213.821 225.428C244.318 211.054 281.485 212.268 311.011 228.536C310.833 252.72 310.849 276.904 311.027 301.088C306.203 291.101 299.048 282.165 289.578 276.241C270.849 264.149 244.82 264.715 226.738 277.827C206.828 291.522 197.844 318.684 205.759 341.525C212.833 364.042 235.221 380.569 258.887 380.31C281.646 380.877 303.613 366 311.755 344.779C316.935 332.751 315.64 319.461 315.754 306.738C315.851 241.098 315.592 175.457 315.624 109.833C315.64 101.578 315.786 93.3219 315.3 85.0986C332.945 102.484 350.427 120.08 367.91 137.643C367.554 201.179 367.91 264.715 367.748 328.283V328.267Z" fill="white"/>
</g>
<defs>
<clipPath id="clip0_523_3222">
<rect width="518" height="518" fill="white"/>
</clipPath>
</defs>
</svg>
