<svg width="519" height="518" viewBox="0 0 519 518" fill="none" xmlns="http://www.w3.org/2000/svg">
<g clip-path="url(#clip0_523_3220)">
<path d="M259.5 518C402.818 518 519 402.042 519 259C519 115.958 402.818 0 259.5 0C116.182 0 0 115.958 0 259C0 402.042 116.182 518 259.5 518Z" fill="#13A0F6"/>
<path fill-rule="evenodd" clip-rule="evenodd" d="M134.568 187.257C128.219 183.933 122.903 178.939 119.195 172.816C115.487 166.692 113.529 159.673 113.532 152.518C110.76 147.272 109.22 141.466 109.028 135.538C108.836 129.61 109.997 123.716 112.424 118.302C114.851 112.889 118.479 108.097 123.035 104.289C127.591 100.481 132.955 97.7578 138.722 96.3244C144.488 94.891 150.505 94.7853 156.318 96.0153C162.131 97.2453 167.588 99.7788 172.276 103.424C176.963 107.069 180.758 111.731 183.375 117.056C185.991 122.381 187.359 128.231 187.376 134.162C209.522 121.236 234.722 114.441 260.377 114.478C340.497 114.478 405.47 179.454 405.47 259.582C405.47 339.71 340.514 404.687 260.377 404.687C180.24 404.687 115.284 339.727 115.284 259.582C115.246 234.203 121.897 209.26 134.568 187.257ZM260.377 330.969C299.788 330.969 331.739 299.015 331.739 259.582C331.739 220.15 299.788 188.195 260.377 188.195C220.965 188.195 189.014 220.166 189.014 259.582C189.014 298.999 220.965 330.969 260.377 330.969Z" fill="white"/>
</g>
<defs>
<clipPath id="clip0_523_3220">
<rect width="519" height="518" fill="white"/>
</clipPath>
</defs>
</svg>
