<svg width="518" height="518" viewBox="0 0 518 518" fill="none" xmlns="http://www.w3.org/2000/svg">
<g clip-path="url(#clip0_523_3219)">
<path d="M259 518C402.042 518 518 402.042 518 259C518 115.958 402.042 0 259 0C115.958 0 0 115.958 0 259C0 402.042 115.958 518 259 518Z" fill="black"/>
<path d="M274.232 397.84C275.074 399.815 275.527 401.968 275.527 404.234C275.527 413.429 267.952 420.875 258.611 420.875C249.271 420.875 241.696 413.429 241.696 404.234C241.696 402.033 242.133 399.929 242.926 398.002L142.401 340.909C140.814 342.525 138.919 343.807 136.828 344.68C134.738 345.552 132.494 345.999 130.228 345.992C120.888 345.992 113.312 338.546 113.312 329.351C113.312 321.581 118.703 315.074 126.003 313.228V199.479C122.396 198.586 119.19 196.515 116.891 193.595C114.593 190.675 113.333 187.072 113.312 183.356C113.312 174.162 120.888 166.715 130.228 166.715C135.829 166.715 140.799 169.402 143.891 173.546L242.181 117.7C241.855 116.414 241.691 115.092 241.696 113.766C241.696 104.571 249.287 97.1252 258.611 97.1252C261.137 97.1121 263.633 97.669 265.913 98.7543C268.193 99.8396 270.199 101.425 271.781 103.394C273.364 105.362 274.481 107.662 275.052 110.122C275.622 112.582 275.629 115.139 275.074 117.602L373.947 173.773C377.023 169.5 382.057 166.715 387.772 166.715C397.112 166.715 404.688 174.162 404.688 183.356C404.688 191.126 399.265 197.666 391.948 199.495L391.657 313.131C399.119 314.863 404.688 321.468 404.688 329.351C404.688 338.546 397.112 345.992 387.772 345.992C385.41 345.997 383.074 345.511 380.911 344.563C378.748 343.616 376.807 342.228 375.21 340.488L274.232 397.84ZM269.716 391.689L371.487 333.867C370.536 330.56 370.649 327.038 371.811 323.799L273.633 260.668C271.752 262.657 269.483 264.241 266.966 265.321C264.45 266.401 261.739 266.955 259 266.948C255.948 266.956 252.934 266.267 250.188 264.935C247.442 263.603 245.035 261.661 243.152 259.259L146.4 324.446C147.414 327.696 147.391 331.181 146.335 334.418L247.377 391.802C250.486 389.081 254.48 387.585 258.611 387.594C262.869 387.594 266.754 389.132 269.716 391.673V391.689ZM271.642 124.385C269.34 127.102 266.243 129.027 262.788 129.889L262.529 227.92C267.111 228.697 271.273 231.063 274.284 234.604C277.295 238.144 278.962 242.633 278.992 247.28C278.992 249.725 278.538 252.088 277.697 254.241L375.955 317.437C378.14 315.333 380.892 313.827 383.967 313.131L384.259 199.641C380.077 198.788 376.379 196.368 373.923 192.877C371.467 189.386 370.439 185.088 371.05 180.863L271.642 124.385ZM245.661 124.466L146.902 180.556C147.603 184.83 146.618 189.21 144.154 192.773C141.69 196.336 137.94 198.804 133.693 199.657V313.05C137.124 313.763 140.168 315.478 142.499 317.907L239.704 252.428C239.02 249.831 238.873 247.121 239.272 244.465C239.67 241.809 240.607 239.262 242.024 236.98C243.44 234.698 245.307 232.73 247.511 231.194C249.715 229.658 252.209 228.589 254.84 228.05L255.099 130.051C251.421 129.286 248.101 127.322 245.661 124.466Z" fill="white"/>
</g>
<defs>
<clipPath id="clip0_523_3219">
<rect width="518" height="518" fill="white"/>
</clipPath>
</defs>
</svg>
