<svg width="518" height="518" viewBox="0 0 518 518" fill="none" xmlns="http://www.w3.org/2000/svg">
<g clip-path="url(#clip0_523_3218)">
<path d="M259 518C402.042 518 518 402.042 518 259C518 115.958 402.042 0 259 0C115.958 0 0 115.958 0 259C0 402.042 115.958 518 259 518Z" fill="#2AABE4"/>
<path fill-rule="evenodd" clip-rule="evenodd" d="M127.881 113.312H228.244C232.108 113.313 235.813 114.847 238.545 117.58C241.278 120.312 242.812 124.017 242.812 127.881V228.244C242.812 232.108 241.278 235.813 238.545 238.545C235.813 241.278 232.108 242.812 228.244 242.812H127.881C124.017 242.812 120.312 241.278 117.58 238.545C114.847 235.813 113.312 232.108 113.312 228.244V127.881C113.313 124.017 114.847 120.312 117.58 117.58C120.312 114.847 124.017 113.312 127.881 113.312ZM289.756 113.312H390.119C393.983 113.313 397.688 114.847 400.42 117.58C403.153 120.312 404.688 124.017 404.688 127.881V228.244C404.688 232.108 403.153 235.813 400.42 238.545C397.688 241.278 393.983 242.812 390.119 242.812H289.756C285.892 242.812 282.187 241.278 279.455 238.545C276.722 235.813 275.188 232.108 275.188 228.244V127.881C275.188 124.017 276.722 120.312 279.455 117.58C282.187 114.847 285.892 113.312 289.756 113.312ZM289.756 275.188H390.119C393.983 275.188 397.688 276.722 400.42 279.455C403.153 282.187 404.688 285.892 404.688 289.756V390.119C404.688 393.983 403.153 397.688 400.42 400.42C397.688 403.153 393.983 404.688 390.119 404.688H289.756C285.892 404.688 282.187 403.153 279.455 400.42C276.722 397.688 275.188 393.983 275.188 390.119V289.756C275.188 285.892 276.722 282.187 279.455 279.455C282.187 276.722 285.892 275.188 289.756 275.188ZM127.881 275.188H228.244C232.108 275.188 235.813 276.722 238.545 279.455C241.278 282.187 242.812 285.892 242.812 289.756V390.119C242.812 393.983 241.278 397.688 238.545 400.42C235.813 403.153 232.108 404.688 228.244 404.688H127.881C124.017 404.688 120.312 403.153 117.58 400.42C114.847 397.688 113.312 393.983 113.312 390.119V289.756C113.313 285.892 114.847 282.187 117.58 279.455C120.312 276.722 124.017 275.188 127.881 275.188Z" fill="white"/>
</g>
<defs>
<clipPath id="clip0_523_3218">
<rect width="518" height="518" fill="white"/>
</clipPath>
</defs>
</svg>
