<svg width="518" height="518" viewBox="0 0 518 518" fill="none" xmlns="http://www.w3.org/2000/svg">
<g clip-path="url(#clip0_523_3215)">
<path d="M259 518C402.042 518 518 402.042 518 259C518 115.958 402.042 0 259 0C115.958 0 0 115.958 0 259C0 402.042 115.958 518 259 518Z" fill="#18578C"/>
<path d="M188.309 329.189C199.025 340.116 199.025 357.825 188.309 368.751C177.593 379.678 160.208 379.71 149.459 368.8C144.279 363.555 141.365 356.416 141.365 348.97C141.365 341.524 144.279 334.401 149.459 329.14C151.99 326.551 155.013 324.495 158.351 323.092C161.689 321.69 165.274 320.97 168.894 320.974C172.515 320.979 176.098 321.708 179.432 323.119C182.767 324.53 185.785 326.594 188.309 329.189ZM367.391 141.252C372.45 143.422 376.757 147.034 379.774 151.638C382.791 156.241 384.385 161.632 384.356 167.136C384.356 178.467 377.654 188.665 367.391 193.004C357.129 197.342 345.296 194.946 337.445 186.933C332.268 181.645 329.373 174.536 329.383 167.136C329.383 159.69 332.281 152.567 337.445 147.339C341.248 143.434 346.139 140.766 351.482 139.683C356.824 138.6 362.368 139.153 367.391 141.268V141.252ZM184.699 307.611L211.198 280.481C213.793 287.126 217.706 293.176 222.703 298.268C227.7 303.359 233.676 307.385 240.271 310.104L213.707 337.153L184.699 307.611ZM341.67 208.268L315.106 235.334C312.528 228.687 308.617 222.638 303.613 217.56C298.641 212.488 292.686 208.484 286.114 205.792L312.662 178.726L341.67 208.268ZM330.549 336.83C332.582 331.749 336.085 327.392 340.61 324.315C345.135 321.238 350.475 319.581 355.947 319.557C367.068 319.557 377.088 326.372 381.345 336.83C385.586 347.303 383.239 359.33 375.388 367.343C372.859 369.94 369.837 372.006 366.498 373.418C363.159 374.83 359.572 375.56 355.947 375.566C352.325 375.558 348.74 374.827 345.405 373.415C342.069 372.003 339.049 369.938 336.522 367.343C332.665 363.39 330.045 358.397 328.984 352.977C327.923 347.557 328.467 341.945 330.549 336.83ZM146.254 153.943C148.285 148.86 151.787 144.499 156.312 141.419C160.837 138.339 166.179 136.68 171.652 136.655C182.773 136.655 192.793 143.47 197.05 153.943C201.292 164.4 198.944 176.444 191.093 184.457C188.563 187.051 185.54 189.113 182.201 190.523C178.863 191.932 175.276 192.66 171.652 192.664C168.031 192.658 164.448 191.929 161.112 190.52C157.776 189.11 154.756 187.049 152.227 184.457C148.37 180.504 145.751 175.511 144.69 170.091C143.629 164.671 144.172 159.059 146.254 153.943ZM310.476 335.955L283.848 308.971C290.443 306.252 296.419 302.226 301.416 297.135C306.412 292.043 310.326 285.993 312.921 279.348L339.468 306.413L310.476 335.955ZM215.925 177.156L242.473 204.238C235.917 206.895 229.981 210.88 225.039 215.941C220.053 221.024 216.119 227.111 213.481 233.78L186.933 206.714L215.925 177.156ZM263.549 153.182C248.349 153.182 236.03 140.637 236.03 125.146C236.03 109.654 248.349 97.125 263.549 97.125C270.833 97.125 277.842 100.071 283.006 105.332C288.17 110.593 291.067 117.715 291.051 125.146C291.051 140.637 278.749 153.182 263.533 153.182H263.549ZM291.067 392.854C291.067 408.33 278.733 420.875 263.549 420.875C248.365 420.875 236.03 408.33 236.03 392.854C236.03 377.379 248.349 364.818 263.549 364.818C270.833 364.818 277.842 367.764 283.006 373.025C288.17 378.286 291.067 385.408 291.051 392.854H291.067ZM273.536 167.848V202.554C267.807 201.542 261.945 201.542 256.216 202.554V167.848H273.536ZM273.536 316.967V351.69H256.216V316.951C261.946 317.971 267.806 317.971 273.536 316.951V316.967ZM359.848 262.059C357.764 256.939 357.218 251.322 358.279 245.896C359.34 240.47 361.962 235.472 365.821 231.514C369.628 227.603 374.524 224.931 379.872 223.845C385.22 222.76 390.771 223.311 395.801 225.427C406.08 229.765 412.781 239.996 412.781 251.327C412.781 258.773 409.884 265.896 404.736 271.157C401.556 274.42 397.608 276.834 393.254 278.178C388.9 279.521 384.278 279.75 379.812 278.845C375.346 277.94 371.178 275.929 367.691 272.997C364.203 270.064 361.507 266.304 359.848 262.059ZM105.219 256.086C105.219 240.611 117.521 228.066 132.737 228.066C147.921 228.066 160.24 240.595 160.256 256.07C160.256 263.516 157.343 270.639 152.195 275.9C149.661 278.494 146.635 280.556 143.294 281.965C139.953 283.375 136.364 284.103 132.737 284.107C117.537 284.107 105.219 271.562 105.219 256.102V256.086ZM349.375 264.908L315.316 264.876C316.31 259.037 316.31 253.071 315.316 247.232H349.375V264.908ZM209.466 264.908H175.392V247.264H209.466C208.473 253.104 208.473 259.069 209.466 264.908ZM262.723 297.882C241.178 297.882 223.711 280.092 223.711 258.158C223.711 236.224 241.178 218.418 262.723 218.418C284.252 218.418 301.719 236.224 301.735 258.158C301.735 280.092 284.252 297.882 262.723 297.882Z" fill="white"/>
</g>
<defs>
<clipPath id="clip0_523_3215">
<rect width="518" height="518" fill="white"/>
</clipPath>
</defs>
</svg>
