<svg width="519" height="518" viewBox="0 0 519 518" fill="none" xmlns="http://www.w3.org/2000/svg">
<path d="M259.5 518C402.818 518 519 402.042 519 259C519 115.958 402.818 0 259.5 0C116.182 0 0 115.958 0 259C0 402.042 116.182 518 259.5 518Z" fill="#0B76FF"/>
<path d="M440.501 204.934V169.321L324.375 236.823L252.688 113.475V194.412L289.18 257.543L274.421 266.285L252.688 228.082L229.333 269.522L213.114 262.885L252.688 194.412V113.475L174.189 246.86L64.875 201.696V242.975L162.188 266.932L100.556 372.475H252.688V328.93H175L204.032 278.101L221.548 282.472L204.032 313.228H301.344L286.747 287.49L306.048 286.033L330.862 328.93H252.688V372.475H405.469L352.92 282.958L441.15 276.483V240.708L341.891 265.151L440.988 239.737V207.362L333.457 250.906L440.501 204.934ZM299.398 275.35L281.882 279.72L299.074 275.35H299.398ZM293.884 265.637L277.665 272.112L293.884 265.475V265.637Z" fill="white"/>
</svg>
