<svg width="518" height="518" viewBox="0 0 518 518" fill="none" xmlns="http://www.w3.org/2000/svg">
<g clip-path="url(#clip0_523_3275)">
<path d="M259 518C402.042 518 518 402.042 518 259C518 115.958 402.042 0 259 0C115.958 0 0 115.958 0 259C0 402.042 115.958 518 259 518Z" fill="#FF914D"/>
<path fill-rule="evenodd" clip-rule="evenodd" d="M259 441.238C158.346 441.238 76.7607 359.653 76.7607 258.999C76.7607 158.345 158.346 76.7603 259 76.7603C359.653 76.7603 441.238 158.345 441.238 258.999C441.238 359.653 359.653 441.238 259 441.238ZM259 430.522C353.729 430.522 430.522 353.728 430.522 258.999C430.522 164.27 353.729 87.4764 259 87.4764C164.27 87.4764 87.4769 164.27 87.4769 258.999C87.4769 353.728 164.27 430.522 259 430.522Z" fill="white"/>
<path d="M228.081 390.636C232.096 388.985 247.797 376.877 262.965 363.846C281.765 347.856 299.848 331.042 317.161 313.454C333.769 296.846 339.937 289.707 340.956 286.016C344.55 273.05 305.263 130.519 297.266 127.46C292.394 125.582 248.817 161.826 210.226 199.769C187.596 222.011 181.332 229.408 180.846 234.249C180.522 237.988 181.817 247.36 184.229 258.465C193.828 302.527 211.295 363.409 220.133 383.4C223.84 391.882 224.261 392.255 228.065 390.636H228.081Z" fill="white"/>
</g>
<defs>
<clipPath id="clip0_523_3275">
<rect width="518" height="518" fill="white"/>
</clipPath>
</defs>
</svg>
