<svg width="519" height="518" viewBox="0 0 519 518" fill="none" xmlns="http://www.w3.org/2000/svg">
<g clip-path="url(#clip0_523_3271)">
<g opacity="0.98">
<path opacity="0.98" d="M259.5 518C208.176 518 158.004 502.81 115.33 474.351C72.6551 445.891 39.3943 405.441 19.7534 358.115C0.112436 310.789 -5.02653 258.713 4.98634 208.472C14.9992 158.231 39.7142 112.081 76.0059 75.8595C112.298 39.6377 158.536 14.9703 208.874 4.97673C259.212 -5.01684 311.389 0.11222 358.806 19.7153C406.224 39.3184 446.752 72.5151 475.267 115.107C503.781 157.7 519 207.775 519 259C519 327.691 491.66 393.569 442.994 442.141C394.329 490.713 328.324 518 259.5 518Z" fill="#112451"/>
</g>
<path d="M270.041 295.416C270.041 295.416 235.982 313.223 237.604 341.227C239.226 369.231 276.853 411.805 299.56 403.387C322.266 394.97 385.519 358.386 392.007 322.45C398.494 286.513 335.565 268.707 335.565 268.707L270.041 295.416Z" fill="#2844AD"/>
<path d="M357.948 142.776C337.147 125.879 312.005 115.158 285.392 111.838C258.779 108.518 231.767 112.732 207.438 123.999L170.622 176.446C172.384 182.344 175.59 187.712 179.951 192.064C184.311 196.416 189.689 199.616 195.598 201.375C216.683 208.336 307.994 173.209 307.994 173.209L357.948 142.776Z" fill="#2844AD"/>
<path d="M118.069 194.247C118.069 194.247 148.885 137.753 190.081 124.641C231.276 111.529 225.437 152.646 190.081 169.319C154.724 185.992 132.504 195.542 118.069 194.247Z" fill="#5493F7"/>
<path d="M112.231 211.733C112.231 211.733 64.8725 344.309 194.623 404.688C194.623 404.688 204.678 351.755 186.351 318.247C172.753 291.439 156.333 266.152 137.37 242.813C128.325 233.008 119.927 222.626 112.231 211.733Z" fill="#5493F7"/>
<path d="M396.386 339.938C396.386 339.938 362.488 404.688 313.508 404.688C312.256 404.295 311.1 403.645 310.115 402.78C309.13 401.915 308.337 400.854 307.787 399.665C307.237 398.476 306.942 397.185 306.922 395.876C306.902 394.566 307.156 393.267 307.669 392.061C310.751 382.672 341.404 349.326 396.386 339.938Z" fill="#5493F7"/>
<path d="M359.08 143.751C378.027 158.187 392.847 177.332 402.06 199.274C417.073 235.222 419.249 275.228 408.223 312.587C399.951 334.44 387.139 328.774 359.567 322.947C331.995 317.119 227.06 287.658 199.974 251.722C172.889 215.785 193.811 186.972 228.844 168.356C263.876 149.74 335.887 129.506 359.08 143.751Z" fill="#5493F7"/>
<path d="M213.277 367.299L210.844 309.348L289.342 304.653C289.342 307.243 289.342 309.833 289.342 312.423C289.342 315.013 289.342 317.927 289.342 320.679C289.342 323.431 289.342 326.345 289.342 329.096C289.342 331.848 289.342 334.6 289.342 337.352C289.342 340.104 289.342 343.018 289.342 345.77C289.342 348.521 289.342 351.435 289.342 354.187C289.342 356.939 289.342 359.367 289.342 361.795C289.342 361.795 289.342 364.223 289.342 361.795L213.114 366.328C213.114 366.328 213.763 367.623 213.277 367.299Z" fill="#3C3B6E"/>
<path d="M412.278 397.238C412.278 399.828 412.278 402.58 412.278 405.17C412.278 405.17 412.278 407.76 412.278 405.17L216.031 416.987C216.031 416.987 216.031 411.807 216.031 409.217H217.329L411.954 397.562C411.954 397.562 411.792 396.914 412.278 397.238Z" fill="#B12234"/>
<path d="M412.281 397.246H411.47L215.548 409.062V400.645H216.845L411.47 388.99C411.89 388.842 412.348 388.842 412.768 388.99L412.281 397.246Z" fill="#FEFEFE"/>
<path d="M411.311 372.312V380.73H410.337L215.713 392.547C215.293 392.695 214.835 392.695 214.415 392.547V384.129H215.875L410.5 372.312C410.5 372.312 410.986 372.312 411.311 372.312Z" fill="#FEFEFE"/>
<path d="M411.304 372.316L215.058 384.133V375.877L409.683 364.06C409.683 364.06 410.656 364.06 411.142 364.06L411.304 372.316Z" fill="#B12234"/>
<path d="M411.145 363.729H410.334L214.249 375.546V367.129L291.937 362.596H293.883L409.847 355.636C409.847 355.636 410.658 355.636 411.145 355.636V363.729Z" fill="#FEFEFE"/>
<path d="M214.249 392.382L410.334 380.565V388.821L214.249 400.637V392.382Z" fill="#B12234"/>
<path d="M290.639 312.416V303.999L408.549 296.876C408.549 296.876 408.549 302.218 408.549 304.808H407.089L291.936 312.416C291.936 312.416 290.963 312.74 290.639 312.416Z" fill="#B12234"/>
<path d="M290.639 312.424L304.911 311.453L408.225 305.301V313.557L291.936 320.841C291.758 321.001 291.527 321.089 291.287 321.089C291.048 321.089 290.817 321.001 290.639 320.841V312.424Z" fill="#FEFEFE"/>
<path d="M291.938 354.182V345.764H293.235L409.037 338.642C409.037 338.642 410.01 338.642 410.334 338.642V347.059L294.208 354.02C294.208 354.02 291.938 354.505 291.938 354.182Z" fill="#FEFEFE"/>
<path d="M410.172 338.645L291.938 345.767V337.35H293.235L409.037 330.389C409.037 330.389 410.01 330.389 410.334 330.389L410.172 338.645Z" fill="#B12234"/>
<path d="M409.848 330.23L386.168 331.687L291.938 337.353V329.097L408.226 322.137H409.361L409.848 330.23Z" fill="#FEFEFE"/>
<path d="M291.938 354.188L409.523 347.066V355.322L292.262 362.282L291.938 354.188Z" fill="#B12234"/>
<path d="M409.686 321.809H408.875L291.938 329.094V320.676L328.268 318.572L409.361 313.554L409.686 321.809Z" fill="#B12234"/>
<path d="M270.206 349.002V347.06C270.206 347.06 270.206 347.06 270.206 346.25C269.701 346.035 269.256 345.702 268.908 345.279H270.692V343.336C270.692 343.336 270.692 344.308 270.692 344.793C270.692 345.279 270.692 345.603 271.828 344.793H273.125L271.828 345.926C271.784 346.519 271.784 347.114 271.828 347.707L270.206 346.736V349.002Z" fill="#FDFDFD"/>
<path d="M229.655 347.706H231.115C231.115 347.706 231.115 347.706 231.926 347.706C231.801 347.173 231.801 346.619 231.926 346.087C231.926 346.087 231.926 347.22 231.926 347.868C231.926 347.868 231.926 348.515 231.926 347.868H233.872C233.872 347.868 233.872 348.677 232.574 348.839C231.277 349.001 232.574 348.839 232.574 350.134C232.622 350.618 232.622 351.106 232.574 351.591L231.115 350.619C230.703 351.084 230.208 351.468 229.655 351.753C229.728 351.161 229.728 350.563 229.655 349.972C229.655 349.972 229.655 349.972 229.655 349.163L228.195 348.191L229.655 347.706Z" fill="#FDFDFD"/>
<path d="M253.497 332.333L252.038 331.361L250.578 332.656C250.539 332.009 250.539 331.361 250.578 330.714L249.118 329.581H250.902C250.856 328.934 250.856 328.285 250.902 327.638V329.095C250.902 329.095 250.902 329.095 251.875 329.095H253.335L252.038 330.228C251.979 330.355 251.949 330.493 251.949 330.633C251.949 330.773 251.979 330.911 252.038 331.038C252.594 331.384 253.087 331.822 253.497 332.333Z" fill="#FDFDFD"/>
<path d="M273.611 309.985L272.475 310.795C272.375 310.87 272.293 310.968 272.237 311.08C272.18 311.192 272.151 311.316 272.151 311.442C272.151 311.568 272.18 311.692 272.237 311.804C272.293 311.916 272.375 312.014 272.475 312.09V313.546L270.853 312.575L269.394 313.87V311.928L267.934 310.795H269.556C269.556 310.795 269.556 310.795 270.367 310.795C270.291 310.258 270.291 309.713 270.367 309.176C270.367 309.176 270.367 309.176 270.367 310.147C270.367 311.118 270.367 311.28 271.827 311.118H272.962L273.611 309.985Z" fill="#FDFDFD"/>
<path d="M222.356 330.543H224.14V328.762C224.207 329.354 224.207 329.951 224.14 330.543H225.924C225.565 330.954 225.123 331.285 224.627 331.514V332.647V334.266L223.167 333.295C223.167 333.295 223.167 333.295 222.356 333.295L220.897 334.428C220.803 333.892 220.803 333.345 220.897 332.809C220.897 332.809 220.897 332 220.897 331.676H219.761L222.356 330.543Z" fill="#FDFDFD"/>
<path d="M267.611 327.961L266.151 329.094C266.269 329.682 266.269 330.287 266.151 330.875L264.691 329.904C264.691 329.904 264.691 329.904 263.88 329.904C263.47 330.414 262.977 330.852 262.421 331.199C262.421 330.389 262.421 329.742 262.421 329.256C262.421 328.77 262.421 329.256 262.421 329.256C261.917 328.968 261.476 328.583 261.123 328.123H262.745C262.682 327.531 262.682 326.934 262.745 326.342V327.637C262.745 328.609 262.745 328.609 263.88 328.447H265.178L267.611 327.961Z" fill="#FDFDFD"/>
<path d="M284.961 342.04C285.004 342.633 285.004 343.228 284.961 343.821H286.745L285.448 344.792C285.448 344.792 285.448 344.792 285.448 345.763C285.61 346.291 285.61 346.855 285.448 347.382L283.988 346.411C283.61 346.91 283.106 347.301 282.528 347.544V345.925C282.528 345.925 282.528 345.925 282.528 344.954C282.024 344.739 281.579 344.406 281.231 343.983H283.015L284.961 342.04Z" fill="#FDFDFE"/>
<path d="M243.283 346.903H244.905C244.832 346.311 244.832 345.713 244.905 345.122V346.741H245.878H247.338L246.041 347.874C246.041 347.874 246.041 347.874 246.041 348.683C246.081 349.276 246.081 349.871 246.041 350.464L244.581 349.493L243.121 350.788V348.845C243.18 348.718 243.21 348.58 243.21 348.441C243.21 348.301 243.18 348.163 243.121 348.036H241.824L243.283 346.903Z" fill="#FDFDFE"/>
<path d="M217.982 310.961C217.955 311.501 217.955 312.041 217.982 312.58H219.604L218.469 313.551C218.469 313.551 218.469 313.551 218.469 314.685C218.496 315.224 218.496 315.764 218.469 316.303L216.847 315.17L215.387 316.141V314.523L213.766 313.551H215.55C215.55 313.551 215.55 313.551 216.361 313.551C216.745 312.6 217.294 311.723 217.982 310.961Z" fill="#FDFDFD"/>
<path d="M246.203 315.173L244.743 314.202L243.283 315.497C243.244 314.85 243.244 314.202 243.283 313.555L241.824 312.421H243.283V310.803C243.35 311.394 243.35 311.992 243.283 312.583H245.067L243.608 313.716C243.608 313.716 243.608 313.716 243.608 314.526C244.517 314.486 245.419 314.711 246.203 315.173Z" fill="#FDFDFD"/>
<path d="M257.393 308.528C257.436 309.121 257.436 309.716 257.393 310.308H259.177L257.717 311.603C257.717 311.603 257.717 312.737 257.717 313.384L256.42 312.413C256.42 312.413 255.609 312.413 255.284 312.413L254.149 313.384C254.058 312.848 254.058 312.301 254.149 311.765V310.794L252.689 309.823H254.636L257.393 308.528Z" fill="#FDFDFD"/>
<path d="M282.853 309.991C282.726 309.404 282.726 308.797 282.853 308.21C282.761 308.8 282.761 309.401 282.853 309.991Z" fill="#FDFDFD"/>
<path d="M257.067 349.482V347.863L255.445 346.73H257.229V344.95C257.229 344.95 257.229 346.245 257.229 346.73C257.229 346.73 257.229 347.216 257.229 346.73H259.175L257.715 348.025C257.672 348.618 257.672 349.213 257.715 349.806L256.093 348.835L254.796 349.968L257.067 349.482Z" fill="#FDFDFD"/>
<path d="M238.256 327.308C238.256 328.764 238.256 328.764 240.364 328.764L239.067 329.898C239.158 330.488 239.158 331.088 239.067 331.678L237.607 330.707C237.607 330.707 237.607 330.707 236.796 330.707L235.499 331.84C235.407 331.25 235.407 330.65 235.499 330.059L234.039 328.926H235.661L238.256 327.308Z" fill="#FDFDFD"/>
<path d="M216.683 360.17H218.63V358.228C218.603 358.767 218.603 359.307 218.63 359.846H220.414L218.954 361.141C218.911 361.734 218.911 362.329 218.954 362.922L217.332 361.951L215.873 363.084V361.303L216.683 360.17Z" fill="#FDFDFE"/>
<path d="M257.551 361.305C257.551 361.305 257.551 360.172 257.551 359.686C257.551 359.201 257.551 359.686 257.551 359.686L255.929 358.553H257.875L259.497 356.125C259.564 356.717 259.564 357.314 259.497 357.906C260.025 357.743 260.59 357.743 261.119 357.906L259.659 359.039C259.726 359.63 259.726 360.228 259.659 360.819L259.497 360.172C259.497 360.172 259.497 360.172 258.686 360.172L257.388 361.143L257.551 361.305Z" fill="#FDFDFE"/>
<path d="M285.449 353.691C285.449 353.691 285.449 354.986 285.449 355.634C285.449 355.634 285.449 356.281 285.449 355.634H287.395L285.935 356.929C285.935 356.929 285.935 356.929 285.935 357.738V359.519L284.313 358.386L282.854 359.681V357.738L282.529 356.12H284.313C284.594 355.268 284.975 354.453 285.449 353.691Z" fill="#FDFDFE"/>
<path d="M234.687 323.748C234.131 324.095 233.637 324.533 233.227 325.043C233.294 325.635 233.294 326.232 233.227 326.824L231.605 325.853L229.983 327.148C230.039 326.501 230.039 325.851 229.983 325.205L228.361 324.072C228.953 323.992 229.553 323.992 230.145 324.072C230.145 324.072 230.145 324.072 230.956 323.263C230.88 322.78 230.88 322.288 230.956 321.806C231.087 322.337 231.087 322.893 230.956 323.424L234.687 323.748Z" fill="#FEFEFE"/>
<path d="M273.121 325.362L271.499 324.229L270.039 325.524V323.582L268.417 322.449H269.715C270.688 322.449 270.688 322.449 271.012 321.316V320.021V321.963H272.797L271.337 323.258L273.121 325.362Z" fill="#FEFEFE"/>
<path d="M227.063 345.6V344.629C227.063 344.629 227.063 344.629 226.09 344.629L224.792 345.762C224.792 344.953 224.792 344.467 224.792 343.82C224.792 343.172 224.792 343.82 224.792 343.82L223.333 342.687H225.117C224.971 342.047 224.971 341.383 225.117 340.744C225.117 340.744 225.117 342.039 225.117 342.525H227.063L225.441 343.82C226.019 344.378 226.561 344.973 227.063 345.6Z" fill="#FEFEFE"/>
<path d="M262.093 339.936H264.039V337.993C264.082 338.586 264.082 339.181 264.039 339.774H265.823L264.363 341.069C264.317 341.715 264.317 342.365 264.363 343.011L262.903 341.878C262.903 341.878 262.903 341.878 262.093 341.878L260.633 343.011V341.231C260.633 341.231 260.633 341.231 260.633 340.421L262.093 339.936Z" fill="#FEFEFE"/>
<path d="M241.658 323.745H243.28C243.28 323.745 244.091 323.745 244.253 322.935V321.316C244.253 321.316 244.253 322.611 244.253 323.259C244.253 323.259 244.253 323.906 244.253 323.259H246.199L244.74 324.554C244.807 325.146 244.807 325.743 244.74 326.335L243.28 325.363C242.87 325.874 242.376 326.311 241.82 326.658C241.82 325.849 241.82 325.363 241.82 324.716C241.82 324.068 241.82 324.716 241.82 324.716L241.658 323.745Z" fill="#FEFEFE"/>
<path d="M229.822 359.36H231.444C231.444 359.36 232.255 359.36 232.417 358.55C232.355 358.013 232.355 357.469 232.417 356.932C232.46 357.524 232.46 358.12 232.417 358.712H234.201L232.741 360.007C232.698 360.6 232.698 361.195 232.741 361.788L231.119 360.817L229.66 362.112V360.331C229.66 360.331 229.66 360.331 229.66 359.36H229.822Z" fill="#FDFDFE"/>
<path d="M274.261 360.502L272.801 359.368L271.179 360.663C271.179 360.663 271.179 359.368 271.179 358.883C271.179 358.397 271.179 358.883 271.179 358.073L269.557 356.94H271.503C271.359 356.355 271.359 355.744 271.503 355.16V356.293C271.503 357.264 271.503 357.264 272.963 357.264H275.72L274.261 358.559C274.261 358.559 274.261 358.559 274.261 359.368C274.277 359.746 274.277 360.124 274.261 360.502Z" fill="#FDFDFE"/>
<path d="M235.82 341.4H237.442C237.442 341.4 237.442 341.4 237.442 340.591V338.972C237.442 338.972 237.442 340.267 237.442 340.915C237.442 340.915 237.442 341.562 237.442 340.915H239.388L237.929 342.21C237.886 342.802 237.886 343.398 237.929 343.99L236.307 343.019C235.852 343.435 235.363 343.814 234.847 344.152V342.372L235.82 341.4Z" fill="#FEFEFE"/>
<path d="M248.955 339.936H250.901C250.901 339.936 250.901 338.803 250.901 337.993V339.774H252.685L251.225 341.069V342.688L249.766 341.878H248.793L247.495 343.011C247.495 342.202 247.495 341.716 247.495 341.069C247.495 340.421 247.495 341.069 247.495 341.069L248.955 339.936Z" fill="#FEFEFE"/>
<path d="M280.26 342.526L278.8 341.393C278.8 341.393 278.8 341.393 277.989 341.393L276.53 342.526C276.489 341.933 276.489 341.338 276.53 340.745L275.719 339.936H277.665C277.665 339.936 277.665 338.803 277.665 337.993V339.45C277.665 339.45 277.665 340.421 278.638 340.259H280.098L278.8 341.393C278.8 341.393 278.8 341.393 278.8 342.364L280.26 342.526Z" fill="#FEFEFE"/>
<path d="M260.962 322.294L259.502 323.75V325.693L258.043 324.56H257.07L255.772 325.693C255.678 325.103 255.678 324.502 255.772 323.912C255.772 323.912 255.772 323.912 255.772 323.103L254.312 322.132H255.934V320.351C255.934 320.351 255.934 321.646 255.934 322.132L260.962 322.294Z" fill="#FEFEFE"/>
<path d="M216.845 328.603C216.769 328.012 216.769 327.413 216.845 326.822L215.223 325.689H216.683C217.494 325.689 217.494 325.689 217.818 324.556C217.776 324.125 217.776 323.691 217.818 323.261V325.041H219.764L218.142 326.336C218.234 326.926 218.234 327.527 218.142 328.117L216.683 327.146C216.683 327.146 216.683 327.146 215.872 327.146C216.291 327.561 216.622 328.056 216.845 328.603Z" fill="#FEFEFE"/>
<path d="M255.281 352.074C255.281 352.074 253.821 352.883 253.659 353.53C253.61 354.231 253.61 354.934 253.659 355.635L252.199 354.502C252.199 354.502 252.199 354.502 251.388 354.502L249.928 355.635C249.928 355.635 249.928 354.34 249.928 353.692C249.928 353.045 249.928 353.692 249.928 353.692L248.469 352.721H250.253V350.94C250.317 351.478 250.317 352.022 250.253 352.559C250.253 352.559 250.253 352.559 251.064 352.559L255.281 352.074Z" fill="#FEFEFE"/>
<path d="M229.01 336.047H230.794V334.105C230.841 334.752 230.841 335.401 230.794 336.047H232.741L231.281 337.342C231.234 337.989 231.234 338.638 231.281 339.285L229.821 338.152C229.821 338.152 229.821 338.152 229.01 338.152L230.308 339.932V337.99L229.01 336.047Z" fill="#FEFEFE"/>
<path d="M240.848 317.762L239.551 318.895C239.551 318.895 239.551 318.895 239.551 319.705V321.485L237.929 320.352L236.632 321.485V319.543L235.172 318.571H236.956C236.956 318.571 236.956 317.438 236.956 316.629C236.956 315.82 236.956 317.924 236.956 318.571C236.956 318.571 236.956 319.219 236.956 318.571H238.74L240.848 317.762Z" fill="#FEFEFE"/>
<path d="M280.259 315.489L279.124 316.461C279.124 316.461 279.124 316.461 279.124 317.432C279.214 317.968 279.214 318.515 279.124 319.051L277.664 318.079C277.664 318.079 277.664 318.079 276.853 318.079L275.393 319.374C275.354 318.727 275.354 318.079 275.393 317.432V316.622L274.096 315.651H275.718V313.871C275.785 314.462 275.785 315.06 275.718 315.651H277.339L280.259 315.489Z" fill="#FEFEFE"/>
<path d="M217.166 339.935C217.166 339.125 217.166 338.64 217.166 337.992C217.166 337.345 217.166 337.992 217.166 337.992L215.707 337.021H217.491C217.491 337.021 217.491 335.888 217.491 335.078C217.491 334.269 217.491 336.373 217.491 336.859C217.491 336.859 217.491 337.345 217.491 336.859H219.112C219.112 336.859 219.112 336.859 218.302 337.83C217.491 338.801 218.302 337.83 218.302 339.449V340.744L216.68 339.611L217.166 339.935Z" fill="#FEFEFE"/>
<path d="M256.58 337.992V336.212C256.58 336.212 256.58 336.212 256.58 335.402C256.026 335.194 255.527 334.861 255.121 334.431H256.742C256.783 333.838 256.783 333.243 256.742 332.65V334.593H258.689L257.067 335.888C257.067 335.888 257.067 337.021 257.067 337.83L259.5 336.697L256.58 337.992Z" fill="#FEFEFE"/>
<path d="M275.72 350.788H277.179V349.169C277.179 349.169 277.179 350.302 277.179 350.95C277.179 350.95 277.179 351.597 277.179 350.95H278.801C278.554 351.401 278.151 351.746 277.666 351.921C277.666 351.921 277.666 351.921 277.666 353.054C277.693 353.593 277.693 354.133 277.666 354.673L276.369 353.863C276.369 353.863 275.558 353.863 275.071 353.863L273.936 354.835C273.842 354.299 273.842 353.751 273.936 353.216V352.245L275.72 350.95V350.788Z" fill="#FEFEFE"/>
<path d="M268.419 351.274L267.122 352.407C267.122 352.407 267.122 352.407 267.122 353.217C267.079 353.809 267.079 354.405 267.122 354.997L265.662 354.026C265.662 354.026 265.662 354.026 264.689 354.026L263.391 355.159V353.217C262.857 352.97 262.365 352.643 261.932 352.245H263.716C263.662 351.653 263.662 351.057 263.716 350.465C263.787 351.002 263.787 351.546 263.716 352.084H264.689L268.419 351.274Z" fill="#FEFEFE"/>
<path d="M242.309 352.729L240.849 354.024C240.849 354.024 240.849 354.024 240.849 354.833C240.967 355.421 240.967 356.026 240.849 356.614L239.876 356.128C239.876 356.128 239.876 356.128 238.903 356.128L237.443 357.261V355.481C237.443 355.481 237.443 355.481 237.443 354.671L235.821 353.7H237.605C237.646 353.107 237.646 352.512 237.605 351.919C237.672 352.511 237.672 353.108 237.605 353.7C237.605 353.7 237.605 353.7 238.416 353.7L242.309 352.729Z" fill="#FEFEFE"/>
<path d="M225.928 351.43C225.975 352.077 225.975 352.726 225.928 353.373H227.712L226.253 354.668C226.3 355.314 226.3 355.964 226.253 356.61L227.063 356.125C226.653 356.635 226.16 357.073 225.604 357.42C225.604 356.61 225.604 356.125 225.604 355.477C225.604 354.83 225.604 355.477 225.604 355.477L223.982 354.506H225.928C225.928 354.506 225.766 352.24 225.928 351.43Z" fill="#FEFEFE"/>
<path d="M250.094 317.278C250.04 316.686 250.04 316.09 250.094 315.498C250.161 316.089 250.161 316.687 250.094 317.278Z" fill="#FEFEFE"/>
<path d="M264.201 313.871C264.247 314.517 264.247 315.166 264.201 315.813H265.985L264.688 316.946C264.688 316.946 264.688 318.079 264.688 318.727L263.228 317.756L261.768 318.889C261.674 318.353 261.674 317.806 261.768 317.27C261.768 317.27 261.768 316.461 261.768 316.137L260.633 315.327H262.255C262.255 315.327 264.039 314.68 264.201 313.871Z" fill="#FEFEFE"/>
<path d="M242.311 335.241H244.095V333.298C244.095 333.298 244.095 334.108 244.095 334.593C244.111 334.74 244.159 334.88 244.238 335.005C244.316 335.129 244.421 335.235 244.546 335.313C244.671 335.391 244.812 335.439 244.959 335.455C245.105 335.47 245.254 335.453 245.392 335.403C245.392 335.403 245.392 335.403 246.527 335.403L245.23 336.536C245.28 337.128 245.28 337.724 245.23 338.316L243.608 337.183L242.148 338.478V336.536L242.311 335.241Z" fill="#FEFEFE"/>
<path d="M287.56 332.656L286.263 333.627C286.263 333.627 286.263 333.627 286.263 334.436V336.217L284.803 335.246L283.506 336.379C283.412 335.789 283.412 335.188 283.506 334.598C283.564 334.471 283.594 334.333 283.594 334.194C283.594 334.054 283.564 333.916 283.506 333.789C282.951 333.58 282.452 333.248 282.046 332.818H283.83C283.703 332.231 283.703 331.624 283.83 331.037V332.656C283.83 332.656 283.83 332.656 284.641 332.656H286.263H287.56Z" fill="#FEFEFE"/>
</g>
<defs>
<clipPath id="clip0_523_3271">
<rect width="519" height="518" fill="white"/>
</clipPath>
</defs>
</svg>
